<svg version="1.1" viewBox="0.0 0.0 665.0 410.0" fill="none" stroke="none" stroke-linecap="square" stroke-miterlimit="10" width="665" height="410" xmlns:xlink="http://www.w3.org/1999/xlink" xmlns="http://www.w3.org/2000/svg"><path fill="#ffffff" d="M0 0L665.0 0L665.0 410.0L0 410.0L0 0Z" fill-rule="nonzero"/><path stroke="#333333" stroke-width="1.0" stroke-linecap="butt" d="M84.5 369.5L644.5 369.5" fill-rule="nonzero"/><path stroke="#cccccc" stroke-width="1.0" stroke-linecap="butt" d="M84.5 314.5L644.5 314.5" fill-rule="nonzero"/><path stroke="#cccccc" stroke-width="1.0" stroke-linecap="butt" d="M84.5 259.5L644.5 259.5" fill-rule="nonzero"/><path stroke="#cccccc" stroke-width="1.0" stroke-linecap="butt" d="M84.5 204.5L644.5 204.5" fill-rule="nonzero"/><path stroke="#cccccc" stroke-width="1.0" stroke-linecap="butt" d="M84.5 149.5L644.5 149.5" fill-rule="nonzero"/><path stroke="#cccccc" stroke-width="1.0" stroke-linecap="butt" d="M84.5 94.5L644.5 94.5" fill-rule="nonzero"/><clipPath id="id_0"><path d="M84.5 94.833336L644.5 94.833336L644.5 369.5L84.5 369.5L84.5 94.833336Z" clip-rule="nonzero"/></clipPath><path stroke="#000000" stroke-width="2.0" stroke-linecap="butt" stroke-opacity="0.0" clip-path="url(#id_0)" d="M170.0 370.0L130.0 370.0L130.0 277.0C130.0 275.89542 130.89543 275.0 132.0 275.0L168.0 275.0C169.10457 275.0 170.0 275.89542 170.0 277.0Z" fill-rule="nonzero"/><path fill="#f6b26b" clip-path="url(#id_0)" d="M170.0 370.0L130.0 370.0L130.0 277.0C130.0 275.89542 130.89543 275.0 132.0 275.0L168.0 275.0C169.10457 275.0 170.0 275.89542 170.0 277.0Z" fill-rule="nonzero"/><path stroke="#000000" stroke-width="2.0" stroke-linecap="butt" stroke-opacity="0.0" clip-path="url(#id_0)" d="M299.0 370.0L259.0 370.0L259.0 274.0C259.0 272.89542 259.89542 272.0 261.0 272.0L297.0 272.0C298.10458 272.0 299.0 272.89542 299.0 274.0Z" fill-rule="nonzero"/><path fill="#f6b26b" clip-path="url(#id_0)" d="M299.0 370.0L259.0 370.0L259.0 274.0C259.0 272.89542 259.89542 272.0 261.0 272.0L297.0 272.0C298.10458 272.0 299.0 272.89542 299.0 274.0Z" fill-rule="nonzero"/><path stroke="#000000" stroke-width="2.0" stroke-linecap="butt" stroke-opacity="0.0" clip-path="url(#id_0)" d="M428.0 370.0L388.0 370.0L388.0 147.0C388.0 145.89543 388.89542 145.0 390.0 145.0L426.0 145.0C427.10458 145.0 428.0 145.89543 428.0 147.0Z" fill-rule="nonzero"/><path fill="#f6b26b" clip-path="url(#id_0)" d="M428.0 370.0L388.0 370.0L388.0 147.0C388.0 145.89543 388.89542 145.0 390.0 145.0L426.0 145.0C427.10458 145.0 428.0 145.89543 428.0 147.0Z" fill-rule="nonzero"/><path stroke="#000000" stroke-width="2.0" stroke-linecap="butt" stroke-opacity="0.0" clip-path="url(#id_0)" d="M557.0 370.0L517.0 370.0L517.0 268.0C517.0 266.89542 517.89545 266.0 519.0 266.0L555.0 266.0C556.10455 266.0 557.0 266.89542 557.0 268.0Z" fill-rule="nonzero"/><path fill="#f6b26b" clip-path="url(#id_0)" d="M557.0 370.0L517.0 370.0L517.0 268.0C517.0 266.89542 517.89545 266.0 519.0 266.0L555.0 266.0C556.10455 266.0 557.0 266.89542 557.0 268.0Z" fill-rule="nonzero"/><path stroke="#000000" stroke-width="2.0" stroke-linecap="butt" stroke-opacity="0.0" clip-path="url(#id_0)" d="M212.0 370.0L172.0 370.0L172.0 350.0C172.0 348.89542 172.89543 348.0 174.0 348.0L210.0 348.0C211.10457 348.0 212.0 348.89542 212.0 350.0Z" fill-rule="nonzero"/><path fill="#3c78d8" clip-path="url(#id_0)" d="M212.0 370.0L172.0 370.0L172.0 350.0C172.0 348.89542 172.89543 348.0 174.0 348.0L210.0 348.0C211.10457 348.0 212.0 348.89542 212.0 350.0Z" fill-rule="nonzero"/><path stroke="#000000" stroke-width="2.0" stroke-linecap="butt" stroke-opacity="0.0" clip-path="url(#id_0)" d="M341.0 370.0L301.0 370.0L301.0 344.0C301.0 342.89542 301.89542 342.0 303.0 342.0L339.0 342.0C340.10458 342.0 341.0 342.89542 341.0 344.0Z" fill-rule="nonzero"/><path fill="#3c78d8" clip-path="url(#id_0)" d="M341.0 370.0L301.0 370.0L301.0 344.0C301.0 342.89542 301.89542 342.0 303.0 342.0L339.0 342.0C340.10458 342.0 341.0 342.89542 341.0 344.0Z" fill-rule="nonzero"/><path stroke="#000000" stroke-width="2.0" stroke-linecap="butt" stroke-opacity="0.0" clip-path="url(#id_0)" d="M470.0 370.0L430.0 370.0L430.0 326.0C430.0 324.89542 430.89542 324.0 432.0 324.0L468.0 324.0C469.10458 324.0 470.0 324.89542 470.0 326.0Z" fill-rule="nonzero"/><path fill="#3c78d8" clip-path="url(#id_0)" d="M470.0 370.0L430.0 370.0L430.0 326.0C430.0 324.89542 430.89542 324.0 432.0 324.0L468.0 324.0C469.10458 324.0 470.0 324.89542 470.0 326.0Z" fill-rule="nonzero"/><path stroke="#000000" stroke-width="2.0" stroke-linecap="butt" stroke-opacity="0.0" clip-path="url(#id_0)" d="M599.0 370.0L559.0 370.0L559.0 309.0C559.0 307.89542 559.89545 307.0 561.0 307.0L597.0 307.0C598.10455 307.0 599.0 307.89542 599.0 309.0Z" fill-rule="nonzero"/><path fill="#3c78d8" clip-path="url(#id_0)" d="M599.0 370.0L559.0 370.0L559.0 309.0C559.0 307.89542 559.89545 307.0 561.0 307.0L597.0 307.0C598.10455 307.0 599.0 307.89542 599.0 309.0Z" fill-rule="nonzero"/><path stroke="#ffffff" stroke-width="3.0" stroke-linejoin="round" stroke-linecap="round" d="M140.95312 250.73341L142.25 250.73341L142.25 252.54591L140.95312 252.54591L140.95312 255.01466L138.70312 255.01466L138.70312 252.54591L134.03125 252.54591L133.9375 251.12404L138.67188 243.63966L140.95312 243.63966L140.95312 250.73341ZM136.1875 250.73341L138.70312 250.73341L138.70312 246.71779L138.54688 246.96779L136.1875 250.73341ZM143.48438 253.90529Q143.48438 253.35841 143.84375 253.03029Q144.21875 252.68654 144.76562 252.68654Q145.3125 252.68654 145.67188 253.03029Q146.04688 253.35841 146.04688 253.90529Q146.04688 254.43654 145.6875 254.78029Q145.32812 255.10841 144.76562 255.10841Q144.20312 255.10841 143.84375 254.78029Q143.48438 254.43654 143.48438 253.90529ZM150.57812 248.32716L151.78125 248.32716Q152.64062 248.32716 153.04688 247.90529Q153.46875 247.46779 153.46875 246.74904Q153.46875 246.06154 153.04688 245.68654Q152.64062 245.29591 151.92188 245.29591Q151.28125 245.29591 150.84375 245.65529Q150.40625 246.01466 150.40625 246.57716L148.14062 246.57716Q148.14062 245.68654 148.625 244.98341Q149.10938 244.28029 149.96875 243.88966Q150.82812 243.48341 151.875 243.48341Q153.67188 243.48341 154.6875 244.34279Q155.71875 245.20216 155.71875 246.71779Q155.71875 247.49904 155.23438 248.15529Q154.76562 248.81154 154.0 249.17091Q154.95312 249.51466 155.42188 250.20216Q155.90625 250.88966 155.90625 251.82716Q155.90625 253.34279 154.79688 254.26466Q153.6875 255.17091 151.875 255.17091Q150.17188 255.17091 149.07812 254.28029Q148.0 253.37404 148.0 251.88966L150.26562 251.88966Q150.26562 252.53029 150.73438 252.93654Q151.21875 253.34279 151.92188 253.34279Q152.73438 253.34279 153.1875 252.92091Q153.64062 252.49904 153.64062 251.79591Q153.64062 250.09279 151.76562 250.09279L150.57812 250.09279L150.57812 248.32716ZM161.59375 247.56154L163.71875 243.63966L166.42188 243.63966L163.10938 249.28029L166.5 255.01466L163.78125 255.01466L161.59375 251.03029L159.40625 255.01466L156.67188 255.01466L160.07812 249.28029L156.76562 243.63966L159.45312 243.63966L161.59375 247.56154Z" fill-rule="nonzero"/><path fill="#434343" d="M140.95312 250.73341L142.25 250.73341L142.25 252.54591L140.95312 252.54591L140.95312 255.01466L138.70312 255.01466L138.70312 252.54591L134.03125 252.54591L133.9375 251.12404L138.67188 243.63966L140.95312 243.63966L140.95312 250.73341ZM136.1875 250.73341L138.70312 250.73341L138.70312 246.71779L138.54688 246.96779L136.1875 250.73341ZM143.48438 253.90529Q143.48438 253.35841 143.84375 253.03029Q144.21875 252.68654 144.76562 252.68654Q145.3125 252.68654 145.67188 253.03029Q146.04688 253.35841 146.04688 253.90529Q146.04688 254.43654 145.6875 254.78029Q145.32812 255.10841 144.76562 255.10841Q144.20312 255.10841 143.84375 254.78029Q143.48438 254.43654 143.48438 253.90529ZM150.57812 248.32716L151.78125 248.32716Q152.64062 248.32716 153.04688 247.90529Q153.46875 247.46779 153.46875 246.74904Q153.46875 246.06154 153.04688 245.68654Q152.64062 245.29591 151.92188 245.29591Q151.28125 245.29591 150.84375 245.65529Q150.40625 246.01466 150.40625 246.57716L148.14062 246.57716Q148.14062 245.68654 148.625 244.98341Q149.10938 244.28029 149.96875 243.88966Q150.82812 243.48341 151.875 243.48341Q153.67188 243.48341 154.6875 244.34279Q155.71875 245.20216 155.71875 246.71779Q155.71875 247.49904 155.23438 248.15529Q154.76562 248.81154 154.0 249.17091Q154.95312 249.51466 155.42188 250.20216Q155.90625 250.88966 155.90625 251.82716Q155.90625 253.34279 154.79688 254.26466Q153.6875 255.17091 151.875 255.17091Q150.17188 255.17091 149.07812 254.28029Q148.0 253.37404 148.0 251.88966L150.26562 251.88966Q150.26562 252.53029 150.73438 252.93654Q151.21875 253.34279 151.92188 253.34279Q152.73438 253.34279 153.1875 252.92091Q153.64062 252.49904 153.64062 251.79591Q153.64062 250.09279 151.76562 250.09279L150.57812 250.09279L150.57812 248.32716ZM161.59375 247.56154L163.71875 243.63966L166.42188 243.63966L163.10938 249.28029L166.5 255.01466L163.78125 255.01466L161.59375 251.03029L159.40625 255.01466L156.67188 255.01466L160.07812 249.28029L156.76562 243.63966L159.45312 243.63966L161.59375 247.56154Z" fill-rule="nonzero"/><path stroke="#ffffff" stroke-width="3.0" stroke-linejoin="round" stroke-linecap="round" d="M265.57812 245.03117L266.78125 245.03117Q267.64062 245.03117 268.04688 244.6093Q268.46875 244.1718 268.46875 243.45305Q268.46875 242.76555 268.04688 242.39055Q267.64062 241.99992 266.92188 241.99992Q266.28125 241.99992 265.84375 242.3593Q265.40625 242.71867 265.40625 243.28117L263.14062 243.28117Q263.14062 242.39055 263.625 241.68742Q264.10938 240.9843 264.96875 240.59367Q265.82812 240.18742 266.875 240.18742Q268.67188 240.18742 269.6875 241.0468Q270.71875 241.90617 270.71875 243.4218Q270.71875 244.20305 270.23438 244.8593Q269.76562 245.51555 269.0 245.87492Q269.95312 246.21867 270.42188 246.90617Q270.90625 247.59367 270.90625 248.53117Q270.90625 250.0468 269.79688 250.96867Q268.6875 251.87492 266.875 251.87492Q265.17188 251.87492 264.07812 250.9843Q263.0 250.07805 263.0 248.59367L265.26562 248.59367Q265.26562 249.2343 265.73438 249.64055Q266.21875 250.0468 266.92188 250.0468Q267.73438 250.0468 268.1875 249.62492Q268.64062 249.20305 268.64062 248.49992Q268.64062 246.7968 266.76562 246.7968L265.57812 246.7968L265.57812 245.03117ZM272.48438 250.6093Q272.48438 250.06242 272.84375 249.7343Q273.21875 249.39055 273.76562 249.39055Q274.3125 249.39055 274.67188 249.7343Q275.04688 250.06242 275.04688 250.6093Q275.04688 251.14055 274.6875 251.4843Q274.32812 251.81242 273.76562 251.81242Q273.20312 251.81242 272.84375 251.4843Q272.48438 251.14055 272.48438 250.6093ZM283.40625 240.21867L283.40625 242.07805L283.1875 242.07805Q281.65625 242.1093 280.71875 242.89055Q279.78125 243.65617 279.59375 245.03117Q280.5 244.1093 281.89062 244.1093Q283.375 244.1093 284.25 245.1718Q285.125 246.2343 285.125 247.96867Q285.125 249.07805 284.64062 249.9843Q284.15625 250.87492 283.28125 251.37492Q282.40625 251.87492 281.29688 251.87492Q279.5 251.87492 278.39062 250.62492Q277.28125 249.37492 277.28125 247.28117L277.28125 246.46867Q277.28125 244.62492 277.98438 243.20305Q278.6875 241.78117 279.98438 241.01555Q281.29688 240.2343 283.03125 240.21867L283.40625 240.21867ZM281.20312 245.9218Q280.65625 245.9218 280.20312 246.20305Q279.76562 246.4843 279.54688 246.95305L279.54688 247.64055Q279.54688 248.78117 279.98438 249.4218Q280.4375 250.0468 281.25 250.0468Q281.96875 250.0468 282.42188 249.4843Q282.875 248.90617 282.875 247.9843Q282.875 247.06242 282.42188 246.49992Q281.96875 245.9218 281.20312 245.9218ZM290.59375 244.26555L292.71875 240.34367L295.42188 240.34367L292.10938 245.9843L295.5 251.71867L292.78125 251.71867L290.59375 247.7343L288.40625 251.71867L285.67188 251.71867L289.07812 245.9843L285.76562 240.34367L288.45312 240.34367L290.59375 244.26555Z" fill-rule="nonzero"/><path fill="#434343" d="M265.57812 245.03117L266.78125 245.03117Q267.64062 245.03117 268.04688 244.6093Q268.46875 244.1718 268.46875 243.45305Q268.46875 242.76555 268.04688 242.39055Q267.64062 241.99992 266.92188 241.99992Q266.28125 241.99992 265.84375 242.3593Q265.40625 242.71867 265.40625 243.28117L263.14062 243.28117Q263.14062 242.39055 263.625 241.68742Q264.10938 240.9843 264.96875 240.59367Q265.82812 240.18742 266.875 240.18742Q268.67188 240.18742 269.6875 241.0468Q270.71875 241.90617 270.71875 243.4218Q270.71875 244.20305 270.23438 244.8593Q269.76562 245.51555 269.0 245.87492Q269.95312 246.21867 270.42188 246.90617Q270.90625 247.59367 270.90625 248.53117Q270.90625 250.0468 269.79688 250.96867Q268.6875 251.87492 266.875 251.87492Q265.17188 251.87492 264.07812 250.9843Q263.0 250.07805 263.0 248.59367L265.26562 248.59367Q265.26562 249.2343 265.73438 249.64055Q266.21875 250.0468 266.92188 250.0468Q267.73438 250.0468 268.1875 249.62492Q268.64062 249.20305 268.64062 248.49992Q268.64062 246.7968 266.76562 246.7968L265.57812 246.7968L265.57812 245.03117ZM272.48438 250.6093Q272.48438 250.06242 272.84375 249.7343Q273.21875 249.39055 273.76562 249.39055Q274.3125 249.39055 274.67188 249.7343Q275.04688 250.06242 275.04688 250.6093Q275.04688 251.14055 274.6875 251.4843Q274.32812 251.81242 273.76562 251.81242Q273.20312 251.81242 272.84375 251.4843Q272.48438 251.14055 272.48438 250.6093ZM283.40625 240.21867L283.40625 242.07805L283.1875 242.07805Q281.65625 242.1093 280.71875 242.89055Q279.78125 243.65617 279.59375 245.03117Q280.5 244.1093 281.89062 244.1093Q283.375 244.1093 284.25 245.1718Q285.125 246.2343 285.125 247.96867Q285.125 249.07805 284.64062 249.9843Q284.15625 250.87492 283.28125 251.37492Q282.40625 251.87492 281.29688 251.87492Q279.5 251.87492 278.39062 250.62492Q277.28125 249.37492 277.28125 247.28117L277.28125 246.46867Q277.28125 244.62492 277.98438 243.20305Q278.6875 241.78117 279.98438 241.01555Q281.29688 240.2343 283.03125 240.21867L283.40625 240.21867ZM281.20312 245.9218Q280.65625 245.9218 280.20312 246.20305Q279.76562 246.4843 279.54688 246.95305L279.54688 247.64055Q279.54688 248.78117 279.98438 249.4218Q280.4375 250.0468 281.25 250.0468Q281.96875 250.0468 282.42188 249.4843Q282.875 248.90617 282.875 247.9843Q282.875 247.06242 282.42188 246.49992Q281.96875 245.9218 281.20312 245.9218ZM290.59375 244.26555L292.71875 240.34367L295.42188 240.34367L292.10938 245.9843L295.5 251.71867L292.78125 251.71867L290.59375 247.7343L288.40625 251.71867L285.67188 251.71867L289.07812 245.9843L285.76562 240.34367L288.45312 240.34367L290.59375 244.26555Z" fill-rule="nonzero"/><path stroke="#ffffff" stroke-width="3.0" stroke-linejoin="round" stroke-linecap="round" d="M392.60938 119.77825L393.26562 113.997L399.64062 113.997L399.64062 115.872L395.125 115.872L394.84375 118.32513Q395.64062 117.88763 396.54688 117.88763Q398.17188 117.88763 399.09375 118.90325Q400.01562 119.90325 400.01562 121.71575Q400.01562 122.82513 399.54688 123.70013Q399.09375 124.5595 398.21875 125.04388Q397.35938 125.52825 396.17188 125.52825Q395.14062 125.52825 394.25 125.10638Q393.375 124.6845 392.85938 123.9345Q392.35938 123.16888 392.32812 122.20013L394.5625 122.20013Q394.625 122.91888 395.04688 123.3095Q395.48438 123.70013 396.17188 123.70013Q396.9375 123.70013 397.34375 123.15325Q397.76562 122.60638 397.76562 121.59075Q397.76562 120.622 397.28125 120.10638Q396.8125 119.59075 395.9375 119.59075Q395.125 119.59075 394.625 120.01263L394.40625 120.21575L392.60938 119.77825ZM401.48438 124.26263Q401.48438 123.71575 401.84375 123.38763Q402.21875 123.04388 402.76562 123.04388Q403.3125 123.04388 403.67188 123.38763Q404.04688 123.71575 404.04688 124.26263Q404.04688 124.79388 403.6875 125.13763Q403.32812 125.46575 402.76562 125.46575Q402.20312 125.46575 401.84375 125.13763Q401.48438 124.79388 401.48438 124.26263ZM413.9375 120.66888Q413.9375 123.02825 412.95312 124.27825Q411.98438 125.52825 410.09375 125.52825Q408.23438 125.52825 407.25 124.3095Q406.26562 123.07513 406.25 120.77825L406.25 118.6845Q406.25 116.3095 407.23438 115.07513Q408.21875 113.84075 410.07812 113.84075Q411.9375 113.84075 412.92188 115.0595Q413.90625 116.27825 413.9375 118.57513L413.9375 120.66888ZM411.67188 118.372Q411.67188 116.95013 411.28125 116.3095Q410.90625 115.66888 410.07812 115.66888Q409.28125 115.66888 408.90625 116.27825Q408.53125 116.88763 408.5 118.20013L408.5 120.96575Q408.5 122.35638 408.875 123.02825Q409.26562 123.70013 410.09375 123.70013Q410.92188 123.70013 411.28125 123.0595Q411.65625 122.40325 411.67188 121.07513L411.67188 118.372ZM419.59375 117.91888L421.71875 113.997L424.42188 113.997L421.10938 119.63763L424.5 125.372L421.78125 125.372L419.59375 121.38763L417.40625 125.372L414.67188 125.372L418.07812 119.63763L414.76562 113.997L417.45312 113.997L419.59375 117.91888Z" fill-rule="nonzero"/><path fill="#434343" d="M392.60938 119.77825L393.26562 113.997L399.64062 113.997L399.64062 115.872L395.125 115.872L394.84375 118.32513Q395.64062 117.88763 396.54688 117.88763Q398.17188 117.88763 399.09375 118.90325Q400.01562 119.90325 400.01562 121.71575Q400.01562 122.82513 399.54688 123.70013Q399.09375 124.5595 398.21875 125.04388Q397.35938 125.52825 396.17188 125.52825Q395.14062 125.52825 394.25 125.10638Q393.375 124.6845 392.85938 123.9345Q392.35938 123.16888 392.32812 122.20013L394.5625 122.20013Q394.625 122.91888 395.04688 123.3095Q395.48438 123.70013 396.17188 123.70013Q396.9375 123.70013 397.34375 123.15325Q397.76562 122.60638 397.76562 121.59075Q397.76562 120.622 397.28125 120.10638Q396.8125 119.59075 395.9375 119.59075Q395.125 119.59075 394.625 120.01263L394.40625 120.21575L392.60938 119.77825ZM401.48438 124.26263Q401.48438 123.71575 401.84375 123.38763Q402.21875 123.04388 402.76562 123.04388Q403.3125 123.04388 403.67188 123.38763Q404.04688 123.71575 404.04688 124.26263Q404.04688 124.79388 403.6875 125.13763Q403.32812 125.46575 402.76562 125.46575Q402.20312 125.46575 401.84375 125.13763Q401.48438 124.79388 401.48438 124.26263ZM413.9375 120.66888Q413.9375 123.02825 412.95312 124.27825Q411.98438 125.52825 410.09375 125.52825Q408.23438 125.52825 407.25 124.3095Q406.26562 123.07513 406.25 120.77825L406.25 118.6845Q406.25 116.3095 407.23438 115.07513Q408.21875 113.84075 410.07812 113.84075Q411.9375 113.84075 412.92188 115.0595Q413.90625 116.27825 413.9375 118.57513L413.9375 120.66888ZM411.67188 118.372Q411.67188 116.95013 411.28125 116.3095Q410.90625 115.66888 410.07812 115.66888Q409.28125 115.66888 408.90625 116.27825Q408.53125 116.88763 408.5 118.20013L408.5 120.96575Q408.5 122.35638 408.875 123.02825Q409.26562 123.70013 410.09375 123.70013Q410.92188 123.70013 411.28125 123.0595Q411.65625 122.40325 411.67188 121.07513L411.67188 118.372ZM419.59375 117.91888L421.71875 113.997L424.42188 113.997L421.10938 119.63763L424.5 125.372L421.78125 125.372L419.59375 121.38763L417.40625 125.372L414.67188 125.372L418.07812 119.63763L414.76562 113.997L417.45312 113.997L419.59375 117.91888Z" fill-rule="nonzero"/><path stroke="#ffffff" stroke-width="3.0" stroke-linejoin="round" stroke-linecap="round" d="M526.7656 246.22533L524.5 246.22533L524.5 237.5222L521.8125 238.35033L521.8125 236.5222L526.5156 234.8347L526.7656 234.8347L526.7656 246.22533ZM530.4844 245.11595Q530.4844 244.56908 530.84375 244.24095Q531.21875 243.8972 531.7656 243.8972Q532.3125 243.8972 532.6719 244.24095Q533.0469 244.56908 533.0469 245.11595Q533.0469 245.6472 532.6875 245.99095Q532.3281 246.31908 531.7656 246.31908Q531.2031 246.31908 530.84375 245.99095Q530.4844 245.6472 530.4844 245.11595ZM541.40625 234.72533L541.40625 236.5847L541.1875 236.5847Q539.65625 236.61595 538.71875 237.3972Q537.78125 238.16283 537.59375 239.53783Q538.5 238.61595 539.8906 238.61595Q541.375 238.61595 542.25 239.67845Q543.125 240.74095 543.125 242.47533Q543.125 243.5847 542.6406 244.49095Q542.15625 245.38158 541.28125 245.88158Q540.40625 246.38158 539.2969 246.38158Q537.5 246.38158 536.3906 245.13158Q535.28125 243.88158 535.28125 241.78783L535.28125 240.97533Q535.28125 239.13158 535.9844 237.7097Q536.6875 236.28783 537.9844 235.5222Q539.2969 234.74095 541.03125 234.72533L541.40625 234.72533ZM539.2031 240.42845Q538.65625 240.42845 538.2031 240.7097Q537.7656 240.99095 537.5469 241.4597L537.5469 242.1472Q537.5469 243.28783 537.9844 243.92845Q538.4375 244.55345 539.25 244.55345Q539.96875 244.55345 540.4219 243.99095Q540.875 243.41283 540.875 242.49095Q540.875 241.56908 540.4219 241.00658Q539.96875 240.42845 539.2031 240.42845ZM548.59375 238.7722L550.71875 234.85033L553.4219 234.85033L550.1094 240.49095L553.5 246.22533L550.78125 246.22533L548.59375 242.24095L546.40625 246.22533L543.6719 246.22533L547.0781 240.49095L543.7656 234.85033L546.4531 234.85033L548.59375 238.7722Z" fill-rule="nonzero"/><path fill="#434343" d="M526.7656 246.22533L524.5 246.22533L524.5 237.5222L521.8125 238.35033L521.8125 236.5222L526.5156 234.8347L526.7656 234.8347L526.7656 246.22533ZM530.4844 245.11595Q530.4844 244.56908 530.84375 244.24095Q531.21875 243.8972 531.7656 243.8972Q532.3125 243.8972 532.6719 244.24095Q533.0469 244.56908 533.0469 245.11595Q533.0469 245.6472 532.6875 245.99095Q532.3281 246.31908 531.7656 246.31908Q531.2031 246.31908 530.84375 245.99095Q530.4844 245.6472 530.4844 245.11595ZM541.40625 234.72533L541.40625 236.5847L541.1875 236.5847Q539.65625 236.61595 538.71875 237.3972Q537.78125 238.16283 537.59375 239.53783Q538.5 238.61595 539.8906 238.61595Q541.375 238.61595 542.25 239.67845Q543.125 240.74095 543.125 242.47533Q543.125 243.5847 542.6406 244.49095Q542.15625 245.38158 541.28125 245.88158Q540.40625 246.38158 539.2969 246.38158Q537.5 246.38158 536.3906 245.13158Q535.28125 243.88158 535.28125 241.78783L535.28125 240.97533Q535.28125 239.13158 535.9844 237.7097Q536.6875 236.28783 537.9844 235.5222Q539.2969 234.74095 541.03125 234.72533L541.40625 234.72533ZM539.2031 240.42845Q538.65625 240.42845 538.2031 240.7097Q537.7656 240.99095 537.5469 241.4597L537.5469 242.1472Q537.5469 243.28783 537.9844 243.92845Q538.4375 244.55345 539.25 244.55345Q539.96875 244.55345 540.4219 243.99095Q540.875 243.41283 540.875 242.49095Q540.875 241.56908 540.4219 241.00658Q539.96875 240.42845 539.2031 240.42845ZM548.59375 238.7722L550.71875 234.85033L553.4219 234.85033L550.1094 240.49095L553.5 246.22533L550.78125 246.22533L548.59375 242.24095L546.40625 246.22533L543.6719 246.22533L547.0781 240.49095L543.7656 234.85033L546.4531 234.85033L548.59375 238.7722Z" fill-rule="nonzero"/><path fill="#666666" d="M30.28125 265.5417L30.171875 264.2917Q30.921875 264.19794 31.40625 263.8698Q31.890625 263.5417 32.1875 262.8698Q32.484375 262.1823 32.484375 261.32294Q32.484375 260.57294 32.265625 259.9948Q32.03125 259.40106 31.640625 259.1198Q31.25 258.83856 30.78125 258.83856Q30.3125 258.83856 29.96875 259.1198Q29.609375 259.38544 29.359375 260.01044Q29.203125 260.4167 28.875 261.8073Q28.546875 263.1823 28.25 263.7292Q27.875 264.44794 27.328125 264.8073Q26.765625 265.15106 26.0625 265.15106Q25.3125 265.15106 24.65625 264.7292Q23.984375 264.2917 23.65625 263.46356Q23.3125 262.63544 23.3125 261.6198Q23.3125 260.51044 23.671875 259.6667Q24.03125 258.8073 24.734375 258.3542Q25.421875 257.90106 26.296875 257.8542L26.390625 259.13544Q25.453125 259.2292 24.96875 259.82294Q24.46875 260.4167 24.46875 261.57294Q24.46875 262.77606 24.921875 263.32294Q25.359375 263.8698 25.984375 263.8698Q26.515625 263.8698 26.875 263.4792Q27.21875 263.1042 27.59375 261.4948Q27.953125 259.8698 28.21875 259.27606Q28.625 258.40106 29.25 257.9792Q29.859375 257.5573 30.671875 257.5573Q31.46875 257.5573 32.1875 258.02606Q32.890625 258.4792 33.28125 259.33856Q33.671875 260.19794 33.671875 261.26044Q33.671875 262.6198 33.28125 263.5417Q32.875 264.46356 32.078125 264.9948Q31.28125 265.51044 30.28125 265.5417ZM31.15625 251.27605L31.3125 249.9948Q32.4375 250.3073 33.0625 251.1198Q33.671875 251.9323 33.671875 253.19792Q33.671875 254.79167 32.6875 255.72917Q31.703125 256.65106 29.9375 256.65106Q28.09375 256.65106 27.09375 255.71355Q26.078125 254.76042 26.078125 253.26042Q26.078125 251.8073 27.078125 250.88542Q28.0625 249.96355 29.859375 249.96355Q29.96875 249.96355 30.1875 249.96355L30.1875 255.38542Q31.375 255.3073 32.015625 254.71355Q32.65625 254.10417 32.65625 253.1823Q32.65625 252.51042 32.296875 252.04167Q31.9375 251.5573 31.15625 251.27605ZM29.171875 255.3073L29.171875 251.26042Q28.25 251.33855 27.796875 251.72917Q27.09375 252.3073 27.09375 253.2448Q27.09375 254.10417 27.65625 254.6823Q28.21875 255.2448 29.171875 255.3073ZM30.84375 243.51042L31.0 242.29167Q32.25 242.4948 32.96875 243.32292Q33.671875 244.13542 33.671875 245.32292Q33.671875 246.8073 32.703125 247.71355Q31.71875 248.6198 29.890625 248.6198Q28.71875 248.6198 27.84375 248.22917Q26.953125 247.83855 26.515625 247.04167Q26.078125 246.2448 26.078125 245.3073Q26.078125 244.13542 26.671875 243.38542Q27.265625 242.6198 28.375 242.41667L28.5625 243.60417Q27.828125 243.77605 27.46875 244.21355Q27.09375 244.65105 27.09375 245.26042Q27.09375 246.19792 27.765625 246.77605Q28.421875 247.35417 29.859375 247.35417Q31.328125 247.35417 32.0 246.79167Q32.65625 246.22917 32.65625 245.33855Q32.65625 244.60417 32.21875 244.1198Q31.765625 243.63542 30.84375 243.51042ZM29.875 241.69792Q27.859375 241.69792 26.875 240.57292Q26.078125 239.65105 26.078125 238.29167Q26.078125 236.8073 27.0625 235.85417Q28.03125 234.90105 29.765625 234.90105Q31.171875 234.90105 31.984375 235.32292Q32.78125 235.7448 33.234375 236.5573Q33.671875 237.35417 33.671875 238.29167Q33.671875 239.82292 32.6875 240.76042Q31.703125 241.69792 29.875 241.69792ZM29.875 240.4323Q31.265625 240.4323 31.96875 239.82292Q32.65625 239.21355 32.65625 238.29167Q32.65625 237.38542 31.953125 236.77605Q31.25 236.16667 29.828125 236.16667Q28.484375 236.16667 27.796875 236.77605Q27.09375 237.38542 27.09375 238.29167Q27.09375 239.21355 27.78125 239.82292Q28.46875 240.4323 29.875 240.4323ZM33.5 233.2448L26.234375 233.2448L26.234375 232.13542L27.265625 232.13542Q26.078125 231.33855 26.078125 229.82292Q26.078125 229.16667 26.3125 228.6198Q26.546875 228.07292 26.9375 227.8073Q27.3125 227.52605 27.84375 227.41667Q28.1875 227.33855 29.03125 227.33855L33.5 227.33855L33.5 228.57292L29.078125 228.57292Q28.328125 228.57292 27.96875 228.71355Q27.59375 228.85417 27.375 229.22917Q27.140625 229.58855 27.140625 230.08855Q27.140625 230.8698 27.640625 231.44792Q28.140625 232.01042 29.53125 232.01042L33.5 232.01042L33.5 233.2448ZM33.5 220.52605L32.578125 220.52605Q33.671875 221.22917 33.671875 222.5573Q33.671875 223.4323 33.1875 224.16667Q32.703125 224.88542 31.84375 225.29167Q30.984375 225.6823 29.875 225.6823Q28.796875 225.6823 27.90625 225.32292Q27.015625 224.96355 26.546875 224.2448Q26.078125 223.51042 26.078125 222.6198Q26.078125 221.96355 26.359375 221.44792Q26.625 220.9323 27.078125 220.6198L23.484375 220.6198L23.484375 219.38542L33.5 219.38542L33.5 220.52605ZM29.875 224.41667Q31.265625 224.41667 31.96875 223.83855Q32.65625 223.2448 32.65625 222.44792Q32.65625 221.63542 32.0 221.07292Q31.328125 220.51042 29.984375 220.51042Q28.484375 220.51042 27.796875 221.08855Q27.09375 221.66667 27.09375 222.4948Q27.09375 223.32292 27.765625 223.8698Q28.4375 224.41667 29.875 224.41667ZM31.328125 217.72917L31.140625 216.52605Q31.875 216.41667 32.265625 215.94792Q32.65625 215.47917 32.65625 214.63542Q32.65625 213.79167 32.3125 213.38542Q31.96875 212.96355 31.5 212.96355Q31.078125 212.96355 30.84375 213.33855Q30.671875 213.58855 30.421875 214.58855Q30.078125 215.94792 29.828125 216.47917Q29.578125 216.9948 29.140625 217.26042Q28.703125 217.52605 28.171875 217.52605Q27.6875 217.52605 27.28125 217.3073Q26.859375 217.08855 26.578125 216.69792Q26.375 216.41667 26.234375 215.9323Q26.078125 215.4323 26.078125 214.85417Q26.078125 214.01042 26.328125 213.3698Q26.5625 212.71355 26.984375 212.40105Q27.40625 212.08855 28.109375 211.97917L28.28125 213.1823Q27.71875 213.26042 27.40625 213.66667Q27.09375 214.0573 27.09375 214.77605Q27.09375 215.6198 27.375 215.97917Q27.640625 216.33855 28.03125 216.33855Q28.265625 216.33855 28.453125 216.19792Q28.65625 216.04167 28.78125 215.71355Q28.84375 215.54167 29.09375 214.63542Q29.453125 213.32292 29.671875 212.8073Q29.890625 212.29167 30.3125 212.01042Q30.734375 211.71355 31.359375 211.71355Q31.984375 211.71355 32.53125 212.07292Q33.0625 212.41667 33.375 213.10417Q33.671875 213.77605 33.671875 214.63542Q33.671875 216.04167 33.078125 216.79167Q32.484375 217.52605 31.328125 217.72917Z" fill-rule="nonzero"/><path fill="#999999" d="M72.0 369.26562Q72.0 367.73438 72.3125 366.8125Q72.625 365.875 73.234375 365.375Q73.859375 364.875 74.796875 364.875Q75.484375 364.875 76.0 365.15625Q76.53125 365.4375 76.875 365.96875Q77.21875 366.48438 77.40625 367.23438Q77.59375 367.98438 77.59375 369.26562Q77.59375 370.78125 77.28125 371.70312Q76.984375 372.625 76.359375 373.14062Q75.75 373.64062 74.796875 373.64062Q73.5625 373.64062 72.84375 372.75Q72.0 371.6875 72.0 369.26562ZM73.078125 369.26562Q73.078125 371.375 73.578125 372.07812Q74.078125 372.78125 74.796875 372.78125Q75.53125 372.78125 76.015625 372.07812Q76.515625 371.375 76.515625 369.26562Q76.515625 367.14062 76.015625 366.45312Q75.53125 365.75 74.78125 365.75Q74.0625 365.75 73.625 366.35938Q73.078125 367.14062 73.078125 369.26562Z" fill-rule="nonzero"/><path fill="#999999" d="M72.0 316.31668L73.109375 316.22293Q73.234375 317.03543 73.671875 317.44168Q74.125 317.84793 74.765625 317.84793Q75.515625 317.84793 76.046875 317.2698Q76.578125 316.69168 76.578125 315.75418Q76.578125 314.84793 76.0625 314.3323Q75.5625 313.80106 74.734375 313.80106Q74.234375 313.80106 73.8125 314.03543Q73.40625 314.2698 73.171875 314.62918L72.1875 314.50418L73.015625 310.09793L77.296875 310.09793L77.296875 311.09793L73.859375 311.09793L73.40625 313.41043Q74.171875 312.86356 75.015625 312.86356Q76.140625 312.86356 76.90625 313.6448Q77.6875 314.42606 77.6875 315.66043Q77.6875 316.81668 77.015625 317.67606Q76.1875 318.7073 74.765625 318.7073Q73.59375 318.7073 72.84375 318.05106Q72.109375 317.3948 72.0 316.31668Z" fill-rule="nonzero"/><path fill="#999999" d="M68.96875 263.63333L67.921875 263.63333L67.921875 256.91458Q67.53125 257.27396 66.90625 257.64896Q66.296875 258.00833 65.8125 258.1802L65.8125 257.16458Q66.6875 256.7427 67.34375 256.16458Q68.015625 255.57083 68.296875 255.00833L68.96875 255.00833L68.96875 263.63333ZM72.0 259.39896Q72.0 257.8677 72.3125 256.94583Q72.625 256.00833 73.234375 255.50833Q73.859375 255.00833 74.796875 255.00833Q75.484375 255.00833 76.0 255.28958Q76.53125 255.57083 76.875 256.10208Q77.21875 256.6177 77.40625 257.3677Q77.59375 258.1177 77.59375 259.39896Q77.59375 260.91458 77.28125 261.83646Q76.984375 262.75833 76.359375 263.27396Q75.75 263.77396 74.796875 263.77396Q73.5625 263.77396 72.84375 262.88333Q72.0 261.82083 72.0 259.39896ZM73.078125 259.39896Q73.078125 261.50833 73.578125 262.21146Q74.078125 262.91458 74.796875 262.91458Q75.53125 262.91458 76.015625 262.21146Q76.515625 261.50833 76.515625 259.39896Q76.515625 257.27396 76.015625 256.58646Q75.53125 255.88333 74.78125 255.88333Q74.0625 255.88333 73.625 256.4927Q73.078125 257.27396 73.078125 259.39896Z" fill-rule="nonzero"/><path fill="#999999" d="M68.96875 208.7L67.921875 208.7L67.921875 201.98125Q67.53125 202.34062 66.90625 202.71562Q66.296875 203.075 65.8125 203.24687L65.8125 202.23125Q66.6875 201.80937 67.34375 201.23125Q68.015625 200.6375 68.296875 200.075L68.96875 200.075L68.96875 208.7ZM72.0 206.45L73.109375 206.35625Q73.234375 207.16875 73.671875 207.575Q74.125 207.98125 74.765625 207.98125Q75.515625 207.98125 76.046875 207.40312Q76.578125 206.825 76.578125 205.8875Q76.578125 204.98125 76.0625 204.46562Q75.5625 203.93437 74.734375 203.93437Q74.234375 203.93437 73.8125 204.16875Q73.40625 204.40312 73.171875 204.7625L72.1875 204.6375L73.015625 200.23125L77.296875 200.23125L77.296875 201.23125L73.859375 201.23125L73.40625 203.54375Q74.171875 202.99687 75.015625 202.99687Q76.140625 202.99687 76.90625 203.77812Q77.6875 204.55937 77.6875 205.79375Q77.6875 206.95 77.015625 207.80937Q76.1875 208.84062 74.765625 208.84062Q73.59375 208.84062 72.84375 208.18437Q72.109375 207.52812 72.0 206.45Z" fill-rule="nonzero"/><path fill="#999999" d="M70.546875 152.75104L70.546875 153.76666L64.859375 153.76666Q64.859375 153.39166 64.984375 153.03229Q65.203125 152.45416 65.671875 151.89166Q66.15625 151.32916 67.0625 150.59479Q68.46875 149.43854 68.953125 148.76666Q69.453125 148.09479 69.453125 147.50104Q69.453125 146.87604 69.0 146.45416Q68.546875 146.01666 67.828125 146.01666Q67.0625 146.01666 66.609375 146.46979Q66.15625 146.92291 66.140625 147.73541L65.0625 147.62604Q65.171875 146.40729 65.890625 145.78229Q66.625 145.14166 67.859375 145.14166Q69.09375 145.14166 69.8125 145.82916Q70.53125 146.51666 70.53125 147.53229Q70.53125 148.04791 70.3125 148.54791Q70.109375 149.03229 69.609375 149.59479Q69.125 150.14166 68.0 151.09479Q67.046875 151.89166 66.765625 152.18854Q66.5 152.46979 66.328125 152.75104L70.546875 152.75104ZM72.0 149.53229Q72.0 148.00104 72.3125 147.07916Q72.625 146.14166 73.234375 145.64166Q73.859375 145.14166 74.796875 145.14166Q75.484375 145.14166 76.0 145.42291Q76.53125 145.70416 76.875 146.23541Q77.21875 146.75104 77.40625 147.50104Q77.59375 148.25104 77.59375 149.53229Q77.59375 151.04791 77.28125 151.96979Q76.984375 152.89166 76.359375 153.40729Q75.75 153.90729 74.796875 153.90729Q73.5625 153.90729 72.84375 153.01666Q72.0 151.95416 72.0 149.53229ZM73.078125 149.53229Q73.078125 151.64166 73.578125 152.34479Q74.078125 153.04791 74.796875 153.04791Q75.53125 153.04791 76.015625 152.34479Q76.515625 151.64166 76.515625 149.53229Q76.515625 147.40729 76.015625 146.71979Q75.53125 146.01666 74.78125 146.01666Q74.0625 146.01666 73.625 146.62604Q73.078125 147.40729 73.078125 149.53229Z" fill-rule="nonzero"/><path fill="#999999" d="M70.546875 97.81771L70.546875 98.833336L64.859375 98.833336Q64.859375 98.458336 64.984375 98.09896Q65.203125 97.520836 65.671875 96.958336Q66.15625 96.395836 67.0625 95.66146Q68.46875 94.50521 68.953125 93.833336Q69.453125 93.16146 69.453125 92.56771Q69.453125 91.94271 69.0 91.520836Q68.546875 91.083336 67.828125 91.083336Q67.0625 91.083336 66.609375 91.53646Q66.15625 91.989586 66.140625 92.802086L65.0625 92.69271Q65.171875 91.47396 65.890625 90.84896Q66.625 90.208336 67.859375 90.208336Q69.09375 90.208336 69.8125 90.895836Q70.53125 91.583336 70.53125 92.59896Q70.53125 93.114586 70.3125 93.614586Q70.109375 94.09896 69.609375 94.66146Q69.125 95.208336 68.0 96.16146Q67.046875 96.958336 66.765625 97.25521Q66.5 97.53646 66.328125 97.81771L70.546875 97.81771ZM72.0 96.583336L73.109375 96.489586Q73.234375 97.302086 73.671875 97.708336Q74.125 98.114586 74.765625 98.114586Q75.515625 98.114586 76.046875 97.53646Q76.578125 96.958336 76.578125 96.020836Q76.578125 95.114586 76.0625 94.59896Q75.5625 94.06771 74.734375 94.06771Q74.234375 94.06771 73.8125 94.302086Q73.40625 94.53646 73.171875 94.895836L72.1875 94.770836L73.015625 90.364586L77.296875 90.364586L77.296875 91.364586L73.859375 91.364586L73.40625 93.677086Q74.171875 93.13021 75.015625 93.13021Q76.140625 93.13021 76.90625 93.91146Q77.6875 94.69271 77.6875 95.927086Q77.6875 97.083336 77.015625 97.94271Q76.1875 98.97396 74.765625 98.97396Q73.59375 98.97396 72.84375 98.31771Q72.109375 97.66146 72.0 96.583336Z" fill-rule="nonzero"/><path fill="#666666" d="M160.38092 386.5L160.38092 377.90625L166.1778 377.90625L166.1778 378.92188L161.52155 378.92188L161.52155 381.57812L165.5528 381.57812L165.5528 382.59375L161.52155 382.59375L161.52155 386.5L160.38092 386.5ZM173.45905 383.48438L174.58405 383.78125Q174.22467 385.17188 173.3028 385.90625Q172.38092 386.64062 171.03717 386.64062Q169.64655 386.64062 168.77155 386.07812Q167.89655 385.51562 167.44342 384.45312Q166.9903 383.375 166.9903 382.14062Q166.9903 380.79688 167.50592 379.79688Q168.02155 378.79688 168.95905 378.28125Q169.91217 377.76562 171.0528 377.76562Q172.33405 377.76562 173.20905 378.42188Q174.09967 379.07812 174.44342 380.26562L173.31842 380.53125Q173.02155 379.59375 172.44342 379.17188Q171.88092 378.73438 171.02155 378.73438Q170.03717 378.73438 169.3653 379.21875Q168.70905 379.6875 168.4278 380.48438Q168.16217 381.28125 168.16217 382.14062Q168.16217 383.23438 168.47467 384.04688Q168.8028 384.85938 169.47467 385.26562Q170.14655 385.67188 170.94342 385.67188Q171.89655 385.67188 172.5528 385.125Q173.22467 384.57812 173.45905 383.48438ZM176.31842 386.5L176.31842 377.90625L179.56842 377.90625Q180.41217 377.90625 180.8653 377.98438Q181.50592 378.09375 181.9278 378.39062Q182.3653 378.6875 182.6153 379.21875Q182.88092 379.75 182.88092 380.39062Q182.88092 381.48438 182.1778 382.25Q181.4903 383.0 179.66217 383.0L177.45905 383.0L177.45905 386.5L176.31842 386.5ZM177.45905 382.0L179.6778 382.0Q180.78717 382.0 181.2403 381.59375Q181.70905 381.17188 181.70905 380.42188Q181.70905 379.89062 181.4278 379.51562Q181.16217 379.125 180.72467 379.0Q180.4278 378.92188 179.66217 378.92188L177.45905 378.92188L177.45905 382.0Z" fill-rule="nonzero"/><path fill="#666666" d="M294.74155 386.5L294.74155 378.92188L291.91342 378.92188L291.91342 377.90625L298.72592 377.90625L298.72592 378.92188L295.88217 378.92188L295.88217 386.5L294.74155 386.5ZM301.74155 386.5L301.74155 378.92188L298.91342 378.92188L298.91342 377.90625L305.72592 377.90625L305.72592 378.92188L302.88217 378.92188L302.88217 386.5L301.74155 386.5ZM306.75717 386.5L306.75717 377.90625L307.88217 377.90625L307.88217 386.5L306.75717 386.5Z" fill-rule="nonzero"/><path fill="#666666" d="M395.4147 383.73438L396.4772 383.64062Q396.55533 384.29688 396.83658 384.70312Q397.11783 385.10938 397.69595 385.375Q398.2897 385.625 399.02408 385.625Q399.6647 385.625 400.1647 385.4375Q400.6647 385.23438 400.89908 384.90625Q401.14908 384.5625 401.14908 384.17188Q401.14908 383.76562 400.9147 383.46875Q400.68033 383.15625 400.14908 382.95312Q399.7897 382.8125 398.6022 382.53125Q397.43033 382.25 396.96158 382.0Q396.33658 381.67188 396.0397 381.20312Q395.74283 380.71875 395.74283 380.125Q395.74283 379.48438 396.1022 378.92188Q396.4772 378.34375 397.18033 378.0625Q397.89908 377.76562 398.75845 377.76562Q399.71158 377.76562 400.44595 378.07812Q401.18033 378.375 401.57095 378.98438Q401.96158 379.57812 401.99283 380.32812L400.89908 380.40625Q400.80533 379.59375 400.2897 379.1875Q399.7897 378.76562 398.80533 378.76562Q397.77408 378.76562 397.30533 379.14062Q396.83658 379.51562 396.83658 380.04688Q396.83658 380.51562 397.1647 380.8125Q397.49283 381.10938 398.86783 381.42188Q400.25845 381.73438 400.77408 381.96875Q401.52408 382.32812 401.88345 382.85938Q402.24283 383.375 402.24283 384.07812Q402.24283 384.76562 401.8522 385.375Q401.46158 385.96875 400.7272 386.3125Q399.99283 386.64062 399.07095 386.64062Q397.89908 386.64062 397.1022 386.3125Q396.32095 385.96875 395.86783 385.28125Q395.43033 384.59375 395.4147 383.73438ZM403.6647 388.89062L403.6647 380.28125L404.61783 380.28125L404.61783 381.07812Q404.96158 380.60938 405.38345 380.375Q405.82095 380.14062 406.43033 380.14062Q407.2272 380.14062 407.83658 380.54688Q408.44595 380.95312 408.74283 381.70312Q409.05533 382.45312 409.05533 383.34375Q409.05533 384.29688 408.71158 385.0625Q408.38345 385.82812 407.7272 386.23438Q407.07095 386.64062 406.3522 386.64062Q405.82095 386.64062 405.39908 386.42188Q404.9772 386.1875 404.71158 385.85938L404.71158 388.89062L403.6647 388.89062ZM404.61783 383.42188Q404.61783 384.625 405.1022 385.20312Q405.58658 385.76562 406.27408 385.76562Q406.9772 385.76562 407.4772 385.17188Q407.9772 384.57812 407.9772 383.32812Q407.9772 382.14062 407.49283 381.5625Q407.00845 380.96875 406.32095 380.96875Q405.64908 380.96875 405.13345 381.59375Q404.61783 382.21875 404.61783 383.42188ZM414.9147 384.5L416.00845 384.625Q415.75845 385.57812 415.05533 386.10938Q414.3522 386.64062 413.27408 386.64062Q411.9147 386.64062 411.1022 385.79688Q410.30533 384.95312 410.30533 383.4375Q410.30533 381.875 411.11783 381.01562Q411.93033 380.14062 413.21158 380.14062Q414.46158 380.14062 415.24283 380.98438Q416.0397 381.82812 416.0397 383.375Q416.0397 383.46875 416.0397 383.65625L411.39908 383.65625Q411.46158 384.6875 411.9772 385.23438Q412.49283 385.76562 413.27408 385.76562Q413.8522 385.76562 414.25845 385.46875Q414.68033 385.15625 414.9147 384.5ZM411.46158 382.79688L414.93033 382.79688Q414.86783 382.0 414.5397 381.60938Q414.02408 381.0 413.2272 381.0Q412.49283 381.0 411.99283 381.48438Q411.50845 381.96875 411.46158 382.79688ZM421.9147 384.5L423.00845 384.625Q422.75845 385.57812 422.05533 386.10938Q421.3522 386.64062 420.27408 386.64062Q418.9147 386.64062 418.1022 385.79688Q417.30533 384.95312 417.30533 383.4375Q417.30533 381.875 418.11783 381.01562Q418.93033 380.14062 420.21158 380.14062Q421.46158 380.14062 422.24283 380.98438Q423.0397 381.82812 423.0397 383.375Q423.0397 383.46875 423.0397 383.65625L418.39908 383.65625Q418.46158 384.6875 418.9772 385.23438Q419.49283 385.76562 420.27408 385.76562Q420.8522 385.76562 421.25845 385.46875Q421.68033 385.15625 421.9147 384.5ZM418.46158 382.79688L421.93033 382.79688Q421.86783 382.0 421.5397 381.60938Q421.02408 381.0 420.2272 381.0Q419.49283 381.0 418.99283 381.48438Q418.50845 381.96875 418.46158 382.79688ZM428.69595 386.5L428.69595 385.71875Q428.1022 386.64062 426.96158 386.64062Q426.21158 386.64062 425.58658 386.23438Q424.96158 385.8125 424.61783 385.07812Q424.27408 384.34375 424.27408 383.39062Q424.27408 382.46875 424.58658 381.70312Q424.89908 380.9375 425.52408 380.54688Q426.14908 380.14062 426.9147 380.14062Q427.4772 380.14062 427.9147 380.375Q428.3522 380.60938 428.63345 380.98438L428.63345 377.90625L429.68033 377.90625L429.68033 386.5L428.69595 386.5ZM425.36783 383.39062Q425.36783 384.59375 425.86783 385.1875Q426.36783 385.76562 427.05533 385.76562Q427.74283 385.76562 428.2272 385.20312Q428.71158 384.64062 428.71158 383.48438Q428.71158 382.20312 428.21158 381.60938Q427.7272 381.01562 427.00845 381.01562Q426.30533 381.01562 425.83658 381.59375Q425.36783 382.15625 425.36783 383.39062ZM434.99283 386.5L434.99283 377.90625L436.11783 377.90625L436.11783 386.5L434.99283 386.5ZM437.6647 386.5L437.6647 380.28125L438.6022 380.28125L438.6022 381.15625Q439.2897 380.14062 440.58658 380.14062Q441.14908 380.14062 441.61783 380.34375Q442.1022 380.54688 442.33658 380.875Q442.57095 381.20312 442.6647 381.64062Q442.71158 381.9375 442.71158 382.67188L442.71158 386.5L441.6647 386.5L441.6647 382.71875Q441.6647 382.0625 441.5397 381.75Q441.4147 381.4375 441.1022 381.25Q440.7897 381.04688 440.36783 381.04688Q439.69595 381.04688 439.19595 381.48438Q438.71158 381.90625 438.71158 383.09375L438.71158 386.5L437.6647 386.5ZM448.69595 386.5L448.69595 385.71875Q448.1022 386.64062 446.96158 386.64062Q446.21158 386.64062 445.58658 386.23438Q444.96158 385.8125 444.61783 385.07812Q444.27408 384.34375 444.27408 383.39062Q444.27408 382.46875 444.58658 381.70312Q444.89908 380.9375 445.52408 380.54688Q446.14908 380.14062 446.9147 380.14062Q447.4772 380.14062 447.9147 380.375Q448.3522 380.60938 448.63345 380.98438L448.63345 377.90625L449.68033 377.90625L449.68033 386.5L448.69595 386.5ZM445.36783 383.39062Q445.36783 384.59375 445.86783 385.1875Q446.36783 385.76562 447.05533 385.76562Q447.74283 385.76562 448.2272 385.20312Q448.71158 384.64062 448.71158 383.48438Q448.71158 382.20312 448.21158 381.60938Q447.7272 381.01562 447.00845 381.01562Q446.30533 381.01562 445.83658 381.59375Q445.36783 382.15625 445.36783 383.39062ZM455.9147 384.5L457.00845 384.625Q456.75845 385.57812 456.05533 386.10938Q455.3522 386.64062 454.27408 386.64062Q452.9147 386.64062 452.1022 385.79688Q451.30533 384.95312 451.30533 383.4375Q451.30533 381.875 452.11783 381.01562Q452.93033 380.14062 454.21158 380.14062Q455.46158 380.14062 456.24283 380.98438Q457.0397 381.82812 457.0397 383.375Q457.0397 383.46875 457.0397 383.65625L452.39908 383.65625Q452.46158 384.6875 452.9772 385.23438Q453.49283 385.76562 454.27408 385.76562Q454.8522 385.76562 455.25845 385.46875Q455.68033 385.15625 455.9147 384.5ZM452.46158 382.79688L455.93033 382.79688Q455.86783 382.0 455.5397 381.60938Q455.02408 381.0 454.2272 381.0Q453.49283 381.0 452.99283 381.48438Q452.50845 381.96875 452.46158 382.79688ZM457.96158 386.5L460.2272 383.26562L458.13345 380.28125L459.44595 380.28125L460.39908 381.73438Q460.6647 382.15625 460.83658 382.4375Q461.08658 382.04688 461.30533 381.75L462.3522 380.28125L463.61783 380.28125L461.46158 383.20312L463.77408 386.5L462.49283 386.5L461.21158 384.5625L460.86783 384.04688L459.2272 386.5L457.96158 386.5Z" fill-rule="nonzero"/><path fill="#666666" d="M546.47845 386.5L546.47845 377.90625L547.6191 377.90625L547.6191 385.48438L551.85345 385.48438L551.85345 386.5L546.47845 386.5ZM559.66595 383.48438L560.79095 383.78125Q560.4316 385.17188 559.5097 385.90625Q558.5878 386.64062 557.2441 386.64062Q555.85345 386.64062 554.97845 386.07812Q554.10345 385.51562 553.6503 384.45312Q553.1972 383.375 553.1972 382.14062Q553.1972 380.79688 553.7128 379.79688Q554.22845 378.79688 555.16595 378.28125Q556.1191 377.76562 557.2597 377.76562Q558.54095 377.76562 559.41595 378.42188Q560.3066 379.07812 560.6503 380.26562L559.5253 380.53125Q559.22845 379.59375 558.6503 379.17188Q558.0878 378.73438 557.22845 378.73438Q556.2441 378.73438 555.5722 379.21875Q554.91595 379.6875 554.6347 380.48438Q554.3691 381.28125 554.3691 382.14062Q554.3691 383.23438 554.6816 384.04688Q555.0097 384.85938 555.6816 385.26562Q556.35345 385.67188 557.1503 385.67188Q558.10345 385.67188 558.7597 385.125Q559.4316 384.57812 559.66595 383.48438ZM562.5253 386.5L562.5253 377.90625L565.7753 377.90625Q566.6191 377.90625 567.0722 377.98438Q567.7128 378.09375 568.1347 378.39062Q568.5722 378.6875 568.8222 379.21875Q569.0878 379.75 569.0878 380.39062Q569.0878 381.48438 568.3847 382.25Q567.6972 383.0 565.8691 383.0L563.66595 383.0L563.66595 386.5L562.5253 386.5ZM563.66595 382.0L565.8847 382.0Q566.9941 382.0 567.4472 381.59375Q567.91595 381.17188 567.91595 380.42188Q567.91595 379.89062 567.6347 379.51562Q567.3691 379.125 566.9316 379.0Q566.6347 378.92188 565.8691 378.92188L563.66595 378.92188L563.66595 382.0Z" fill-rule="nonzero"/><path fill="#f6b26b" d="M239.0 61.166668C239.0 60.614384 239.44771 60.166668 240.0 60.166668L250.0 60.166668C250.55229 60.166668 251.0 60.614384 251.0 61.166668L251.0 71.166664C251.0 71.71895 250.55229 72.166664 250.0 72.166664L240.0 72.166664C239.44771 72.166664 239.0 71.71895 239.0 71.166664Z" fill-rule="nonzero"/><path fill="#999999" d="M260.03125 71.166664L260.03125 61.15104L263.78125 61.15104Q264.9375 61.15104 265.625 61.46354Q266.32812 61.760414 266.71875 62.385414Q267.10938 63.010414 267.10938 63.71354Q267.10938 64.354164 266.75 64.916664Q266.40625 65.479164 265.70312 65.83854Q266.60938 66.104164 267.09375 66.74479Q267.59375 67.385414 267.59375 68.260414Q267.59375 68.96354 267.29688 69.572914Q267.0 70.18229 266.5625 70.510414Q266.125 70.83854 265.45312 71.010414Q264.79688 71.166664 263.84375 71.166664L260.03125 71.166664ZM261.35938 65.354164L263.51562 65.354164Q264.40625 65.354164 264.78125 65.24479Q265.29688 65.08854 265.54688 64.74479Q265.79688 64.385414 265.79688 63.86979Q265.79688 63.36979 265.5625 62.99479Q265.32812 62.604164 264.875 62.46354Q264.4375 62.322914 263.35938 62.322914L261.35938 62.322914L261.35938 65.354164ZM261.35938 69.979164L263.84375 69.979164Q264.48438 69.979164 264.75 69.93229Q265.20312 69.854164 265.51562 69.666664Q265.82812 69.46354 266.01562 69.104164Q266.21875 68.74479 266.21875 68.260414Q266.21875 67.697914 265.92188 67.291664Q265.64062 66.86979 265.125 66.71354Q264.625 66.541664 263.67188 66.541664L261.35938 66.541664L261.35938 69.979164ZM273.89062 68.822914L275.17188 68.979164Q274.85938 70.104164 274.04688 70.729164Q273.23438 71.33854 271.96875 71.33854Q270.375 71.33854 269.4375 70.354164Q268.51562 69.36979 268.51562 67.604164Q268.51562 65.760414 269.45312 64.760414Q270.40625 63.74479 271.90625 63.74479Q273.35938 63.74479 274.28125 64.74479Q275.20312 65.729164 275.20312 67.52604Q275.20312 67.635414 275.20312 67.854164L269.78125 67.854164Q269.85938 69.041664 270.45312 69.68229Q271.0625 70.322914 271.98438 70.322914Q272.65625 70.322914 273.125 69.96354Q273.60938 69.604164 273.89062 68.822914ZM269.85938 66.83854L273.90625 66.83854Q273.82812 65.916664 273.4375 65.46354Q272.85938 64.760414 271.92188 64.760414Q271.0625 64.760414 270.48438 65.322914Q269.92188 65.885414 269.85938 66.83854ZM277.21875 71.166664L277.21875 64.86979L276.125 64.86979L276.125 63.90104L277.21875 63.90104L277.21875 63.135414Q277.21875 62.40104 277.34375 62.041664Q277.53125 61.572914 277.96875 61.27604Q278.42188 60.979164 279.23438 60.979164Q279.75 60.979164 280.375 61.104164L280.1875 62.166664Q279.8125 62.104164 279.46875 62.104164Q278.90625 62.104164 278.67188 62.33854Q278.4375 62.572914 278.4375 63.229164L278.4375 63.90104L279.85938 63.90104L279.85938 64.86979L278.4375 64.86979L278.4375 71.166664L277.21875 71.166664ZM280.46875 67.541664Q280.46875 65.52604 281.59375 64.541664Q282.51562 63.74479 283.875 63.74479Q285.35938 63.74479 286.3125 64.729164Q287.26562 65.697914 287.26562 67.43229Q287.26562 68.83854 286.84375 69.65104Q286.42188 70.447914 285.60938 70.90104Q284.8125 71.33854 283.875 71.33854Q282.34375 71.33854 281.40625 70.354164Q280.46875 69.36979 280.46875 67.541664ZM281.73438 67.541664Q281.73438 68.93229 282.34375 69.635414Q282.95312 70.322914 283.875 70.322914Q284.78125 70.322914 285.39062 69.61979Q286.0 68.916664 286.0 67.49479Q286.0 66.15104 285.39062 65.46354Q284.78125 64.760414 283.875 64.760414Q282.95312 64.760414 282.34375 65.447914Q281.73438 66.135414 281.73438 67.541664ZM288.90625 71.166664L288.90625 63.90104L290.01562 63.90104L290.01562 65.010414Q290.4375 64.229164 290.79688 63.99479Q291.15625 63.74479 291.59375 63.74479Q292.21875 63.74479 292.85938 64.135414L292.4375 65.27604Q291.98438 65.010414 291.53125 65.010414Q291.125 65.010414 290.79688 65.260414Q290.48438 65.49479 290.34375 65.93229Q290.14062 66.58854 290.14062 67.36979L290.14062 71.166664L288.90625 71.166664ZM298.89062 68.822914L300.17188 68.979164Q299.85938 70.104164 299.04688 70.729164Q298.23438 71.33854 296.96875 71.33854Q295.375 71.33854 294.4375 70.354164Q293.51562 69.36979 293.51562 67.604164Q293.51562 65.760414 294.45312 64.760414Q295.40625 63.74479 296.90625 63.74479Q298.35938 63.74479 299.28125 64.74479Q300.20312 65.729164 300.20312 67.52604Q300.20312 67.635414 300.20312 67.854164L294.78125 67.854164Q294.85938 69.041664 295.45312 69.68229Q296.0625 70.322914 296.98438 70.322914Q297.65625 70.322914 298.125 69.96354Q298.60938 69.604164 298.89062 68.822914ZM294.85938 66.83854L298.90625 66.83854Q298.82812 65.916664 298.4375 65.46354Q297.85938 64.760414 296.92188 64.760414Q296.0625 64.760414 295.48438 65.322914Q294.92188 65.885414 294.85938 66.83854Z" fill-rule="nonzero"/><path fill="#3c78d8" d="M317.0 61.166668C317.0 60.614384 317.44772 60.166668 318.0 60.166668L328.0 60.166668C328.55228 60.166668 329.0 60.614384 329.0 61.166668L329.0 71.166664C329.0 71.71895 328.55228 72.166664 328.0 72.166664L318.0 72.166664C317.44772 72.166664 317.0 71.71895 317.0 71.166664Z" fill-rule="nonzero"/><path fill="#999999" d="M336.98438 71.166664L340.82812 61.15104L342.25 61.15104L346.35938 71.166664L344.84375 71.166664L343.67188 68.135414L339.48438 68.135414L338.39062 71.166664L336.98438 71.166664ZM339.875 67.05729L343.26562 67.05729L342.21875 64.27604Q341.75 63.010414 341.51562 62.197914Q341.32812 63.166664 340.96875 64.104164L339.875 67.05729ZM347.21875 71.166664L347.21875 64.86979L346.125 64.86979L346.125 63.90104L347.21875 63.90104L347.21875 63.135414Q347.21875 62.40104 347.34375 62.041664Q347.53125 61.572914 347.96875 61.27604Q348.42188 60.979164 349.23438 60.979164Q349.75 60.979164 350.375 61.104164L350.1875 62.166664Q349.8125 62.104164 349.46875 62.104164Q348.90625 62.104164 348.67188 62.33854Q348.4375 62.572914 348.4375 63.229164L348.4375 63.90104L349.85938 63.90104L349.85938 64.86979L348.4375 64.86979L348.4375 71.166664L347.21875 71.166664ZM353.60938 70.072914L353.78125 71.15104Q353.26562 71.260414 352.85938 71.260414Q352.1875 71.260414 351.8125 71.05729Q351.45312 70.83854 351.29688 70.49479Q351.15625 70.15104 351.15625 69.041664L351.15625 64.86979L350.25 64.86979L350.25 63.90104L351.15625 63.90104L351.15625 62.104164L352.375 61.36979L352.375 63.90104L353.60938 63.90104L353.60938 64.86979L352.375 64.86979L352.375 69.104164Q352.375 69.635414 352.4375 69.791664Q352.5 69.93229 352.64062 70.02604Q352.79688 70.11979 353.0625 70.11979Q353.28125 70.11979 353.60938 70.072914ZM359.89062 68.822914L361.17188 68.979164Q360.85938 70.104164 360.04688 70.729164Q359.23438 71.33854 357.96875 71.33854Q356.375 71.33854 355.4375 70.354164Q354.51562 69.36979 354.51562 67.604164Q354.51562 65.760414 355.45312 64.760414Q356.40625 63.74479 357.90625 63.74479Q359.35938 63.74479 360.28125 64.74479Q361.20312 65.729164 361.20312 67.52604Q361.20312 67.635414 361.20312 67.854164L355.78125 67.854164Q355.85938 69.041664 356.45312 69.68229Q357.0625 70.322914 357.98438 70.322914Q358.65625 70.322914 359.125 69.96354Q359.60938 69.604164 359.89062 68.822914ZM355.85938 66.83854L359.90625 66.83854Q359.82812 65.916664 359.4375 65.46354Q358.85938 64.760414 357.92188 64.760414Q357.0625 64.760414 356.48438 65.322914Q355.92188 65.885414 355.85938 66.83854ZM362.90625 71.166664L362.90625 63.90104L364.01562 63.90104L364.01562 65.010414Q364.4375 64.229164 364.79688 63.99479Q365.15625 63.74479 365.59375 63.74479Q366.21875 63.74479 366.85938 64.135414L366.4375 65.27604Q365.98438 65.010414 365.53125 65.010414Q365.125 65.010414 364.79688 65.260414Q364.48438 65.49479 364.34375 65.93229Q364.14062 66.58854 364.14062 67.36979L364.14062 71.166664L362.90625 71.166664ZM371.625 67.947914L372.875 67.83854Q372.96875 68.58854 373.29688 69.072914Q373.625 69.55729 374.29688 69.854164Q374.98438 70.15104 375.84375 70.15104Q376.59375 70.15104 377.17188 69.93229Q377.76562 69.697914 378.04688 69.30729Q378.32812 68.916664 378.32812 68.447914Q378.32812 67.979164 378.04688 67.635414Q377.78125 67.27604 377.15625 67.02604Q376.75 66.86979 375.35938 66.541664Q373.98438 66.21354 373.4375 65.916664Q372.71875 65.541664 372.35938 64.99479Q372.01562 64.43229 372.01562 63.729164Q372.01562 62.979164 372.4375 62.322914Q372.875 61.65104 373.70312 61.322914Q374.53125 60.979164 375.54688 60.979164Q376.65625 60.979164 377.5 61.33854Q378.35938 61.697914 378.8125 62.40104Q379.26562 63.08854 379.3125 63.96354L378.03125 64.05729Q377.9375 63.11979 377.34375 62.635414Q376.75 62.135414 375.59375 62.135414Q374.39062 62.135414 373.84375 62.58854Q373.29688 63.02604 373.29688 63.65104Q373.29688 64.18229 373.6875 64.541664Q374.0625 64.885414 375.67188 65.260414Q377.29688 65.61979 377.89062 65.885414Q378.76562 66.291664 379.1875 66.916664Q379.60938 67.52604 379.60938 68.33854Q379.60938 69.135414 379.14062 69.854164Q378.6875 70.55729 377.82812 70.947914Q376.96875 71.33854 375.90625 71.33854Q374.54688 71.33854 373.625 70.947914Q372.70312 70.541664 372.17188 69.74479Q371.65625 68.947914 371.625 67.947914ZM382.9375 71.166664L380.17188 63.90104L381.48438 63.90104L383.03125 68.260414Q383.28125 68.96354 383.5 69.71354Q383.67188 69.135414 383.95312 68.33854L385.57812 63.90104L386.84375 63.90104L384.09375 71.166664L382.9375 71.166664ZM392.89062 68.822914L394.17188 68.979164Q393.85938 70.104164 393.04688 70.729164Q392.23438 71.33854 390.96875 71.33854Q389.375 71.33854 388.4375 70.354164Q387.51562 69.36979 387.51562 67.604164Q387.51562 65.760414 388.45312 64.760414Q389.40625 63.74479 390.90625 63.74479Q392.35938 63.74479 393.28125 64.74479Q394.20312 65.729164 394.20312 67.52604Q394.20312 67.635414 394.20312 67.854164L388.78125 67.854164Q388.85938 69.041664 389.45312 69.68229Q390.0625 70.322914 390.98438 70.322914Q391.65625 70.322914 392.125 69.96354Q392.60938 69.604164 392.89062 68.822914ZM388.85938 66.83854L392.90625 66.83854Q392.82812 65.916664 392.4375 65.46354Q391.85938 64.760414 390.92188 64.760414Q390.0625 64.760414 389.48438 65.322914Q388.92188 65.885414 388.85938 66.83854ZM395.89062 71.166664L395.89062 61.15104L397.125 61.15104L397.125 71.166664L395.89062 71.166664ZM401.60938 70.072914L401.78125 71.15104Q401.26562 71.260414 400.85938 71.260414Q400.1875 71.260414 399.8125 71.05729Q399.45312 70.83854 399.29688 70.49479Q399.15625 70.15104 399.15625 69.041664L399.15625 64.86979L398.25 64.86979L398.25 63.90104L399.15625 63.90104L399.15625 62.104164L400.375 61.36979L400.375 63.90104L401.60938 63.90104L401.60938 64.86979L400.375 64.86979L400.375 69.104164Q400.375 69.635414 400.4375 69.791664Q400.5 69.93229 400.64062 70.02604Q400.79688 70.11979 401.0625 70.11979Q401.28125 70.11979 401.60938 70.072914ZM407.89062 68.822914L409.17188 68.979164Q408.85938 70.104164 408.04688 70.729164Q407.23438 71.33854 405.96875 71.33854Q404.375 71.33854 403.4375 70.354164Q402.51562 69.36979 402.51562 67.604164Q402.51562 65.760414 403.45312 64.760414Q404.40625 63.74479 405.90625 63.74479Q407.35938 63.74479 408.28125 64.74479Q409.20312 65.729164 409.20312 67.52604Q409.20312 67.635414 409.20312 67.854164L403.78125 67.854164Q403.85938 69.041664 404.45312 69.68229Q405.0625 70.322914 405.98438 70.322914Q406.65625 70.322914 407.125 69.96354Q407.60938 69.604164 407.89062 68.822914ZM403.85938 66.83854L407.90625 66.83854Q407.82812 65.916664 407.4375 65.46354Q406.85938 64.760414 405.92188 64.760414Q405.0625 64.760414 404.48438 65.322914Q403.92188 65.885414 403.85938 66.83854ZM411.03125 71.166664L411.03125 61.15104L412.35938 61.15104L412.35938 66.11979L417.32812 61.15104L419.125 61.15104L414.92188 65.197914L419.3125 71.166664L417.5625 71.166664L414.0 66.08854L412.35938 67.697914L412.35938 71.166664L411.03125 71.166664ZM419.9375 62.55729L419.9375 61.15104L421.15625 61.15104L421.15625 62.55729L419.9375 62.55729ZM419.9375 71.166664L419.9375 63.90104L421.15625 63.90104L421.15625 71.166664L419.9375 71.166664ZM425.60938 70.072914L425.78125 71.15104Q425.26562 71.260414 424.85938 71.260414Q424.1875 71.260414 423.8125 71.05729Q423.45312 70.83854 423.29688 70.49479Q423.15625 70.15104 423.15625 69.041664L423.15625 64.86979L422.25 64.86979L422.25 63.90104L423.15625 63.90104L423.15625 62.104164L424.375 61.36979L424.375 63.90104L425.60938 63.90104L425.60938 64.86979L424.375 64.86979L424.375 69.104164Q424.375 69.635414 424.4375 69.791664Q424.5 69.93229 424.64062 70.02604Q424.79688 70.11979 425.0625 70.11979Q425.28125 70.11979 425.60938 70.072914Z" fill-rule="nonzero"/><path fill="#999999" d="M20.46875 39.5L25.96875 25.1875L28.015625 25.1875L33.875 39.5L31.71875 39.5L30.046875 35.15625L24.0625 35.15625L22.484375 39.5L20.46875 39.5ZM24.609375 33.625L29.453125 33.625L27.96875 29.65625Q27.28125 27.84375 26.953125 26.6875Q26.671875 28.0625 26.171875 29.421875L24.609375 33.625ZM34.109375 36.40625L35.859375 36.125Q36.0 37.171875 36.671875 37.734375Q37.34375 38.28125 38.546875 38.28125Q39.75 38.28125 40.328125 37.796875Q40.921875 37.296875 40.921875 36.640625Q40.921875 36.046875 40.40625 35.703125Q40.046875 35.46875 38.609375 35.109375Q36.671875 34.609375 35.921875 34.265625Q35.1875 33.90625 34.796875 33.28125Q34.40625 32.640625 34.40625 31.875Q34.40625 31.1875 34.71875 30.59375Q35.046875 30.0 35.59375 29.609375Q36.0 29.3125 36.703125 29.109375Q37.421875 28.890625 38.234375 28.890625Q39.453125 28.890625 40.375 29.25Q41.296875 29.59375 41.734375 30.203125Q42.171875 30.796875 42.34375 31.796875L40.625 32.03125Q40.5 31.234375 39.9375 30.796875Q39.375 30.34375 38.359375 30.34375Q37.140625 30.34375 36.625 30.75Q36.109375 31.140625 36.109375 31.671875Q36.109375 32.015625 36.328125 32.296875Q36.53125 32.578125 37.0 32.765625Q37.265625 32.859375 38.546875 33.203125Q40.421875 33.703125 41.15625 34.03125Q41.890625 34.34375 42.3125 34.953125Q42.734375 35.546875 42.734375 36.453125Q42.734375 37.328125 42.21875 38.109375Q41.703125 38.890625 40.734375 39.3125Q39.765625 39.734375 38.546875 39.734375Q36.53125 39.734375 35.46875 38.890625Q34.40625 38.046875 34.109375 36.40625ZM44.109375 36.40625L45.859375 36.125Q46.0 37.171875 46.671875 37.734375Q47.34375 38.28125 48.546875 38.28125Q49.75 38.28125 50.328125 37.796875Q50.921875 37.296875 50.921875 36.640625Q50.921875 36.046875 50.40625 35.703125Q50.046875 35.46875 48.609375 35.109375Q46.671875 34.609375 45.921875 34.265625Q45.1875 33.90625 44.796875 33.28125Q44.40625 32.640625 44.40625 31.875Q44.40625 31.1875 44.71875 30.59375Q45.046875 30.0 45.59375 29.609375Q46.0 29.3125 46.703125 29.109375Q47.421875 28.890625 48.234375 28.890625Q49.453125 28.890625 50.375 29.25Q51.296875 29.59375 51.734375 30.203125Q52.171875 30.796875 52.34375 31.796875L50.625 32.03125Q50.5 31.234375 49.9375 30.796875Q49.375 30.34375 48.359375 30.34375Q47.140625 30.34375 46.625 30.75Q46.109375 31.140625 46.109375 31.671875Q46.109375 32.015625 46.328125 32.296875Q46.53125 32.578125 47.0 32.765625Q47.265625 32.859375 48.546875 33.203125Q50.421875 33.703125 51.15625 34.03125Q51.890625 34.34375 52.3125 34.953125Q52.734375 35.546875 52.734375 36.453125Q52.734375 37.328125 52.21875 38.109375Q51.703125 38.890625 50.734375 39.3125Q49.765625 39.734375 48.546875 39.734375Q46.53125 39.734375 45.46875 38.890625Q44.40625 38.046875 44.109375 36.40625ZM61.921875 36.15625L63.734375 36.390625Q63.3125 37.96875 62.140625 38.859375Q60.984375 39.734375 59.171875 39.734375Q56.90625 39.734375 55.5625 38.34375Q54.234375 36.9375 54.234375 34.40625Q54.234375 31.78125 55.578125 30.34375Q56.921875 28.890625 59.078125 28.890625Q61.15625 28.890625 62.46875 30.3125Q63.796875 31.71875 63.796875 34.296875Q63.796875 34.453125 63.78125 34.765625L56.046875 34.765625Q56.140625 36.46875 57.015625 37.375Q57.890625 38.28125 59.1875 38.28125Q60.15625 38.28125 60.828125 37.78125Q61.515625 37.265625 61.921875 36.15625ZM56.140625 33.3125L61.9375 33.3125Q61.828125 32.015625 61.28125 31.359375Q60.4375 30.34375 59.09375 30.34375Q57.890625 30.34375 57.0625 31.15625Q56.234375 31.953125 56.140625 33.3125ZM65.109375 36.40625L66.859375 36.125Q67.0 37.171875 67.671875 37.734375Q68.34375 38.28125 69.546875 38.28125Q70.75 38.28125 71.328125 37.796875Q71.921875 37.296875 71.921875 36.640625Q71.921875 36.046875 71.40625 35.703125Q71.046875 35.46875 69.609375 35.109375Q67.671875 34.609375 66.921875 34.265625Q66.1875 33.90625 65.796875 33.28125Q65.40625 32.640625 65.40625 31.875Q65.40625 31.1875 65.71875 30.59375Q66.046875 30.0 66.59375 29.609375Q67.0 29.3125 67.703125 29.109375Q68.421875 28.890625 69.234375 28.890625Q70.453125 28.890625 71.375 29.25Q72.296875 29.59375 72.734375 30.203125Q73.171875 30.796875 73.34375 31.796875L71.625 32.03125Q71.5 31.234375 70.9375 30.796875Q70.375 30.34375 69.359375 30.34375Q68.140625 30.34375 67.625 30.75Q67.109375 31.140625 67.109375 31.671875Q67.109375 32.015625 67.328125 32.296875Q67.53125 32.578125 68.0 32.765625Q68.265625 32.859375 69.546875 33.203125Q71.421875 33.703125 72.15625 34.03125Q72.890625 34.34375 73.3125 34.953125Q73.734375 35.546875 73.734375 36.453125Q73.734375 37.328125 73.21875 38.109375Q72.703125 38.890625 71.734375 39.3125Q70.765625 39.734375 69.546875 39.734375Q67.53125 39.734375 66.46875 38.890625Q65.40625 38.046875 65.109375 36.40625ZM75.109375 36.40625L76.859375 36.125Q77.0 37.171875 77.671875 37.734375Q78.34375 38.28125 79.546875 38.28125Q80.75 38.28125 81.328125 37.796875Q81.921875 37.296875 81.921875 36.640625Q81.921875 36.046875 81.40625 35.703125Q81.046875 35.46875 79.609375 35.109375Q77.671875 34.609375 76.921875 34.265625Q76.1875 33.90625 75.796875 33.28125Q75.40625 32.640625 75.40625 31.875Q75.40625 31.1875 75.71875 30.59375Q76.046875 30.0 76.59375 29.609375Q77.0 29.3125 77.703125 29.109375Q78.421875 28.890625 79.234375 28.890625Q80.453125 28.890625 81.375 29.25Q82.296875 29.59375 82.734375 30.203125Q83.171875 30.796875 83.34375 31.796875L81.625 32.03125Q81.5 31.234375 80.9375 30.796875Q80.375 30.34375 79.359375 30.34375Q78.140625 30.34375 77.625 30.75Q77.109375 31.140625 77.109375 31.671875Q77.109375 32.015625 77.328125 32.296875Q77.53125 32.578125 78.0 32.765625Q78.265625 32.859375 79.546875 33.203125Q81.421875 33.703125 82.15625 34.03125Q82.890625 34.34375 83.3125 34.953125Q83.734375 35.546875 83.734375 36.453125Q83.734375 37.328125 83.21875 38.109375Q82.703125 38.890625 81.734375 39.3125Q80.765625 39.734375 79.546875 39.734375Q77.53125 39.734375 76.46875 38.890625Q75.40625 38.046875 75.109375 36.40625ZM85.8125 39.5L85.8125 29.125L87.390625 29.125L87.390625 30.578125Q87.875 29.828125 88.6875 29.359375Q89.5 28.890625 90.53125 28.890625Q91.6875 28.890625 92.421875 29.375Q93.15625 29.84375 93.46875 30.703125Q94.703125 28.890625 96.671875 28.890625Q98.21875 28.890625 99.046875 29.75Q99.875 30.609375 99.875 32.375L99.875 39.5L98.125 39.5L98.125 32.96875Q98.125 31.90625 97.953125 31.453125Q97.78125 30.984375 97.328125 30.703125Q96.890625 30.421875 96.28125 30.421875Q95.1875 30.421875 94.453125 31.15625Q93.734375 31.875 93.734375 33.46875L93.734375 39.5L91.984375 39.5L91.984375 32.765625Q91.984375 31.59375 91.546875 31.015625Q91.125 30.421875 90.140625 30.421875Q89.40625 30.421875 88.765625 30.8125Q88.140625 31.203125 87.859375 31.953125Q87.578125 32.703125 87.578125 34.125L87.578125 39.5L85.8125 39.5ZM108.921875 36.15625L110.734375 36.390625Q110.3125 37.96875 109.140625 38.859375Q107.984375 39.734375 106.171875 39.734375Q103.90625 39.734375 102.5625 38.34375Q101.234375 36.9375 101.234375 34.40625Q101.234375 31.78125 102.578125 30.34375Q103.921875 28.890625 106.078125 28.890625Q108.15625 28.890625 109.46875 30.3125Q110.796875 31.71875 110.796875 34.296875Q110.796875 34.453125 110.78125 34.765625L103.046875 34.765625Q103.140625 36.46875 104.015625 37.375Q104.890625 38.28125 106.1875 38.28125Q107.15625 38.28125 107.828125 37.78125Q108.515625 37.265625 108.921875 36.15625ZM103.140625 33.3125L108.9375 33.3125Q108.828125 32.015625 108.28125 31.359375Q107.4375 30.34375 106.09375 30.34375Q104.890625 30.34375 104.0625 31.15625Q103.234375 31.953125 103.140625 33.3125ZM112.8125 39.5L112.8125 29.125L114.40625 29.125L114.40625 30.609375Q115.546875 28.890625 117.703125 28.890625Q118.640625 28.890625 119.421875 29.234375Q120.21875 29.5625 120.609375 30.109375Q121.0 30.65625 121.15625 31.40625Q121.25 31.90625 121.25 33.125L121.25 39.5L119.484375 39.5L119.484375 33.1875Q119.484375 32.109375 119.28125 31.578125Q119.078125 31.046875 118.546875 30.734375Q118.03125 30.421875 117.328125 30.421875Q116.203125 30.421875 115.390625 31.140625Q114.578125 31.84375 114.578125 33.828125L114.578125 39.5L112.8125 39.5ZM126.65625 37.921875L126.90625 39.484375Q126.171875 39.640625 125.578125 39.640625Q124.625 39.640625 124.09375 39.34375Q123.578125 39.03125 123.359375 38.546875Q123.140625 38.046875 123.140625 36.46875L123.140625 30.5L121.859375 30.5L121.859375 29.125L123.140625 29.125L123.140625 26.5625L124.890625 25.5L124.890625 29.125L126.65625 29.125L126.65625 30.5L124.890625 30.5L124.890625 36.5625Q124.890625 37.3125 124.984375 37.53125Q125.078125 37.734375 125.28125 37.875Q125.5 38.0 125.890625 38.0Q126.171875 38.0 126.65625 37.921875ZM134.98438 39.5L134.98438 25.1875L137.84375 25.1875L141.21875 35.3125Q141.6875 36.734375 141.90625 37.4375Q142.15625 36.65625 142.67188 35.140625L146.09375 25.1875L148.64062 25.1875L148.64062 39.5L146.82812 39.5L146.82812 27.515625L142.65625 39.5L140.95312 39.5L136.8125 27.3125L136.8125 39.5L134.98438 39.5ZM158.92188 36.15625L160.73438 36.390625Q160.3125 37.96875 159.14062 38.859375Q157.98438 39.734375 156.17188 39.734375Q153.90625 39.734375 152.5625 38.34375Q151.23438 36.9375 151.23438 34.40625Q151.23438 31.78125 152.57812 30.34375Q153.92188 28.890625 156.07812 28.890625Q158.15625 28.890625 159.46875 30.3125Q160.79688 31.71875 160.79688 34.296875Q160.79688 34.453125 160.78125 34.765625L153.04688 34.765625Q153.14062 36.46875 154.01562 37.375Q154.89062 38.28125 156.1875 38.28125Q157.15625 38.28125 157.82812 37.78125Q158.51562 37.265625 158.92188 36.15625ZM153.14062 33.3125L158.9375 33.3125Q158.82812 32.015625 158.28125 31.359375Q157.4375 30.34375 156.09375 30.34375Q154.89062 30.34375 154.0625 31.15625Q153.23438 31.953125 153.14062 33.3125ZM166.65625 37.921875L166.90625 39.484375Q166.17188 39.640625 165.57812 39.640625Q164.625 39.640625 164.09375 39.34375Q163.57812 39.03125 163.35938 38.546875Q163.14062 38.046875 163.14062 36.46875L163.14062 30.5L161.85938 30.5L161.85938 29.125L163.14062 29.125L163.14062 26.5625L164.89062 25.5L164.89062 29.125L166.65625 29.125L166.65625 30.5L164.89062 30.5L164.89062 36.5625Q164.89062 37.3125 164.98438 37.53125Q165.07812 37.734375 165.28125 37.875Q165.5 38.0 165.89062 38.0Q166.17188 38.0 166.65625 37.921875ZM168.79688 39.5L168.79688 29.125L170.375 29.125L170.375 30.703125Q170.98438 29.59375 171.5 29.25Q172.01562 28.890625 172.625 28.890625Q173.51562 28.890625 174.4375 29.453125L173.82812 31.09375Q173.1875 30.703125 172.54688 30.703125Q171.96875 30.703125 171.5 31.0625Q171.04688 31.40625 170.84375 32.015625Q170.5625 32.953125 170.5625 34.0625L170.5625 39.5L168.79688 39.5ZM175.82812 27.203125L175.82812 25.1875L177.59375 25.1875L177.59375 27.203125L175.82812 27.203125ZM175.82812 39.5L175.82812 29.125L177.59375 29.125L177.59375 39.5L175.82812 39.5ZM186.59375 35.703125L188.3125 35.921875Q188.03125 37.71875 186.85938 38.734375Q185.70312 39.734375 184.0 39.734375Q181.875 39.734375 180.57812 38.34375Q179.28125 36.953125 179.28125 34.359375Q179.28125 32.671875 179.82812 31.421875Q180.39062 30.15625 181.53125 29.53125Q182.67188 28.890625 184.01562 28.890625Q185.70312 28.890625 186.76562 29.75Q187.84375 30.609375 188.15625 32.171875L186.4375 32.4375Q186.20312 31.390625 185.57812 30.875Q184.95312 30.34375 184.07812 30.34375Q182.75 30.34375 181.92188 31.296875Q181.09375 32.25 181.09375 34.296875Q181.09375 36.390625 181.89062 37.34375Q182.6875 38.28125 183.98438 38.28125Q185.01562 38.28125 185.70312 37.65625Q186.40625 37.015625 186.59375 35.703125ZM189.10938 36.40625L190.85938 36.125Q191.0 37.171875 191.67188 37.734375Q192.34375 38.28125 193.54688 38.28125Q194.75 38.28125 195.32812 37.796875Q195.92188 37.296875 195.92188 36.640625Q195.92188 36.046875 195.40625 35.703125Q195.04688 35.46875 193.60938 35.109375Q191.67188 34.609375 190.92188 34.265625Q190.1875 33.90625 189.79688 33.28125Q189.40625 32.640625 189.40625 31.875Q189.40625 31.1875 189.71875 30.59375Q190.04688 30.0 190.59375 29.609375Q191.0 29.3125 191.70312 29.109375Q192.42188 28.890625 193.23438 28.890625Q194.45312 28.890625 195.375 29.25Q196.29688 29.59375 196.73438 30.203125Q197.17188 30.796875 197.34375 31.796875L195.625 32.03125Q195.5 31.234375 194.9375 30.796875Q194.375 30.34375 193.35938 30.34375Q192.14062 30.34375 191.625 30.75Q191.10938 31.140625 191.10938 31.671875Q191.10938 32.015625 191.32812 32.296875Q191.53125 32.578125 192.0 32.765625Q192.26562 32.859375 193.54688 33.203125Q195.42188 33.703125 196.15625 34.03125Q196.89062 34.34375 197.3125 34.953125Q197.73438 35.546875 197.73438 36.453125Q197.73438 37.328125 197.21875 38.109375Q196.70312 38.890625 195.73438 39.3125Q194.76562 39.734375 193.54688 39.734375Q191.53125 39.734375 190.46875 38.890625Q189.40625 38.046875 189.10938 36.40625Z" fill-rule="nonzero"/></svg>