<svg version="1.1" viewBox="0.0 0.0 665.0 410.0" fill="none" stroke="none" stroke-linecap="square" stroke-miterlimit="10" width="665" height="410" xmlns:xlink="http://www.w3.org/1999/xlink" xmlns="http://www.w3.org/2000/svg"><path fill="#ffffff" d="M0 0L665.0 0L665.0 410.0L0 410.0L0 0Z" fill-rule="nonzero"/><path stroke="#333333" stroke-width="1.0" stroke-linecap="butt" d="M84.5 369.5L644.5 369.5" fill-rule="nonzero"/><path stroke="#cccccc" stroke-width="1.0" stroke-linecap="butt" d="M84.5 277.5L644.5 277.5" fill-rule="nonzero"/><path stroke="#cccccc" stroke-width="1.0" stroke-linecap="butt" d="M84.5 185.5L644.5 185.5" fill-rule="nonzero"/><path stroke="#cccccc" stroke-width="1.0" stroke-linecap="butt" d="M84.5 92.5L644.5 92.5" fill-rule="nonzero"/><clipPath id="id_0"><path d="M84.5 92.833336L644.5 92.833336L644.5 369.5L84.5 369.5L84.5 92.833336Z" clip-rule="nonzero"/></clipPath><path stroke="#000000" stroke-width="2.0" stroke-linecap="butt" stroke-opacity="0.0" clip-path="url(#id_0)" d="M170.0 370.0L130.0 370.0L130.0 246.0C130.0 244.89543 130.89543 244.0 132.0 244.0L168.0 244.0C169.10457 244.0 170.0 244.89543 170.0 246.0Z" fill-rule="nonzero"/><path fill="#f6b26b" clip-path="url(#id_0)" d="M170.0 370.0L130.0 370.0L130.0 246.0C130.0 244.89543 130.89543 244.0 132.0 244.0L168.0 244.0C169.10457 244.0 170.0 244.89543 170.0 246.0Z" fill-rule="nonzero"/><path stroke="#000000" stroke-width="2.0" stroke-linecap="butt" stroke-opacity="0.0" clip-path="url(#id_0)" d="M299.0 370.0L259.0 370.0L259.0 159.0C259.0 157.89543 259.89542 157.0 261.0 157.0L297.0 157.0C298.10458 157.0 299.0 157.89543 299.0 159.0Z" fill-rule="nonzero"/><path fill="#f6b26b" clip-path="url(#id_0)" d="M299.0 370.0L259.0 370.0L259.0 159.0C259.0 157.89543 259.89542 157.0 261.0 157.0L297.0 157.0C298.10458 157.0 299.0 157.89543 299.0 159.0Z" fill-rule="nonzero"/><path stroke="#000000" stroke-width="2.0" stroke-linecap="butt" stroke-opacity="0.0" clip-path="url(#id_0)" d="M428.0 370.0L388.0 370.0L388.0 246.0C388.0 244.89543 388.89542 244.0 390.0 244.0L426.0 244.0C427.10458 244.0 428.0 244.89543 428.0 246.0Z" fill-rule="nonzero"/><path fill="#f6b26b" clip-path="url(#id_0)" d="M428.0 370.0L388.0 370.0L388.0 246.0C388.0 244.89543 388.89542 244.0 390.0 244.0L426.0 244.0C427.10458 244.0 428.0 244.89543 428.0 246.0Z" fill-rule="nonzero"/><path stroke="#000000" stroke-width="2.0" stroke-linecap="butt" stroke-opacity="0.0" clip-path="url(#id_0)" d="M557.0 370.0L517.0 370.0L517.0 228.0C517.0 226.89543 517.89545 226.0 519.0 226.0L555.0 226.0C556.10455 226.0 557.0 226.89543 557.0 228.0Z" fill-rule="nonzero"/><path fill="#f6b26b" clip-path="url(#id_0)" d="M557.0 370.0L517.0 370.0L517.0 228.0C517.0 226.89543 517.89545 226.0 519.0 226.0L555.0 226.0C556.10455 226.0 557.0 226.89543 557.0 228.0Z" fill-rule="nonzero"/><path stroke="#000000" stroke-width="2.0" stroke-linecap="butt" stroke-opacity="0.0" clip-path="url(#id_0)" d="M212.0 370.0L172.0 370.0L172.0 342.0C172.0 340.89542 172.89543 340.0 174.0 340.0L210.0 340.0C211.10457 340.0 212.0 340.89542 212.0 342.0Z" fill-rule="nonzero"/><path fill="#3c78d8" clip-path="url(#id_0)" d="M212.0 370.0L172.0 370.0L172.0 342.0C172.0 340.89542 172.89543 340.0 174.0 340.0L210.0 340.0C211.10457 340.0 212.0 340.89542 212.0 342.0Z" fill-rule="nonzero"/><path stroke="#000000" stroke-width="2.0" stroke-linecap="butt" stroke-opacity="0.0" clip-path="url(#id_0)" d="M341.0 370.0L301.0 370.0L301.0 287.0C301.0 285.89542 301.89542 285.0 303.0 285.0L339.0 285.0C340.10458 285.0 341.0 285.89542 341.0 287.0Z" fill-rule="nonzero"/><path fill="#3c78d8" clip-path="url(#id_0)" d="M341.0 370.0L301.0 370.0L301.0 287.0C301.0 285.89542 301.89542 285.0 303.0 285.0L339.0 285.0C340.10458 285.0 341.0 285.89542 341.0 287.0Z" fill-rule="nonzero"/><path stroke="#000000" stroke-width="2.0" stroke-linecap="butt" stroke-opacity="0.0" clip-path="url(#id_0)" d="M470.0 370.0L430.0 370.0L430.0 324.0C430.0 322.89542 430.89542 322.0 432.0 322.0L468.0 322.0C469.10458 322.0 470.0 322.89542 470.0 324.0Z" fill-rule="nonzero"/><path fill="#3c78d8" clip-path="url(#id_0)" d="M470.0 370.0L430.0 370.0L430.0 324.0C430.0 322.89542 430.89542 322.0 432.0 322.0L468.0 322.0C469.10458 322.0 470.0 322.89542 470.0 324.0Z" fill-rule="nonzero"/><path stroke="#000000" stroke-width="2.0" stroke-linecap="butt" stroke-opacity="0.0" clip-path="url(#id_0)" d="M599.0 370.0L559.0 370.0L559.0 312.0C559.0 310.89542 559.89545 310.0 561.0 310.0L597.0 310.0C598.10455 310.0 599.0 310.89542 599.0 312.0Z" fill-rule="nonzero"/><path fill="#3c78d8" clip-path="url(#id_0)" d="M599.0 370.0L559.0 370.0L559.0 312.0C559.0 310.89542 559.89545 310.0 561.0 310.0L597.0 310.0C598.10455 310.0 599.0 310.89542 599.0 312.0Z" fill-rule="nonzero"/><path stroke="#ffffff" stroke-width="3.0" stroke-linejoin="round" stroke-linecap="round" d="M140.95312 219.79652L142.25 219.79652L142.25 221.60902L140.95312 221.60902L140.95312 224.07777L138.70312 224.07777L138.70312 221.60902L134.03125 221.60902L133.9375 220.18715L138.67188 212.70277L140.95312 212.70277L140.95312 219.79652ZM136.1875 219.79652L138.70312 219.79652L138.70312 215.7809L138.54688 216.0309L136.1875 219.79652ZM143.48438 222.9684Q143.48438 222.42152 143.84375 222.0934Q144.21875 221.74965 144.76562 221.74965Q145.3125 221.74965 145.67188 222.0934Q146.04688 222.42152 146.04688 222.9684Q146.04688 223.49965 145.6875 223.8434Q145.32812 224.17152 144.76562 224.17152Q144.20312 224.17152 143.84375 223.8434Q143.48438 223.49965 143.48438 222.9684ZM150.57812 217.39027L151.78125 217.39027Q152.64062 217.39027 153.04688 216.9684Q153.46875 216.5309 153.46875 215.81215Q153.46875 215.12465 153.04688 214.74965Q152.64062 214.35902 151.92188 214.35902Q151.28125 214.35902 150.84375 214.7184Q150.40625 215.07777 150.40625 215.64027L148.14062 215.64027Q148.14062 214.74965 148.625 214.04652Q149.10938 213.3434 149.96875 212.95277Q150.82812 212.54652 151.875 212.54652Q153.67188 212.54652 154.6875 213.4059Q155.71875 214.26527 155.71875 215.7809Q155.71875 216.56215 155.23438 217.2184Q154.76562 217.87465 154.0 218.23402Q154.95312 218.57777 155.42188 219.26527Q155.90625 219.95277 155.90625 220.89027Q155.90625 222.4059 154.79688 223.32777Q153.6875 224.23402 151.875 224.23402Q150.17188 224.23402 149.07812 223.3434Q148.0 222.43715 148.0 220.95277L150.26562 220.95277Q150.26562 221.5934 150.73438 221.99965Q151.21875 222.4059 151.92188 222.4059Q152.73438 222.4059 153.1875 221.98402Q153.64062 221.56215 153.64062 220.85902Q153.64062 219.1559 151.76562 219.1559L150.57812 219.1559L150.57812 217.39027ZM161.59375 216.62465L163.71875 212.70277L166.42188 212.70277L163.10938 218.3434L166.5 224.07777L163.78125 224.07777L161.59375 220.0934L159.40625 224.07777L156.67188 224.07777L160.07812 218.3434L156.76562 212.70277L159.45312 212.70277L161.59375 216.62465Z" fill-rule="nonzero"/><path fill="#434343" d="M140.95312 219.79652L142.25 219.79652L142.25 221.60902L140.95312 221.60902L140.95312 224.07777L138.70312 224.07777L138.70312 221.60902L134.03125 221.60902L133.9375 220.18715L138.67188 212.70277L140.95312 212.70277L140.95312 219.79652ZM136.1875 219.79652L138.70312 219.79652L138.70312 215.7809L138.54688 216.0309L136.1875 219.79652ZM143.48438 222.9684Q143.48438 222.42152 143.84375 222.0934Q144.21875 221.74965 144.76562 221.74965Q145.3125 221.74965 145.67188 222.0934Q146.04688 222.42152 146.04688 222.9684Q146.04688 223.49965 145.6875 223.8434Q145.32812 224.17152 144.76562 224.17152Q144.20312 224.17152 143.84375 223.8434Q143.48438 223.49965 143.48438 222.9684ZM150.57812 217.39027L151.78125 217.39027Q152.64062 217.39027 153.04688 216.9684Q153.46875 216.5309 153.46875 215.81215Q153.46875 215.12465 153.04688 214.74965Q152.64062 214.35902 151.92188 214.35902Q151.28125 214.35902 150.84375 214.7184Q150.40625 215.07777 150.40625 215.64027L148.14062 215.64027Q148.14062 214.74965 148.625 214.04652Q149.10938 213.3434 149.96875 212.95277Q150.82812 212.54652 151.875 212.54652Q153.67188 212.54652 154.6875 213.4059Q155.71875 214.26527 155.71875 215.7809Q155.71875 216.56215 155.23438 217.2184Q154.76562 217.87465 154.0 218.23402Q154.95312 218.57777 155.42188 219.26527Q155.90625 219.95277 155.90625 220.89027Q155.90625 222.4059 154.79688 223.32777Q153.6875 224.23402 151.875 224.23402Q150.17188 224.23402 149.07812 223.3434Q148.0 222.43715 148.0 220.95277L150.26562 220.95277Q150.26562 221.5934 150.73438 221.99965Q151.21875 222.4059 151.92188 222.4059Q152.73438 222.4059 153.1875 221.98402Q153.64062 221.56215 153.64062 220.85902Q153.64062 219.1559 151.76562 219.1559L150.57812 219.1559L150.57812 217.39027ZM161.59375 216.62465L163.71875 212.70277L166.42188 212.70277L163.10938 218.3434L166.5 224.07777L163.78125 224.07777L161.59375 220.0934L159.40625 224.07777L156.67188 224.07777L160.07812 218.3434L156.76562 212.70277L159.45312 212.70277L161.59375 216.62465Z" fill-rule="nonzero"/><path stroke="#ffffff" stroke-width="3.0" stroke-linejoin="round" stroke-linecap="round" d="M271.07812 137.38889L263.28125 137.38889L263.28125 135.84201L266.95312 131.92014Q267.71875 131.09201 268.07812 130.48264Q268.4375 129.85764 268.4375 129.29514Q268.4375 128.54514 268.04688 128.10764Q267.67188 127.670135 266.96875 127.670135Q266.20312 127.670135 265.75 128.20139Q265.3125 128.73264 265.3125 129.59201L263.04688 129.59201Q263.04688 128.54514 263.54688 127.68576Q264.04688 126.826385 264.95312 126.34201Q265.85938 125.857635 267.0 125.857635Q268.76562 125.857635 269.73438 126.701385Q270.70312 127.545135 270.70312 129.07639Q270.70312 129.92014 270.26562 130.79514Q269.82812 131.67014 268.76562 132.84201L266.1875 135.56076L271.07812 135.56076L271.07812 137.38889ZM272.48438 136.27951Q272.48438 135.73264 272.84375 135.40451Q273.21875 135.06076 273.76562 135.06076Q274.3125 135.06076 274.67188 135.40451Q275.04688 135.73264 275.04688 136.27951Q275.04688 136.81076 274.6875 137.15451Q274.32812 137.48264 273.76562 137.48264Q273.20312 137.48264 272.84375 137.15451Q272.48438 136.81076 272.48438 136.27951ZM277.60938 131.79514L278.26562 126.013885L284.64062 126.013885L284.64062 127.888885L280.125 127.888885L279.84375 130.34201Q280.64062 129.90451 281.54688 129.90451Q283.17188 129.90451 284.09375 130.92014Q285.01562 131.92014 285.01562 133.73264Q285.01562 134.84201 284.54688 135.71701Q284.09375 136.57639 283.21875 137.06076Q282.35938 137.54514 281.17188 137.54514Q280.14062 137.54514 279.25 137.12326Q278.375 136.70139 277.85938 135.95139Q277.35938 135.18576 277.32812 134.21701L279.5625 134.21701Q279.625 134.93576 280.04688 135.32639Q280.48438 135.71701 281.17188 135.71701Q281.9375 135.71701 282.34375 135.17014Q282.76562 134.62326 282.76562 133.60764Q282.76562 132.63889 282.28125 132.12326Q281.8125 131.60764 280.9375 131.60764Q280.125 131.60764 279.625 132.02951L279.40625 132.23264L277.60938 131.79514ZM290.59375 129.93576L292.71875 126.013885L295.42188 126.013885L292.10938 131.65451L295.5 137.38889L292.78125 137.38889L290.59375 133.40451L288.40625 137.38889L285.67188 137.38889L289.07812 131.65451L285.76562 126.013885L288.45312 126.013885L290.59375 129.93576Z" fill-rule="nonzero"/><path fill="#434343" d="M271.07812 137.38889L263.28125 137.38889L263.28125 135.84201L266.95312 131.92014Q267.71875 131.09201 268.07812 130.48264Q268.4375 129.85764 268.4375 129.29514Q268.4375 128.54514 268.04688 128.10764Q267.67188 127.670135 266.96875 127.670135Q266.20312 127.670135 265.75 128.20139Q265.3125 128.73264 265.3125 129.59201L263.04688 129.59201Q263.04688 128.54514 263.54688 127.68576Q264.04688 126.826385 264.95312 126.34201Q265.85938 125.857635 267.0 125.857635Q268.76562 125.857635 269.73438 126.701385Q270.70312 127.545135 270.70312 129.07639Q270.70312 129.92014 270.26562 130.79514Q269.82812 131.67014 268.76562 132.84201L266.1875 135.56076L271.07812 135.56076L271.07812 137.38889ZM272.48438 136.27951Q272.48438 135.73264 272.84375 135.40451Q273.21875 135.06076 273.76562 135.06076Q274.3125 135.06076 274.67188 135.40451Q275.04688 135.73264 275.04688 136.27951Q275.04688 136.81076 274.6875 137.15451Q274.32812 137.48264 273.76562 137.48264Q273.20312 137.48264 272.84375 137.15451Q272.48438 136.81076 272.48438 136.27951ZM277.60938 131.79514L278.26562 126.013885L284.64062 126.013885L284.64062 127.888885L280.125 127.888885L279.84375 130.34201Q280.64062 129.90451 281.54688 129.90451Q283.17188 129.90451 284.09375 130.92014Q285.01562 131.92014 285.01562 133.73264Q285.01562 134.84201 284.54688 135.71701Q284.09375 136.57639 283.21875 137.06076Q282.35938 137.54514 281.17188 137.54514Q280.14062 137.54514 279.25 137.12326Q278.375 136.70139 277.85938 135.95139Q277.35938 135.18576 277.32812 134.21701L279.5625 134.21701Q279.625 134.93576 280.04688 135.32639Q280.48438 135.71701 281.17188 135.71701Q281.9375 135.71701 282.34375 135.17014Q282.76562 134.62326 282.76562 133.60764Q282.76562 132.63889 282.28125 132.12326Q281.8125 131.60764 280.9375 131.60764Q280.125 131.60764 279.625 132.02951L279.40625 132.23264L277.60938 131.79514ZM290.59375 129.93576L292.71875 126.013885L295.42188 126.013885L292.10938 131.65451L295.5 137.38889L292.78125 137.38889L290.59375 133.40451L288.40625 137.38889L285.67188 137.38889L289.07812 131.65451L285.76562 126.013885L288.45312 126.013885L290.59375 129.93576Z" fill-rule="nonzero"/><path stroke="#ffffff" stroke-width="3.0" stroke-linejoin="round" stroke-linecap="round" d="M400.07812 224.07777L392.28125 224.07777L392.28125 222.5309L395.95312 218.60902Q396.71875 217.7809 397.07812 217.17152Q397.4375 216.54652 397.4375 215.98402Q397.4375 215.23402 397.04688 214.79652Q396.67188 214.35902 395.96875 214.35902Q395.20312 214.35902 394.75 214.89027Q394.3125 215.42152 394.3125 216.2809L392.04688 216.2809Q392.04688 215.23402 392.54688 214.37465Q393.04688 213.51527 393.95312 213.0309Q394.85938 212.54652 396.0 212.54652Q397.76562 212.54652 398.73438 213.39027Q399.70312 214.23402 399.70312 215.76527Q399.70312 216.60902 399.26562 217.48402Q398.82812 218.35902 397.76562 219.5309L395.1875 222.24965L400.07812 222.24965L400.07812 224.07777ZM401.48438 222.9684Q401.48438 222.42152 401.84375 222.0934Q402.21875 221.74965 402.76562 221.74965Q403.3125 221.74965 403.67188 222.0934Q404.04688 222.42152 404.04688 222.9684Q404.04688 223.49965 403.6875 223.8434Q403.32812 224.17152 402.76562 224.17152Q402.20312 224.17152 401.84375 223.8434Q401.48438 223.49965 401.48438 222.9684ZM412.40625 212.57777L412.40625 214.43715L412.1875 214.43715Q410.65625 214.4684 409.71875 215.24965Q408.78125 216.01527 408.59375 217.39027Q409.5 216.4684 410.89062 216.4684Q412.375 216.4684 413.25 217.5309Q414.125 218.5934 414.125 220.32777Q414.125 221.43715 413.64062 222.3434Q413.15625 223.23402 412.28125 223.73402Q411.40625 224.23402 410.29688 224.23402Q408.5 224.23402 407.39062 222.98402Q406.28125 221.73402 406.28125 219.64027L406.28125 218.82777Q406.28125 216.98402 406.98438 215.56215Q407.6875 214.14027 408.98438 213.37465Q410.29688 212.5934 412.03125 212.57777L412.40625 212.57777ZM410.20312 218.2809Q409.65625 218.2809 409.20312 218.56215Q408.76562 218.8434 408.54688 219.31215L408.54688 219.99965Q408.54688 221.14027 408.98438 221.7809Q409.4375 222.4059 410.25 222.4059Q410.96875 222.4059 411.42188 221.8434Q411.875 221.26527 411.875 220.3434Q411.875 219.42152 411.42188 218.85902Q410.96875 218.2809 410.20312 218.2809ZM419.59375 216.62465L421.71875 212.70277L424.42188 212.70277L421.10938 218.3434L424.5 224.07777L421.78125 224.07777L419.59375 220.0934L417.40625 224.07777L414.67188 224.07777L418.07812 218.3434L414.76562 212.70277L417.45312 212.70277L419.59375 216.62465Z" fill-rule="nonzero"/><path fill="#434343" d="M400.07812 224.07777L392.28125 224.07777L392.28125 222.5309L395.95312 218.60902Q396.71875 217.7809 397.07812 217.17152Q397.4375 216.54652 397.4375 215.98402Q397.4375 215.23402 397.04688 214.79652Q396.67188 214.35902 395.96875 214.35902Q395.20312 214.35902 394.75 214.89027Q394.3125 215.42152 394.3125 216.2809L392.04688 216.2809Q392.04688 215.23402 392.54688 214.37465Q393.04688 213.51527 393.95312 213.0309Q394.85938 212.54652 396.0 212.54652Q397.76562 212.54652 398.73438 213.39027Q399.70312 214.23402 399.70312 215.76527Q399.70312 216.60902 399.26562 217.48402Q398.82812 218.35902 397.76562 219.5309L395.1875 222.24965L400.07812 222.24965L400.07812 224.07777ZM401.48438 222.9684Q401.48438 222.42152 401.84375 222.0934Q402.21875 221.74965 402.76562 221.74965Q403.3125 221.74965 403.67188 222.0934Q404.04688 222.42152 404.04688 222.9684Q404.04688 223.49965 403.6875 223.8434Q403.32812 224.17152 402.76562 224.17152Q402.20312 224.17152 401.84375 223.8434Q401.48438 223.49965 401.48438 222.9684ZM412.40625 212.57777L412.40625 214.43715L412.1875 214.43715Q410.65625 214.4684 409.71875 215.24965Q408.78125 216.01527 408.59375 217.39027Q409.5 216.4684 410.89062 216.4684Q412.375 216.4684 413.25 217.5309Q414.125 218.5934 414.125 220.32777Q414.125 221.43715 413.64062 222.3434Q413.15625 223.23402 412.28125 223.73402Q411.40625 224.23402 410.29688 224.23402Q408.5 224.23402 407.39062 222.98402Q406.28125 221.73402 406.28125 219.64027L406.28125 218.82777Q406.28125 216.98402 406.98438 215.56215Q407.6875 214.14027 408.98438 213.37465Q410.29688 212.5934 412.03125 212.57777L412.40625 212.57777ZM410.20312 218.2809Q409.65625 218.2809 409.20312 218.56215Q408.76562 218.8434 408.54688 219.31215L408.54688 219.99965Q408.54688 221.14027 408.98438 221.7809Q409.4375 222.4059 410.25 222.4059Q410.96875 222.4059 411.42188 221.8434Q411.875 221.26527 411.875 220.3434Q411.875 219.42152 411.42188 218.85902Q410.96875 218.2809 410.20312 218.2809ZM419.59375 216.62465L421.71875 212.70277L424.42188 212.70277L421.10938 218.3434L424.5 224.07777L421.78125 224.07777L419.59375 220.0934L417.40625 224.07777L414.67188 224.07777L418.07812 218.3434L414.76562 212.70277L417.45312 212.70277L419.59375 216.62465Z" fill-rule="nonzero"/><path stroke="#ffffff" stroke-width="3.0" stroke-linejoin="round" stroke-linecap="round" d="M529.0781 205.63333L521.28125 205.63333L521.28125 204.08646L524.9531 200.16458Q525.71875 199.33646 526.0781 198.72708Q526.4375 198.10208 526.4375 197.53958Q526.4375 196.78958 526.0469 196.35208Q525.6719 195.91458 524.96875 195.91458Q524.2031 195.91458 523.75 196.44583Q523.3125 196.97708 523.3125 197.83646L521.0469 197.83646Q521.0469 196.78958 521.5469 195.9302Q522.0469 195.07083 522.9531 194.58646Q523.8594 194.10208 525.0 194.10208Q526.7656 194.10208 527.7344 194.94583Q528.7031 195.78958 528.7031 197.32083Q528.7031 198.16458 528.2656 199.03958Q527.8281 199.91458 526.7656 201.08646L524.1875 203.8052L529.0781 203.8052L529.0781 205.63333ZM530.4844 204.52396Q530.4844 203.97708 530.84375 203.64896Q531.21875 203.3052 531.7656 203.3052Q532.3125 203.3052 532.6719 203.64896Q533.0469 203.97708 533.0469 204.52396Q533.0469 205.0552 532.6875 205.39896Q532.3281 205.72708 531.7656 205.72708Q531.2031 205.72708 530.84375 205.39896Q530.4844 205.0552 530.4844 204.52396ZM541.9531 201.35208L543.25 201.35208L543.25 203.16458L541.9531 203.16458L541.9531 205.63333L539.7031 205.63333L539.7031 203.16458L535.03125 203.16458L534.9375 201.7427L539.6719 194.25833L541.9531 194.25833L541.9531 201.35208ZM537.1875 201.35208L539.7031 201.35208L539.7031 197.33646L539.5469 197.58646L537.1875 201.35208ZM548.59375 198.1802L550.71875 194.25833L553.4219 194.25833L550.1094 199.89896L553.5 205.63333L550.78125 205.63333L548.59375 201.64896L546.40625 205.63333L543.6719 205.63333L547.0781 199.89896L543.7656 194.25833L546.4531 194.25833L548.59375 198.1802Z" fill-rule="nonzero"/><path fill="#434343" d="M529.0781 205.63333L521.28125 205.63333L521.28125 204.08646L524.9531 200.16458Q525.71875 199.33646 526.0781 198.72708Q526.4375 198.10208 526.4375 197.53958Q526.4375 196.78958 526.0469 196.35208Q525.6719 195.91458 524.96875 195.91458Q524.2031 195.91458 523.75 196.44583Q523.3125 196.97708 523.3125 197.83646L521.0469 197.83646Q521.0469 196.78958 521.5469 195.9302Q522.0469 195.07083 522.9531 194.58646Q523.8594 194.10208 525.0 194.10208Q526.7656 194.10208 527.7344 194.94583Q528.7031 195.78958 528.7031 197.32083Q528.7031 198.16458 528.2656 199.03958Q527.8281 199.91458 526.7656 201.08646L524.1875 203.8052L529.0781 203.8052L529.0781 205.63333ZM530.4844 204.52396Q530.4844 203.97708 530.84375 203.64896Q531.21875 203.3052 531.7656 203.3052Q532.3125 203.3052 532.6719 203.64896Q533.0469 203.97708 533.0469 204.52396Q533.0469 205.0552 532.6875 205.39896Q532.3281 205.72708 531.7656 205.72708Q531.2031 205.72708 530.84375 205.39896Q530.4844 205.0552 530.4844 204.52396ZM541.9531 201.35208L543.25 201.35208L543.25 203.16458L541.9531 203.16458L541.9531 205.63333L539.7031 205.63333L539.7031 203.16458L535.03125 203.16458L534.9375 201.7427L539.6719 194.25833L541.9531 194.25833L541.9531 201.35208ZM537.1875 201.35208L539.7031 201.35208L539.7031 197.33646L539.5469 197.58646L537.1875 201.35208ZM548.59375 198.1802L550.71875 194.25833L553.4219 194.25833L550.1094 199.89896L553.5 205.63333L550.78125 205.63333L548.59375 201.64896L546.40625 205.63333L543.6719 205.63333L547.0781 199.89896L543.7656 194.25833L546.4531 194.25833L548.59375 198.1802Z" fill-rule="nonzero"/><path fill="#666666" d="M30.28125 264.5417L30.171875 263.2917Q30.921875 263.19794 31.40625 262.8698Q31.890625 262.5417 32.1875 261.8698Q32.484375 261.1823 32.484375 260.32294Q32.484375 259.57294 32.265625 258.9948Q32.03125 258.40106 31.640625 258.1198Q31.25 257.83856 30.78125 257.83856Q30.3125 257.83856 29.96875 258.1198Q29.609375 258.38544 29.359375 259.01044Q29.203125 259.4167 28.875 260.8073Q28.546875 262.1823 28.25 262.7292Q27.875 263.44794 27.328125 263.8073Q26.765625 264.15106 26.0625 264.15106Q25.3125 264.15106 24.65625 263.7292Q23.984375 263.2917 23.65625 262.46356Q23.3125 261.63544 23.3125 260.6198Q23.3125 259.51044 23.671875 258.6667Q24.03125 257.8073 24.734375 257.3542Q25.421875 256.90106 26.296875 256.8542L26.390625 258.13544Q25.453125 258.2292 24.96875 258.82294Q24.46875 259.4167 24.46875 260.57294Q24.46875 261.77606 24.921875 262.32294Q25.359375 262.8698 25.984375 262.8698Q26.515625 262.8698 26.875 262.4792Q27.21875 262.1042 27.59375 260.4948Q27.953125 258.8698 28.21875 258.27606Q28.625 257.40106 29.25 256.9792Q29.859375 256.5573 30.671875 256.5573Q31.46875 256.5573 32.1875 257.02606Q32.890625 257.4792 33.28125 258.33856Q33.671875 259.19794 33.671875 260.26044Q33.671875 261.6198 33.28125 262.5417Q32.875 263.46356 32.078125 263.9948Q31.28125 264.51044 30.28125 264.5417ZM31.15625 250.27605L31.3125 248.9948Q32.4375 249.3073 33.0625 250.1198Q33.671875 250.9323 33.671875 252.19792Q33.671875 253.79167 32.6875 254.72917Q31.703125 255.65105 29.9375 255.65105Q28.09375 255.65105 27.09375 254.71355Q26.078125 253.76042 26.078125 252.26042Q26.078125 250.8073 27.078125 249.88542Q28.0625 248.96355 29.859375 248.96355Q29.96875 248.96355 30.1875 248.96355L30.1875 254.38542Q31.375 254.3073 32.015625 253.71355Q32.65625 253.10417 32.65625 252.1823Q32.65625 251.51042 32.296875 251.04167Q31.9375 250.5573 31.15625 250.27605ZM29.171875 254.3073L29.171875 250.26042Q28.25 250.33855 27.796875 250.72917Q27.09375 251.3073 27.09375 252.2448Q27.09375 253.10417 27.65625 253.6823Q28.21875 254.2448 29.171875 254.3073ZM30.84375 242.51042L31.0 241.29167Q32.25 241.4948 32.96875 242.32292Q33.671875 243.13542 33.671875 244.32292Q33.671875 245.8073 32.703125 246.71355Q31.71875 247.6198 29.890625 247.6198Q28.71875 247.6198 27.84375 247.22917Q26.953125 246.83855 26.515625 246.04167Q26.078125 245.2448 26.078125 244.3073Q26.078125 243.13542 26.671875 242.38542Q27.265625 241.6198 28.375 241.41667L28.5625 242.60417Q27.828125 242.77605 27.46875 243.21355Q27.09375 243.65105 27.09375 244.26042Q27.09375 245.19792 27.765625 245.77605Q28.421875 246.35417 29.859375 246.35417Q31.328125 246.35417 32.0 245.79167Q32.65625 245.22917 32.65625 244.33855Q32.65625 243.60417 32.21875 243.1198Q31.765625 242.63542 30.84375 242.51042ZM29.875 240.69792Q27.859375 240.69792 26.875 239.57292Q26.078125 238.65105 26.078125 237.29167Q26.078125 235.8073 27.0625 234.85417Q28.03125 233.90105 29.765625 233.90105Q31.171875 233.90105 31.984375 234.32292Q32.78125 234.7448 33.234375 235.5573Q33.671875 236.35417 33.671875 237.29167Q33.671875 238.82292 32.6875 239.76042Q31.703125 240.69792 29.875 240.69792ZM29.875 239.4323Q31.265625 239.4323 31.96875 238.82292Q32.65625 238.21355 32.65625 237.29167Q32.65625 236.38542 31.953125 235.77605Q31.25 235.16667 29.828125 235.16667Q28.484375 235.16667 27.796875 235.77605Q27.09375 236.38542 27.09375 237.29167Q27.09375 238.21355 27.78125 238.82292Q28.46875 239.4323 29.875 239.4323ZM33.5 232.2448L26.234375 232.2448L26.234375 231.13542L27.265625 231.13542Q26.078125 230.33855 26.078125 228.82292Q26.078125 228.16667 26.3125 227.6198Q26.546875 227.07292 26.9375 226.8073Q27.3125 226.52605 27.84375 226.41667Q28.1875 226.33855 29.03125 226.33855L33.5 226.33855L33.5 227.57292L29.078125 227.57292Q28.328125 227.57292 27.96875 227.71355Q27.59375 227.85417 27.375 228.22917Q27.140625 228.58855 27.140625 229.08855Q27.140625 229.8698 27.640625 230.44792Q28.140625 231.01042 29.53125 231.01042L33.5 231.01042L33.5 232.2448ZM33.5 219.52605L32.578125 219.52605Q33.671875 220.22917 33.671875 221.5573Q33.671875 222.4323 33.1875 223.16667Q32.703125 223.88542 31.84375 224.29167Q30.984375 224.6823 29.875 224.6823Q28.796875 224.6823 27.90625 224.32292Q27.015625 223.96355 26.546875 223.2448Q26.078125 222.51042 26.078125 221.6198Q26.078125 220.96355 26.359375 220.44792Q26.625 219.9323 27.078125 219.6198L23.484375 219.6198L23.484375 218.38542L33.5 218.38542L33.5 219.52605ZM29.875 223.41667Q31.265625 223.41667 31.96875 222.83855Q32.65625 222.2448 32.65625 221.44792Q32.65625 220.63542 32.0 220.07292Q31.328125 219.51042 29.984375 219.51042Q28.484375 219.51042 27.796875 220.08855Q27.09375 220.66667 27.09375 221.4948Q27.09375 222.32292 27.765625 222.8698Q28.4375 223.41667 29.875 223.41667ZM31.328125 216.72917L31.140625 215.52605Q31.875 215.41667 32.265625 214.94792Q32.65625 214.47917 32.65625 213.63542Q32.65625 212.79167 32.3125 212.38542Q31.96875 211.96355 31.5 211.96355Q31.078125 211.96355 30.84375 212.33855Q30.671875 212.58855 30.421875 213.58855Q30.078125 214.94792 29.828125 215.47917Q29.578125 215.9948 29.140625 216.26042Q28.703125 216.52605 28.171875 216.52605Q27.6875 216.52605 27.28125 216.3073Q26.859375 216.08855 26.578125 215.69792Q26.375 215.41667 26.234375 214.9323Q26.078125 214.4323 26.078125 213.85417Q26.078125 213.01042 26.328125 212.3698Q26.5625 211.71355 26.984375 211.40105Q27.40625 211.08855 28.109375 210.97917L28.28125 212.1823Q27.71875 212.26042 27.40625 212.66667Q27.09375 213.0573 27.09375 213.77605Q27.09375 214.6198 27.375 214.97917Q27.640625 215.33855 28.03125 215.33855Q28.265625 215.33855 28.453125 215.19792Q28.65625 215.04167 28.78125 214.71355Q28.84375 214.54167 29.09375 213.63542Q29.453125 212.32292 29.671875 211.8073Q29.890625 211.29167 30.3125 211.01042Q30.734375 210.71355 31.359375 210.71355Q31.984375 210.71355 32.53125 211.07292Q33.0625 211.41667 33.375 212.10417Q33.671875 212.77605 33.671875 213.63542Q33.671875 215.04167 33.078125 215.79167Q32.484375 216.52605 31.328125 216.72917Z" fill-rule="nonzero"/><path fill="#999999" d="M72.0 369.26562Q72.0 367.73438 72.3125 366.8125Q72.625 365.875 73.234375 365.375Q73.859375 364.875 74.796875 364.875Q75.484375 364.875 76.0 365.15625Q76.53125 365.4375 76.875 365.96875Q77.21875 366.48438 77.40625 367.23438Q77.59375 367.98438 77.59375 369.26562Q77.59375 370.78125 77.28125 371.70312Q76.984375 372.625 76.359375 373.14062Q75.75 373.64062 74.796875 373.64062Q73.5625 373.64062 72.84375 372.75Q72.0 371.6875 72.0 369.26562ZM73.078125 369.26562Q73.078125 371.375 73.578125 372.07812Q74.078125 372.78125 74.796875 372.78125Q75.53125 372.78125 76.015625 372.07812Q76.515625 371.375 76.515625 369.26562Q76.515625 367.14062 76.015625 366.45312Q75.53125 365.75 74.78125 365.75Q74.0625 365.75 73.625 366.35938Q73.078125 367.14062 73.078125 369.26562Z" fill-rule="nonzero"/><path fill="#999999" d="M72.0 279.02777L73.109375 278.93402Q73.234375 279.74652 73.671875 280.15277Q74.125 280.55902 74.765625 280.55902Q75.515625 280.55902 76.046875 279.9809Q76.578125 279.40277 76.578125 278.46527Q76.578125 277.55902 76.0625 277.0434Q75.5625 276.51215 74.734375 276.51215Q74.234375 276.51215 73.8125 276.74652Q73.40625 276.9809 73.171875 277.34027L72.1875 277.21527L73.015625 272.80902L77.296875 272.80902L77.296875 273.80902L73.859375 273.80902L73.40625 276.12152Q74.171875 275.57465 75.015625 275.57465Q76.140625 275.57465 76.90625 276.3559Q77.6875 277.13715 77.6875 278.37152Q77.6875 279.52777 77.015625 280.38715Q76.1875 281.4184 74.765625 281.4184Q73.59375 281.4184 72.84375 280.76215Q72.109375 280.1059 72.0 279.02777Z" fill-rule="nonzero"/><path fill="#999999" d="M68.96875 189.05556L67.921875 189.05556L67.921875 182.3368Q67.53125 182.69618 66.90625 183.07118Q66.296875 183.43056 65.8125 183.60243L65.8125 182.5868Q66.6875 182.16493 67.34375 181.5868Q68.015625 180.99306 68.296875 180.43056L68.96875 180.43056L68.96875 189.05556ZM72.0 184.82118Q72.0 183.28993 72.3125 182.36806Q72.625 181.43056 73.234375 180.93056Q73.859375 180.43056 74.796875 180.43056Q75.484375 180.43056 76.0 180.7118Q76.53125 180.99306 76.875 181.5243Q77.21875 182.03993 77.40625 182.78993Q77.59375 183.53993 77.59375 184.82118Q77.59375 186.3368 77.28125 187.25868Q76.984375 188.18056 76.359375 188.69618Q75.75 189.19618 74.796875 189.19618Q73.5625 189.19618 72.84375 188.30556Q72.0 187.24306 72.0 184.82118ZM73.078125 184.82118Q73.078125 186.93056 73.578125 187.63368Q74.078125 188.3368 74.796875 188.3368Q75.53125 188.3368 76.015625 187.63368Q76.515625 186.93056 76.515625 184.82118Q76.515625 182.69618 76.015625 182.00868Q75.53125 181.30556 74.78125 181.30556Q74.0625 181.30556 73.625 181.91493Q73.078125 182.69618 73.078125 184.82118Z" fill-rule="nonzero"/><path fill="#999999" d="M68.96875 96.833336L67.921875 96.833336L67.921875 90.114586Q67.53125 90.47396 66.90625 90.84896Q66.296875 91.208336 65.8125 91.38021L65.8125 90.364586Q66.6875 89.94271 67.34375 89.364586Q68.015625 88.770836 68.296875 88.208336L68.96875 88.208336L68.96875 96.833336ZM72.0 94.583336L73.109375 94.489586Q73.234375 95.302086 73.671875 95.708336Q74.125 96.114586 74.765625 96.114586Q75.515625 96.114586 76.046875 95.53646Q76.578125 94.958336 76.578125 94.020836Q76.578125 93.114586 76.0625 92.59896Q75.5625 92.06771 74.734375 92.06771Q74.234375 92.06771 73.8125 92.302086Q73.40625 92.53646 73.171875 92.895836L72.1875 92.770836L73.015625 88.364586L77.296875 88.364586L77.296875 89.364586L73.859375 89.364586L73.40625 91.677086Q74.171875 91.13021 75.015625 91.13021Q76.140625 91.13021 76.90625 91.91146Q77.6875 92.69271 77.6875 93.927086Q77.6875 95.083336 77.015625 95.94271Q76.1875 96.97396 74.765625 96.97396Q73.59375 96.97396 72.84375 96.31771Q72.109375 95.66146 72.0 94.583336Z" fill-rule="nonzero"/><path fill="#666666" d="M160.38092 386.5L160.38092 377.90625L166.1778 377.90625L166.1778 378.92188L161.52155 378.92188L161.52155 381.57812L165.5528 381.57812L165.5528 382.59375L161.52155 382.59375L161.52155 386.5L160.38092 386.5ZM173.45905 383.48438L174.58405 383.78125Q174.22467 385.17188 173.3028 385.90625Q172.38092 386.64062 171.03717 386.64062Q169.64655 386.64062 168.77155 386.07812Q167.89655 385.51562 167.44342 384.45312Q166.9903 383.375 166.9903 382.14062Q166.9903 380.79688 167.50592 379.79688Q168.02155 378.79688 168.95905 378.28125Q169.91217 377.76562 171.0528 377.76562Q172.33405 377.76562 173.20905 378.42188Q174.09967 379.07812 174.44342 380.26562L173.31842 380.53125Q173.02155 379.59375 172.44342 379.17188Q171.88092 378.73438 171.02155 378.73438Q170.03717 378.73438 169.3653 379.21875Q168.70905 379.6875 168.4278 380.48438Q168.16217 381.28125 168.16217 382.14062Q168.16217 383.23438 168.47467 384.04688Q168.8028 384.85938 169.47467 385.26562Q170.14655 385.67188 170.94342 385.67188Q171.89655 385.67188 172.5528 385.125Q173.22467 384.57812 173.45905 383.48438ZM176.31842 386.5L176.31842 377.90625L179.56842 377.90625Q180.41217 377.90625 180.8653 377.98438Q181.50592 378.09375 181.9278 378.39062Q182.3653 378.6875 182.6153 379.21875Q182.88092 379.75 182.88092 380.39062Q182.88092 381.48438 182.1778 382.25Q181.4903 383.0 179.66217 383.0L177.45905 383.0L177.45905 386.5L176.31842 386.5ZM177.45905 382.0L179.6778 382.0Q180.78717 382.0 181.2403 381.59375Q181.70905 381.17188 181.70905 380.42188Q181.70905 379.89062 181.4278 379.51562Q181.16217 379.125 180.72467 379.0Q180.4278 378.92188 179.66217 378.92188L177.45905 378.92188L177.45905 382.0Z" fill-rule="nonzero"/><path fill="#666666" d="M294.74155 386.5L294.74155 378.92188L291.91342 378.92188L291.91342 377.90625L298.72592 377.90625L298.72592 378.92188L295.88217 378.92188L295.88217 386.5L294.74155 386.5ZM301.74155 386.5L301.74155 378.92188L298.91342 378.92188L298.91342 377.90625L305.72592 377.90625L305.72592 378.92188L302.88217 378.92188L302.88217 386.5L301.74155 386.5ZM306.75717 386.5L306.75717 377.90625L307.88217 377.90625L307.88217 386.5L306.75717 386.5Z" fill-rule="nonzero"/><path fill="#666666" d="M395.4147 383.73438L396.4772 383.64062Q396.55533 384.29688 396.83658 384.70312Q397.11783 385.10938 397.69595 385.375Q398.2897 385.625 399.02408 385.625Q399.6647 385.625 400.1647 385.4375Q400.6647 385.23438 400.89908 384.90625Q401.14908 384.5625 401.14908 384.17188Q401.14908 383.76562 400.9147 383.46875Q400.68033 383.15625 400.14908 382.95312Q399.7897 382.8125 398.6022 382.53125Q397.43033 382.25 396.96158 382.0Q396.33658 381.67188 396.0397 381.20312Q395.74283 380.71875 395.74283 380.125Q395.74283 379.48438 396.1022 378.92188Q396.4772 378.34375 397.18033 378.0625Q397.89908 377.76562 398.75845 377.76562Q399.71158 377.76562 400.44595 378.07812Q401.18033 378.375 401.57095 378.98438Q401.96158 379.57812 401.99283 380.32812L400.89908 380.40625Q400.80533 379.59375 400.2897 379.1875Q399.7897 378.76562 398.80533 378.76562Q397.77408 378.76562 397.30533 379.14062Q396.83658 379.51562 396.83658 380.04688Q396.83658 380.51562 397.1647 380.8125Q397.49283 381.10938 398.86783 381.42188Q400.25845 381.73438 400.77408 381.96875Q401.52408 382.32812 401.88345 382.85938Q402.24283 383.375 402.24283 384.07812Q402.24283 384.76562 401.8522 385.375Q401.46158 385.96875 400.7272 386.3125Q399.99283 386.64062 399.07095 386.64062Q397.89908 386.64062 397.1022 386.3125Q396.32095 385.96875 395.86783 385.28125Q395.43033 384.59375 395.4147 383.73438ZM403.6647 388.89062L403.6647 380.28125L404.61783 380.28125L404.61783 381.07812Q404.96158 380.60938 405.38345 380.375Q405.82095 380.14062 406.43033 380.14062Q407.2272 380.14062 407.83658 380.54688Q408.44595 380.95312 408.74283 381.70312Q409.05533 382.45312 409.05533 383.34375Q409.05533 384.29688 408.71158 385.0625Q408.38345 385.82812 407.7272 386.23438Q407.07095 386.64062 406.3522 386.64062Q405.82095 386.64062 405.39908 386.42188Q404.9772 386.1875 404.71158 385.85938L404.71158 388.89062L403.6647 388.89062ZM404.61783 383.42188Q404.61783 384.625 405.1022 385.20312Q405.58658 385.76562 406.27408 385.76562Q406.9772 385.76562 407.4772 385.17188Q407.9772 384.57812 407.9772 383.32812Q407.9772 382.14062 407.49283 381.5625Q407.00845 380.96875 406.32095 380.96875Q405.64908 380.96875 405.13345 381.59375Q404.61783 382.21875 404.61783 383.42188ZM414.9147 384.5L416.00845 384.625Q415.75845 385.57812 415.05533 386.10938Q414.3522 386.64062 413.27408 386.64062Q411.9147 386.64062 411.1022 385.79688Q410.30533 384.95312 410.30533 383.4375Q410.30533 381.875 411.11783 381.01562Q411.93033 380.14062 413.21158 380.14062Q414.46158 380.14062 415.24283 380.98438Q416.0397 381.82812 416.0397 383.375Q416.0397 383.46875 416.0397 383.65625L411.39908 383.65625Q411.46158 384.6875 411.9772 385.23438Q412.49283 385.76562 413.27408 385.76562Q413.8522 385.76562 414.25845 385.46875Q414.68033 385.15625 414.9147 384.5ZM411.46158 382.79688L414.93033 382.79688Q414.86783 382.0 414.5397 381.60938Q414.02408 381.0 413.2272 381.0Q412.49283 381.0 411.99283 381.48438Q411.50845 381.96875 411.46158 382.79688ZM421.9147 384.5L423.00845 384.625Q422.75845 385.57812 422.05533 386.10938Q421.3522 386.64062 420.27408 386.64062Q418.9147 386.64062 418.1022 385.79688Q417.30533 384.95312 417.30533 383.4375Q417.30533 381.875 418.11783 381.01562Q418.93033 380.14062 420.21158 380.14062Q421.46158 380.14062 422.24283 380.98438Q423.0397 381.82812 423.0397 383.375Q423.0397 383.46875 423.0397 383.65625L418.39908 383.65625Q418.46158 384.6875 418.9772 385.23438Q419.49283 385.76562 420.27408 385.76562Q420.8522 385.76562 421.25845 385.46875Q421.68033 385.15625 421.9147 384.5ZM418.46158 382.79688L421.93033 382.79688Q421.86783 382.0 421.5397 381.60938Q421.02408 381.0 420.2272 381.0Q419.49283 381.0 418.99283 381.48438Q418.50845 381.96875 418.46158 382.79688ZM428.69595 386.5L428.69595 385.71875Q428.1022 386.64062 426.96158 386.64062Q426.21158 386.64062 425.58658 386.23438Q424.96158 385.8125 424.61783 385.07812Q424.27408 384.34375 424.27408 383.39062Q424.27408 382.46875 424.58658 381.70312Q424.89908 380.9375 425.52408 380.54688Q426.14908 380.14062 426.9147 380.14062Q427.4772 380.14062 427.9147 380.375Q428.3522 380.60938 428.63345 380.98438L428.63345 377.90625L429.68033 377.90625L429.68033 386.5L428.69595 386.5ZM425.36783 383.39062Q425.36783 384.59375 425.86783 385.1875Q426.36783 385.76562 427.05533 385.76562Q427.74283 385.76562 428.2272 385.20312Q428.71158 384.64062 428.71158 383.48438Q428.71158 382.20312 428.21158 381.60938Q427.7272 381.01562 427.00845 381.01562Q426.30533 381.01562 425.83658 381.59375Q425.36783 382.15625 425.36783 383.39062ZM434.99283 386.5L434.99283 377.90625L436.11783 377.90625L436.11783 386.5L434.99283 386.5ZM437.6647 386.5L437.6647 380.28125L438.6022 380.28125L438.6022 381.15625Q439.2897 380.14062 440.58658 380.14062Q441.14908 380.14062 441.61783 380.34375Q442.1022 380.54688 442.33658 380.875Q442.57095 381.20312 442.6647 381.64062Q442.71158 381.9375 442.71158 382.67188L442.71158 386.5L441.6647 386.5L441.6647 382.71875Q441.6647 382.0625 441.5397 381.75Q441.4147 381.4375 441.1022 381.25Q440.7897 381.04688 440.36783 381.04688Q439.69595 381.04688 439.19595 381.48438Q438.71158 381.90625 438.71158 383.09375L438.71158 386.5L437.6647 386.5ZM448.69595 386.5L448.69595 385.71875Q448.1022 386.64062 446.96158 386.64062Q446.21158 386.64062 445.58658 386.23438Q444.96158 385.8125 444.61783 385.07812Q444.27408 384.34375 444.27408 383.39062Q444.27408 382.46875 444.58658 381.70312Q444.89908 380.9375 445.52408 380.54688Q446.14908 380.14062 446.9147 380.14062Q447.4772 380.14062 447.9147 380.375Q448.3522 380.60938 448.63345 380.98438L448.63345 377.90625L449.68033 377.90625L449.68033 386.5L448.69595 386.5ZM445.36783 383.39062Q445.36783 384.59375 445.86783 385.1875Q446.36783 385.76562 447.05533 385.76562Q447.74283 385.76562 448.2272 385.20312Q448.71158 384.64062 448.71158 383.48438Q448.71158 382.20312 448.21158 381.60938Q447.7272 381.01562 447.00845 381.01562Q446.30533 381.01562 445.83658 381.59375Q445.36783 382.15625 445.36783 383.39062ZM455.9147 384.5L457.00845 384.625Q456.75845 385.57812 456.05533 386.10938Q455.3522 386.64062 454.27408 386.64062Q452.9147 386.64062 452.1022 385.79688Q451.30533 384.95312 451.30533 383.4375Q451.30533 381.875 452.11783 381.01562Q452.93033 380.14062 454.21158 380.14062Q455.46158 380.14062 456.24283 380.98438Q457.0397 381.82812 457.0397 383.375Q457.0397 383.46875 457.0397 383.65625L452.39908 383.65625Q452.46158 384.6875 452.9772 385.23438Q453.49283 385.76562 454.27408 385.76562Q454.8522 385.76562 455.25845 385.46875Q455.68033 385.15625 455.9147 384.5ZM452.46158 382.79688L455.93033 382.79688Q455.86783 382.0 455.5397 381.60938Q455.02408 381.0 454.2272 381.0Q453.49283 381.0 452.99283 381.48438Q452.50845 381.96875 452.46158 382.79688ZM457.96158 386.5L460.2272 383.26562L458.13345 380.28125L459.44595 380.28125L460.39908 381.73438Q460.6647 382.15625 460.83658 382.4375Q461.08658 382.04688 461.30533 381.75L462.3522 380.28125L463.61783 380.28125L461.46158 383.20312L463.77408 386.5L462.49283 386.5L461.21158 384.5625L460.86783 384.04688L459.2272 386.5L457.96158 386.5Z" fill-rule="nonzero"/><path fill="#666666" d="M546.47845 386.5L546.47845 377.90625L547.6191 377.90625L547.6191 385.48438L551.85345 385.48438L551.85345 386.5L546.47845 386.5ZM559.66595 383.48438L560.79095 383.78125Q560.4316 385.17188 559.5097 385.90625Q558.5878 386.64062 557.2441 386.64062Q555.85345 386.64062 554.97845 386.07812Q554.10345 385.51562 553.6503 384.45312Q553.1972 383.375 553.1972 382.14062Q553.1972 380.79688 553.7128 379.79688Q554.22845 378.79688 555.16595 378.28125Q556.1191 377.76562 557.2597 377.76562Q558.54095 377.76562 559.41595 378.42188Q560.3066 379.07812 560.6503 380.26562L559.5253 380.53125Q559.22845 379.59375 558.6503 379.17188Q558.0878 378.73438 557.22845 378.73438Q556.2441 378.73438 555.5722 379.21875Q554.91595 379.6875 554.6347 380.48438Q554.3691 381.28125 554.3691 382.14062Q554.3691 383.23438 554.6816 384.04688Q555.0097 384.85938 555.6816 385.26562Q556.35345 385.67188 557.1503 385.67188Q558.10345 385.67188 558.7597 385.125Q559.4316 384.57812 559.66595 383.48438ZM562.5253 386.5L562.5253 377.90625L565.7753 377.90625Q566.6191 377.90625 567.0722 377.98438Q567.7128 378.09375 568.1347 378.39062Q568.5722 378.6875 568.8222 379.21875Q569.0878 379.75 569.0878 380.39062Q569.0878 381.48438 568.3847 382.25Q567.6972 383.0 565.8691 383.0L563.66595 383.0L563.66595 386.5L562.5253 386.5ZM563.66595 382.0L565.8847 382.0Q566.9941 382.0 567.4472 381.59375Q567.91595 381.17188 567.91595 380.42188Q567.91595 379.89062 567.6347 379.51562Q567.3691 379.125 566.9316 379.0Q566.6347 378.92188 565.8691 378.92188L563.66595 378.92188L563.66595 382.0Z" fill-rule="nonzero"/><path fill="#f6b26b" d="M238.52441 28.166666C238.52441 27.614382 238.97212 27.166666 239.52441 27.166666L249.52441 27.166666C250.0767 27.166666 250.52441 27.614382 250.52441 28.166666L250.52441 38.166668C250.52441 38.718952 250.0767 39.166668 249.52441 39.166668L239.52441 39.166668C238.97212 39.166668 238.52441 38.718952 238.52441 38.166668Z" fill-rule="nonzero"/><path fill="#999999" d="M259.55566 38.166668L259.55566 28.151043L263.30566 28.151043Q264.4619 28.151043 265.1494 28.463543Q265.85254 28.760418 266.24316 29.385418Q266.6338 30.010418 266.6338 30.713543Q266.6338 31.354168 266.2744 31.916668Q265.93066 32.479168 265.22754 32.838543Q266.1338 33.104168 266.61816 33.744793Q267.11816 34.385418 267.11816 35.260418Q267.11816 35.963543 266.8213 36.572918Q266.5244 37.182293 266.0869 37.510418Q265.6494 37.838543 264.97754 38.010418Q264.3213 38.166668 263.36816 38.166668L259.55566 38.166668ZM260.8838 32.354168L263.04004 32.354168Q263.93066 32.354168 264.30566 32.244793Q264.8213 32.088543 265.0713 31.744793Q265.3213 31.385418 265.3213 30.869793Q265.3213 30.369793 265.0869 29.994793Q264.85254 29.604168 264.3994 29.463543Q263.9619 29.322918 262.8838 29.322918L260.8838 29.322918L260.8838 32.354168ZM260.8838 36.979168L263.36816 36.979168Q264.0088 36.979168 264.2744 36.932293Q264.72754 36.854168 265.04004 36.666668Q265.35254 36.463543 265.54004 36.104168Q265.74316 35.744793 265.74316 35.260418Q265.74316 34.697918 265.4463 34.291668Q265.16504 33.869793 264.6494 33.713543Q264.1494 33.541668 263.1963 33.541668L260.8838 33.541668L260.8838 36.979168ZM273.41504 35.822918L274.6963 35.979168Q274.3838 37.104168 273.5713 37.729168Q272.7588 38.338543 271.49316 38.338543Q269.8994 38.338543 268.9619 37.354168Q268.04004 36.369793 268.04004 34.604168Q268.04004 32.760418 268.97754 31.760418Q269.93066 30.744793 271.43066 30.744793Q272.8838 30.744793 273.80566 31.744793Q274.72754 32.729168 274.72754 34.526043Q274.72754 34.635418 274.72754 34.854168L269.30566 34.854168Q269.3838 36.041668 269.97754 36.682293Q270.5869 37.322918 271.5088 37.322918Q272.18066 37.322918 272.6494 36.963543Q273.1338 36.604168 273.41504 35.822918ZM269.3838 33.838543L273.43066 33.838543Q273.35254 32.916668 272.9619 32.463543Q272.3838 31.760418 271.4463 31.760418Q270.5869 31.760418 270.0088 32.322918Q269.4463 32.885418 269.3838 33.838543ZM276.74316 38.166668L276.74316 31.869793L275.6494 31.869793L275.6494 30.901043L276.74316 30.901043L276.74316 30.135418Q276.74316 29.401043 276.86816 29.041668Q277.05566 28.572918 277.49316 28.276043Q277.9463 27.979168 278.7588 27.979168Q279.2744 27.979168 279.8994 28.104168L279.7119 29.166668Q279.3369 29.104168 278.99316 29.104168Q278.43066 29.104168 278.1963 29.338543Q277.9619 29.572918 277.9619 30.229168L277.9619 30.901043L279.3838 30.901043L279.3838 31.869793L277.9619 31.869793L277.9619 38.166668L276.74316 38.166668ZM279.99316 34.541668Q279.99316 32.526043 281.11816 31.541668Q282.04004 30.744793 283.3994 30.744793Q284.8838 30.744793 285.8369 31.729168Q286.79004 32.697918 286.79004 34.432293Q286.79004 35.838543 286.36816 36.651043Q285.9463 37.447918 285.1338 37.901043Q284.3369 38.338543 283.3994 38.338543Q281.86816 38.338543 280.93066 37.354168Q279.99316 36.369793 279.99316 34.541668ZM281.2588 34.541668Q281.2588 35.932293 281.86816 36.635418Q282.47754 37.322918 283.3994 37.322918Q284.30566 37.322918 284.91504 36.619793Q285.5244 35.916668 285.5244 34.494793Q285.5244 33.151043 284.91504 32.463543Q284.30566 31.760418 283.3994 31.760418Q282.47754 31.760418 281.86816 32.447918Q281.2588 33.135418 281.2588 34.541668ZM288.43066 38.166668L288.43066 30.901043L289.54004 30.901043L289.54004 32.010418Q289.9619 31.229168 290.3213 30.994793Q290.68066 30.744793 291.11816 30.744793Q291.74316 30.744793 292.3838 31.135418L291.9619 32.276043Q291.5088 32.010418 291.05566 32.010418Q290.6494 32.010418 290.3213 32.260418Q290.0088 32.494793 289.86816 32.932293Q289.66504 33.588543 289.66504 34.369793L289.66504 38.166668L288.43066 38.166668ZM298.41504 35.822918L299.6963 35.979168Q299.3838 37.104168 298.5713 37.729168Q297.7588 38.338543 296.49316 38.338543Q294.8994 38.338543 293.9619 37.354168Q293.04004 36.369793 293.04004 34.604168Q293.04004 32.760418 293.97754 31.760418Q294.93066 30.744793 296.43066 30.744793Q297.8838 30.744793 298.80566 31.744793Q299.72754 32.729168 299.72754 34.526043Q299.72754 34.635418 299.72754 34.854168L294.30566 34.854168Q294.3838 36.041668 294.97754 36.682293Q295.5869 37.322918 296.5088 37.322918Q297.18066 37.322918 297.6494 36.963543Q298.1338 36.604168 298.41504 35.822918ZM294.3838 33.838543L298.43066 33.838543Q298.35254 32.916668 297.9619 32.463543Q297.3838 31.760418 296.4463 31.760418Q295.5869 31.760418 295.0088 32.322918Q294.4463 32.885418 294.3838 33.838543Z" fill-rule="nonzero"/><path fill="#3c78d8" d="M316.5244 28.166666C316.5244 27.614382 316.97214 27.166666 317.5244 27.166666L327.5244 27.166666C328.0767 27.166666 328.5244 27.614382 328.5244 28.166666L328.5244 38.166668C328.5244 38.718952 328.0767 39.166668 327.5244 39.166668L317.5244 39.166668C316.97214 39.166668 316.5244 38.718952 316.5244 38.166668Z" fill-rule="nonzero"/><path fill="#999999" d="M336.5088 38.166668L340.35254 28.151043L341.7744 28.151043L345.8838 38.166668L344.36816 38.166668L343.1963 35.135418L339.0088 35.135418L337.91504 38.166668L336.5088 38.166668ZM339.3994 34.057293L342.79004 34.057293L341.74316 31.276043Q341.2744 30.010418 341.04004 29.197918Q340.85254 30.166668 340.49316 31.104168L339.3994 34.057293ZM346.74316 38.166668L346.74316 31.869793L345.6494 31.869793L345.6494 30.901043L346.74316 30.901043L346.74316 30.135418Q346.74316 29.401043 346.86816 29.041668Q347.05566 28.572918 347.49316 28.276043Q347.9463 27.979168 348.7588 27.979168Q349.2744 27.979168 349.8994 28.104168L349.7119 29.166668Q349.3369 29.104168 348.99316 29.104168Q348.43066 29.104168 348.1963 29.338543Q347.9619 29.572918 347.9619 30.229168L347.9619 30.901043L349.3838 30.901043L349.3838 31.869793L347.9619 31.869793L347.9619 38.166668L346.74316 38.166668ZM353.1338 37.072918L353.30566 38.151043Q352.79004 38.260418 352.3838 38.260418Q351.7119 38.260418 351.3369 38.057293Q350.97754 37.838543 350.8213 37.494793Q350.68066 37.151043 350.68066 36.041668L350.68066 31.869793L349.7744 31.869793L349.7744 30.901043L350.68066 30.901043L350.68066 29.104168L351.8994 28.369793L351.8994 30.901043L353.1338 30.901043L353.1338 31.869793L351.8994 31.869793L351.8994 36.104168Q351.8994 36.635418 351.9619 36.791668Q352.0244 36.932293 352.16504 37.026043Q352.3213 37.119793 352.5869 37.119793Q352.80566 37.119793 353.1338 37.072918ZM359.41504 35.822918L360.6963 35.979168Q360.3838 37.104168 359.5713 37.729168Q358.7588 38.338543 357.49316 38.338543Q355.8994 38.338543 354.9619 37.354168Q354.04004 36.369793 354.04004 34.604168Q354.04004 32.760418 354.97754 31.760418Q355.93066 30.744793 357.43066 30.744793Q358.8838 30.744793 359.80566 31.744793Q360.72754 32.729168 360.72754 34.526043Q360.72754 34.635418 360.72754 34.854168L355.30566 34.854168Q355.3838 36.041668 355.97754 36.682293Q356.5869 37.322918 357.5088 37.322918Q358.18066 37.322918 358.6494 36.963543Q359.1338 36.604168 359.41504 35.822918ZM355.3838 33.838543L359.43066 33.838543Q359.35254 32.916668 358.9619 32.463543Q358.3838 31.760418 357.4463 31.760418Q356.5869 31.760418 356.0088 32.322918Q355.4463 32.885418 355.3838 33.838543ZM362.43066 38.166668L362.43066 30.901043L363.54004 30.901043L363.54004 32.010418Q363.9619 31.229168 364.3213 30.994793Q364.68066 30.744793 365.11816 30.744793Q365.74316 30.744793 366.3838 31.135418L365.9619 32.276043Q365.5088 32.010418 365.05566 32.010418Q364.6494 32.010418 364.3213 32.260418Q364.0088 32.494793 363.86816 32.932293Q363.66504 33.588543 363.66504 34.369793L363.66504 38.166668L362.43066 38.166668ZM371.1494 34.947918L372.3994 34.838543Q372.49316 35.588543 372.8213 36.072918Q373.1494 36.557293 373.8213 36.854168Q374.5088 37.151043 375.36816 37.151043Q376.11816 37.151043 376.6963 36.932293Q377.29004 36.697918 377.5713 36.307293Q377.85254 35.916668 377.85254 35.447918Q377.85254 34.979168 377.5713 34.635418Q377.30566 34.276043 376.68066 34.026043Q376.2744 33.869793 374.8838 33.541668Q373.5088 33.213543 372.9619 32.916668Q372.24316 32.541668 371.8838 31.994793Q371.54004 31.432293 371.54004 30.729168Q371.54004 29.979168 371.9619 29.322918Q372.3994 28.651043 373.22754 28.322918Q374.05566 27.979168 375.0713 27.979168Q376.18066 27.979168 377.0244 28.338543Q377.8838 28.697918 378.3369 29.401043Q378.79004 30.088543 378.8369 30.963543L377.55566 31.057293Q377.4619 30.119793 376.86816 29.635418Q376.2744 29.135418 375.11816 29.135418Q373.91504 29.135418 373.36816 29.588543Q372.8213 30.026043 372.8213 30.651043Q372.8213 31.182293 373.2119 31.541668Q373.5869 31.885418 375.1963 32.260418Q376.8213 32.619793 377.41504 32.885418Q378.29004 33.291668 378.7119 33.916668Q379.1338 34.526043 379.1338 35.338543Q379.1338 36.135418 378.66504 36.854168Q378.2119 37.557293 377.35254 37.947918Q376.49316 38.338543 375.43066 38.338543Q374.0713 38.338543 373.1494 37.947918Q372.22754 37.541668 371.6963 36.744793Q371.18066 35.947918 371.1494 34.947918ZM382.4619 38.166668L379.6963 30.901043L381.0088 30.901043L382.55566 35.260418Q382.80566 35.963543 383.0244 36.713543Q383.1963 36.135418 383.47754 35.338543L385.10254 30.901043L386.36816 30.901043L383.61816 38.166668L382.4619 38.166668ZM392.41504 35.822918L393.6963 35.979168Q393.3838 37.104168 392.5713 37.729168Q391.7588 38.338543 390.49316 38.338543Q388.8994 38.338543 387.9619 37.354168Q387.04004 36.369793 387.04004 34.604168Q387.04004 32.760418 387.97754 31.760418Q388.93066 30.744793 390.43066 30.744793Q391.8838 30.744793 392.80566 31.744793Q393.72754 32.729168 393.72754 34.526043Q393.72754 34.635418 393.72754 34.854168L388.30566 34.854168Q388.3838 36.041668 388.97754 36.682293Q389.5869 37.322918 390.5088 37.322918Q391.18066 37.322918 391.6494 36.963543Q392.1338 36.604168 392.41504 35.822918ZM388.3838 33.838543L392.43066 33.838543Q392.35254 32.916668 391.9619 32.463543Q391.3838 31.760418 390.4463 31.760418Q389.5869 31.760418 389.0088 32.322918Q388.4463 32.885418 388.3838 33.838543ZM395.41504 38.166668L395.41504 28.151043L396.6494 28.151043L396.6494 38.166668L395.41504 38.166668ZM401.1338 37.072918L401.30566 38.151043Q400.79004 38.260418 400.3838 38.260418Q399.7119 38.260418 399.3369 38.057293Q398.97754 37.838543 398.8213 37.494793Q398.68066 37.151043 398.68066 36.041668L398.68066 31.869793L397.7744 31.869793L397.7744 30.901043L398.68066 30.901043L398.68066 29.104168L399.8994 28.369793L399.8994 30.901043L401.1338 30.901043L401.1338 31.869793L399.8994 31.869793L399.8994 36.104168Q399.8994 36.635418 399.9619 36.791668Q400.0244 36.932293 400.16504 37.026043Q400.3213 37.119793 400.5869 37.119793Q400.80566 37.119793 401.1338 37.072918ZM407.41504 35.822918L408.6963 35.979168Q408.3838 37.104168 407.5713 37.729168Q406.7588 38.338543 405.49316 38.338543Q403.8994 38.338543 402.9619 37.354168Q402.04004 36.369793 402.04004 34.604168Q402.04004 32.760418 402.97754 31.760418Q403.93066 30.744793 405.43066 30.744793Q406.8838 30.744793 407.80566 31.744793Q408.72754 32.729168 408.72754 34.526043Q408.72754 34.635418 408.72754 34.854168L403.30566 34.854168Q403.3838 36.041668 403.97754 36.682293Q404.5869 37.322918 405.5088 37.322918Q406.18066 37.322918 406.6494 36.963543Q407.1338 36.604168 407.41504 35.822918ZM403.3838 33.838543L407.43066 33.838543Q407.35254 32.916668 406.9619 32.463543Q406.3838 31.760418 405.4463 31.760418Q404.5869 31.760418 404.0088 32.322918Q403.4463 32.885418 403.3838 33.838543ZM410.55566 38.166668L410.55566 28.151043L411.8838 28.151043L411.8838 33.119793L416.85254 28.151043L418.6494 28.151043L414.4463 32.197918L418.8369 38.166668L417.0869 38.166668L413.5244 33.088543L411.8838 34.697918L411.8838 38.166668L410.55566 38.166668ZM419.4619 29.557293L419.4619 28.151043L420.68066 28.151043L420.68066 29.557293L419.4619 29.557293ZM419.4619 38.166668L419.4619 30.901043L420.68066 30.901043L420.68066 38.166668L419.4619 38.166668ZM425.1338 37.072918L425.30566 38.151043Q424.79004 38.260418 424.3838 38.260418Q423.7119 38.260418 423.3369 38.057293Q422.97754 37.838543 422.8213 37.494793Q422.68066 37.151043 422.68066 36.041668L422.68066 31.869793L421.7744 31.869793L421.7744 30.901043L422.68066 30.901043L422.68066 29.104168L423.8994 28.369793L423.8994 30.901043L425.1338 30.901043L425.1338 31.869793L423.8994 31.869793L423.8994 36.104168Q423.8994 36.635418 423.9619 36.791668Q424.0244 36.932293 424.16504 37.026043Q424.3213 37.119793 424.5869 37.119793Q424.80566 37.119793 425.1338 37.072918Z" fill-rule="nonzero"/><path fill="#999999" d="M21.96875 39.5L21.96875 25.1875L23.859375 25.1875L23.859375 37.8125L30.90625 37.8125L30.90625 39.5L21.96875 39.5ZM39.59375 38.21875Q38.609375 39.046875 37.703125 39.390625Q36.796875 39.734375 35.765625 39.734375Q34.0625 39.734375 33.140625 38.90625Q32.21875 38.0625 32.21875 36.765625Q32.21875 36.0 32.5625 35.375Q32.921875 34.75 33.484375 34.375Q34.046875 33.984375 34.75 33.78125Q35.265625 33.65625 36.3125 33.515625Q38.4375 33.265625 39.4375 32.921875Q39.453125 32.5625 39.453125 32.453125Q39.453125 31.390625 38.953125 30.9375Q38.28125 30.34375 36.953125 30.34375Q35.703125 30.34375 35.109375 30.78125Q34.53125 31.21875 34.25 32.328125L32.53125 32.09375Q32.765625 30.984375 33.296875 30.3125Q33.828125 29.625 34.84375 29.265625Q35.859375 28.890625 37.203125 28.890625Q38.53125 28.890625 39.359375 29.203125Q40.1875 29.515625 40.578125 30.0Q40.96875 30.46875 41.125 31.1875Q41.21875 31.640625 41.21875 32.8125L41.21875 35.15625Q41.21875 37.609375 41.328125 38.265625Q41.4375 38.90625 41.78125 39.5L39.9375 39.5Q39.671875 38.953125 39.59375 38.21875ZM39.4375 34.296875Q38.484375 34.6875 36.5625 34.953125Q35.484375 35.109375 35.03125 35.3125Q34.59375 35.5 34.34375 35.875Q34.09375 36.25 34.09375 36.71875Q34.09375 37.421875 34.625 37.890625Q35.15625 38.359375 36.1875 38.359375Q37.203125 38.359375 37.984375 37.921875Q38.78125 37.46875 39.15625 36.703125Q39.4375 36.09375 39.4375 34.9375L39.4375 34.296875ZM43.8125 39.5L43.8125 29.125L45.40625 29.125L45.40625 30.609375Q46.546875 28.890625 48.703125 28.890625Q49.640625 28.890625 50.421875 29.234375Q51.21875 29.5625 51.609375 30.109375Q52.0 30.65625 52.15625 31.40625Q52.25 31.90625 52.25 33.125L52.25 39.5L50.484375 39.5L50.484375 33.1875Q50.484375 32.109375 50.28125 31.578125Q50.078125 31.046875 49.546875 30.734375Q49.03125 30.421875 48.328125 30.421875Q47.203125 30.421875 46.390625 31.140625Q45.578125 31.84375 45.578125 33.828125L45.578125 39.5L43.8125 39.5ZM60.546875 39.5L60.546875 38.1875Q59.5625 39.734375 57.640625 39.734375Q56.40625 39.734375 55.359375 39.046875Q54.328125 38.359375 53.75 37.140625Q53.1875 35.921875 53.1875 34.328125Q53.1875 32.765625 53.703125 31.5Q54.21875 30.234375 55.25 29.5625Q56.296875 28.890625 57.5625 28.890625Q58.5 28.890625 59.234375 29.296875Q59.96875 29.6875 60.4375 30.3125L60.4375 25.1875L62.171875 25.1875L62.171875 39.5L60.546875 39.5ZM54.984375 34.328125Q54.984375 36.3125 55.828125 37.296875Q56.671875 38.28125 57.8125 38.28125Q58.96875 38.28125 59.765625 37.34375Q60.578125 36.40625 60.578125 34.46875Q60.578125 32.34375 59.75 31.34375Q58.9375 30.34375 57.734375 30.34375Q56.5625 30.34375 55.765625 31.3125Q54.984375 32.265625 54.984375 34.328125ZM64.828125 27.203125L64.828125 25.1875L66.59375 25.1875L66.59375 27.203125L64.828125 27.203125ZM64.828125 39.5L64.828125 29.125L66.59375 29.125L66.59375 39.5L64.828125 39.5ZM68.8125 39.5L68.8125 29.125L70.40625 29.125L70.40625 30.609375Q71.546875 28.890625 73.703125 28.890625Q74.640625 28.890625 75.421875 29.234375Q76.21875 29.5625 76.609375 30.109375Q77.0 30.65625 77.15625 31.40625Q77.25 31.90625 77.25 33.125L77.25 39.5L75.484375 39.5L75.484375 33.1875Q75.484375 32.109375 75.28125 31.578125Q75.078125 31.046875 74.546875 30.734375Q74.03125 30.421875 73.328125 30.421875Q72.203125 30.421875 71.390625 31.140625Q70.578125 31.84375 70.578125 33.828125L70.578125 39.5L68.8125 39.5ZM78.5 40.359375L80.203125 40.609375Q80.3125 41.40625 80.796875 41.765625Q81.453125 42.25 82.59375 42.25Q83.8125 42.25 84.46875 41.765625Q85.140625 41.28125 85.375 40.40625Q85.515625 39.859375 85.5 38.140625Q84.34375 39.5 82.625 39.5Q80.484375 39.5 79.3125 37.953125Q78.140625 36.40625 78.140625 34.25Q78.140625 32.765625 78.671875 31.515625Q79.21875 30.265625 80.234375 29.578125Q81.265625 28.890625 82.640625 28.890625Q84.46875 28.890625 85.671875 30.375L85.671875 29.125L87.28125 29.125L87.28125 38.09375Q87.28125 40.515625 86.78125 41.515625Q86.296875 42.53125 85.21875 43.109375Q84.15625 43.703125 82.59375 43.703125Q80.75 43.703125 79.59375 42.875Q78.453125 42.046875 78.5 40.359375ZM79.953125 34.125Q79.953125 36.171875 80.765625 37.109375Q81.578125 38.046875 82.796875 38.046875Q84.0 38.046875 84.8125 37.109375Q85.640625 36.171875 85.640625 34.1875Q85.640625 32.28125 84.796875 31.3125Q83.953125 30.34375 82.765625 30.34375Q81.59375 30.34375 80.765625 31.296875Q79.953125 32.25 79.953125 34.125ZM95.984375 39.5L95.984375 25.1875L98.84375 25.1875L102.21875 35.3125Q102.6875 36.734375 102.90625 37.4375Q103.15625 36.65625 103.671875 35.140625L107.09375 25.1875L109.640625 25.1875L109.640625 39.5L107.828125 39.5L107.828125 27.515625L103.65625 39.5L101.953125 39.5L97.8125 27.3125L97.8125 39.5L95.984375 39.5ZM119.921875 36.15625L121.734375 36.390625Q121.3125 37.96875 120.140625 38.859375Q118.984375 39.734375 117.171875 39.734375Q114.90625 39.734375 113.5625 38.34375Q112.234375 36.9375 112.234375 34.40625Q112.234375 31.78125 113.578125 30.34375Q114.921875 28.890625 117.078125 28.890625Q119.15625 28.890625 120.46875 30.3125Q121.796875 31.71875 121.796875 34.296875Q121.796875 34.453125 121.78125 34.765625L114.046875 34.765625Q114.140625 36.46875 115.015625 37.375Q115.890625 38.28125 117.1875 38.28125Q118.15625 38.28125 118.828125 37.78125Q119.515625 37.265625 119.921875 36.15625ZM114.140625 33.3125L119.9375 33.3125Q119.828125 32.015625 119.28125 31.359375Q118.4375 30.34375 117.09375 30.34375Q115.890625 30.34375 115.0625 31.15625Q114.234375 31.953125 114.140625 33.3125ZM127.65625 37.921875L127.90625 39.484375Q127.171875 39.640625 126.578125 39.640625Q125.625 39.640625 125.09375 39.34375Q124.578125 39.03125 124.359375 38.546875Q124.140625 38.046875 124.140625 36.46875L124.140625 30.5L122.859375 30.5L122.859375 29.125L124.140625 29.125L124.140625 26.5625L125.890625 25.5L125.890625 29.125L127.65625 29.125L127.65625 30.5L125.890625 30.5L125.890625 36.5625Q125.890625 37.3125 125.984375 37.53125Q126.078125 37.734375 126.28125 37.875Q126.5 38.0 126.890625 38.0Q127.171875 38.0 127.65625 37.921875ZM129.79688 39.5L129.79688 29.125L131.375 29.125L131.375 30.703125Q131.98438 29.59375 132.5 29.25Q133.01562 28.890625 133.625 28.890625Q134.51562 28.890625 135.4375 29.453125L134.82812 31.09375Q134.1875 30.703125 133.54688 30.703125Q132.96875 30.703125 132.5 31.0625Q132.04688 31.40625 131.84375 32.015625Q131.5625 32.953125 131.5625 34.0625L131.5625 39.5L129.79688 39.5ZM136.82812 27.203125L136.82812 25.1875L138.59375 25.1875L138.59375 27.203125L136.82812 27.203125ZM136.82812 39.5L136.82812 29.125L138.59375 29.125L138.59375 39.5L136.82812 39.5ZM147.59375 35.703125L149.3125 35.921875Q149.03125 37.71875 147.85938 38.734375Q146.70312 39.734375 145.0 39.734375Q142.875 39.734375 141.57812 38.34375Q140.28125 36.953125 140.28125 34.359375Q140.28125 32.671875 140.82812 31.421875Q141.39062 30.15625 142.53125 29.53125Q143.67188 28.890625 145.01562 28.890625Q146.70312 28.890625 147.76562 29.75Q148.84375 30.609375 149.15625 32.171875L147.4375 32.4375Q147.20312 31.390625 146.57812 30.875Q145.95312 30.34375 145.07812 30.34375Q143.75 30.34375 142.92188 31.296875Q142.09375 32.25 142.09375 34.296875Q142.09375 36.390625 142.89062 37.34375Q143.6875 38.28125 144.98438 38.28125Q146.01562 38.28125 146.70312 37.65625Q147.40625 37.015625 147.59375 35.703125ZM150.10938 36.40625L151.85938 36.125Q152.0 37.171875 152.67188 37.734375Q153.34375 38.28125 154.54688 38.28125Q155.75 38.28125 156.32812 37.796875Q156.92188 37.296875 156.92188 36.640625Q156.92188 36.046875 156.40625 35.703125Q156.04688 35.46875 154.60938 35.109375Q152.67188 34.609375 151.92188 34.265625Q151.1875 33.90625 150.79688 33.28125Q150.40625 32.640625 150.40625 31.875Q150.40625 31.1875 150.71875 30.59375Q151.04688 30.0 151.59375 29.609375Q152.0 29.3125 152.70312 29.109375Q153.42188 28.890625 154.23438 28.890625Q155.45312 28.890625 156.375 29.25Q157.29688 29.59375 157.73438 30.203125Q158.17188 30.796875 158.34375 31.796875L156.625 32.03125Q156.5 31.234375 155.9375 30.796875Q155.375 30.34375 154.35938 30.34375Q153.14062 30.34375 152.625 30.75Q152.10938 31.140625 152.10938 31.671875Q152.10938 32.015625 152.32812 32.296875Q152.53125 32.578125 153.0 32.765625Q153.26562 32.859375 154.54688 33.203125Q156.42188 33.703125 157.15625 34.03125Q157.89062 34.34375 158.3125 34.953125Q158.73438 35.546875 158.73438 36.453125Q158.73438 37.328125 158.21875 38.109375Q157.70312 38.890625 156.73438 39.3125Q155.76562 39.734375 154.54688 39.734375Q152.53125 39.734375 151.46875 38.890625Q150.40625 38.046875 150.10938 36.40625Z" fill-rule="nonzero"/></svg>