<svg version="1.1" viewBox="0.0 0.0 665.0 410.0" fill="none" stroke="none" stroke-linecap="square" stroke-miterlimit="10" width="665" height="410" xmlns:xlink="http://www.w3.org/1999/xlink" xmlns="http://www.w3.org/2000/svg"><path fill="#ffffff" d="M0 0L665.0 0L665.0 410.0L0 410.0L0 0Z" fill-rule="nonzero"/><path stroke="#333333" stroke-width="1.0" stroke-linecap="butt" d="M47.5 369.5L644.5 369.5" fill-rule="nonzero"/><path stroke="#cccccc" stroke-width="1.0" stroke-linecap="butt" d="M47.5 300.5L644.5 300.5" fill-rule="nonzero"/><path stroke="#cccccc" stroke-width="1.0" stroke-linecap="butt" d="M47.5 232.5L644.5 232.5" fill-rule="nonzero"/><path stroke="#cccccc" stroke-width="1.0" stroke-linecap="butt" d="M47.5 163.5L644.5 163.5" fill-rule="nonzero"/><path stroke="#cccccc" stroke-width="1.0" stroke-linecap="butt" d="M47.5 94.5L644.5 94.5" fill-rule="nonzero"/><clipPath id="id_0"><path d="M47.5 94.833336L644.5 94.833336L644.5 369.5L47.5 369.5L47.5 94.833336Z" clip-rule="nonzero"/></clipPath><path stroke="#000000" stroke-width="2.0" stroke-linecap="butt" stroke-opacity="0.0" clip-path="url(#id_0)" d="M139.0 370.0L96.0 370.0L96.0 259.0C96.0 257.89542 96.89543 257.0 98.0 257.0L137.0 257.0C138.10457 257.0 139.0 257.89542 139.0 259.0Z" fill-rule="nonzero"/><path fill="#f6b26b" clip-path="url(#id_0)" d="M139.0 370.0L96.0 370.0L96.0 259.0C96.0 257.89542 96.89543 257.0 98.0 257.0L137.0 257.0C138.10457 257.0 139.0 257.89542 139.0 259.0Z" fill-rule="nonzero"/><path stroke="#000000" stroke-width="2.0" stroke-linecap="butt" stroke-opacity="0.0" clip-path="url(#id_0)" d="M276.0 370.0L233.0 370.0L233.0 133.0C233.0 131.89543 233.89543 131.0 235.0 131.0L274.0 131.0C275.10458 131.0 276.0 131.89543 276.0 133.0Z" fill-rule="nonzero"/><path fill="#f6b26b" clip-path="url(#id_0)" d="M276.0 370.0L233.0 370.0L233.0 133.0C233.0 131.89543 233.89543 131.0 235.0 131.0L274.0 131.0C275.10458 131.0 276.0 131.89543 276.0 133.0Z" fill-rule="nonzero"/><path stroke="#000000" stroke-width="2.0" stroke-linecap="butt" stroke-opacity="0.0" clip-path="url(#id_0)" d="M414.0 370.0L371.0 370.0L371.0 119.0C371.0 117.89543 371.89542 117.0 373.0 117.0L412.0 117.0C413.10458 117.0 414.0 117.89543 414.0 119.0Z" fill-rule="nonzero"/><path fill="#f6b26b" clip-path="url(#id_0)" d="M414.0 370.0L371.0 370.0L371.0 119.0C371.0 117.89543 371.89542 117.0 373.0 117.0L412.0 117.0C413.10458 117.0 414.0 117.89543 414.0 119.0Z" fill-rule="nonzero"/><path stroke="#000000" stroke-width="2.0" stroke-linecap="butt" stroke-opacity="0.0" clip-path="url(#id_0)" d="M551.0 370.0L508.0 370.0L508.0 119.0C508.0 117.89543 508.89542 117.0 510.0 117.0L549.0 117.0C550.10455 117.0 551.0 117.89543 551.0 119.0Z" fill-rule="nonzero"/><path fill="#f6b26b" clip-path="url(#id_0)" d="M551.0 370.0L508.0 370.0L508.0 119.0C508.0 117.89543 508.89542 117.0 510.0 117.0L549.0 117.0C550.10455 117.0 551.0 117.89543 551.0 119.0Z" fill-rule="nonzero"/><path stroke="#000000" stroke-width="2.0" stroke-linecap="butt" stroke-opacity="0.0" clip-path="url(#id_0)" d="M184.0 370.0L141.0 370.0L141.0 133.0C141.0 131.89543 141.89543 131.0 143.0 131.0L182.0 131.0C183.10457 131.0 184.0 131.89543 184.0 133.0Z" fill-rule="nonzero"/><path fill="#3c78d8" clip-path="url(#id_0)" d="M184.0 370.0L141.0 370.0L141.0 133.0C141.0 131.89543 141.89543 131.0 143.0 131.0L182.0 131.0C183.10457 131.0 184.0 131.89543 184.0 133.0Z" fill-rule="nonzero"/><path stroke="#000000" stroke-width="2.0" stroke-linecap="butt" stroke-opacity="0.0" clip-path="url(#id_0)" d="M321.0 370.0L278.0 370.0L278.0 105.0C278.0 103.89543 278.89542 103.0 280.0 103.0L319.0 103.0C320.10458 103.0 321.0 103.89543 321.0 105.0Z" fill-rule="nonzero"/><path fill="#3c78d8" clip-path="url(#id_0)" d="M321.0 370.0L278.0 370.0L278.0 105.0C278.0 103.89543 278.89542 103.0 280.0 103.0L319.0 103.0C320.10458 103.0 321.0 103.89543 321.0 105.0Z" fill-rule="nonzero"/><path stroke="#000000" stroke-width="2.0" stroke-linecap="butt" stroke-opacity="0.0" clip-path="url(#id_0)" d="M459.0 370.0L416.0 370.0L416.0 97.0C416.0 95.89543 416.89542 95.0 418.0 95.0L457.0 95.0C458.10458 95.0 459.0 95.89543 459.0 97.0Z" fill-rule="nonzero"/><path fill="#3c78d8" clip-path="url(#id_0)" d="M459.0 370.0L416.0 370.0L416.0 97.0C416.0 95.89543 416.89542 95.0 418.0 95.0L457.0 95.0C458.10458 95.0 459.0 95.89543 459.0 97.0Z" fill-rule="nonzero"/><path stroke="#000000" stroke-width="2.0" stroke-linecap="butt" stroke-opacity="0.0" clip-path="url(#id_0)" d="M596.0 370.0L553.0 370.0L553.0 119.0C553.0 117.89543 553.89545 117.0 555.0 117.0L594.0 117.0C595.10455 117.0 596.0 117.89543 596.0 119.0Z" fill-rule="nonzero"/><path fill="#3c78d8" clip-path="url(#id_0)" d="M596.0 370.0L553.0 370.0L553.0 119.0C553.0 117.89543 553.89545 117.0 555.0 117.0L594.0 117.0C595.10455 117.0 596.0 117.89543 596.0 119.0Z" fill-rule="nonzero"/><path fill="#999999" d="M35.0 369.26562Q35.0 367.73438 35.3125 366.8125Q35.625 365.875 36.234375 365.375Q36.859375 364.875 37.796875 364.875Q38.484375 364.875 39.0 365.15625Q39.53125 365.4375 39.875 365.96875Q40.21875 366.48438 40.40625 367.23438Q40.59375 367.98438 40.59375 369.26562Q40.59375 370.78125 40.28125 371.70312Q39.984375 372.625 39.359375 373.14062Q38.75 373.64062 37.796875 373.64062Q36.5625 373.64062 35.84375 372.75Q35.0 371.6875 35.0 369.26562ZM36.078125 369.26562Q36.078125 371.375 36.578125 372.07812Q37.078125 372.78125 37.796875 372.78125Q38.53125 372.78125 39.015625 372.07812Q39.515625 371.375 39.515625 369.26562Q39.515625 367.14062 39.015625 366.45312Q38.53125 365.75 37.78125 365.75Q37.0625 365.75 36.625 366.35938Q36.078125 367.14062 36.078125 369.26562Z" fill-rule="nonzero"/><path fill="#999999" d="M33.546875 303.81772L33.546875 304.83334L27.859375 304.83334Q27.859375 304.45834 27.984375 304.09897Q28.203125 303.52084 28.671875 302.95834Q29.15625 302.39584 30.0625 301.66147Q31.46875 300.50522 31.953125 299.83334Q32.453125 299.16147 32.453125 298.56772Q32.453125 297.94272 32.0 297.52084Q31.546875 297.08334 30.828125 297.08334Q30.0625 297.08334 29.609375 297.53647Q29.15625 297.9896 29.140625 298.8021L28.0625 298.69272Q28.171875 297.47397 28.890625 296.84897Q29.625 296.20834 30.859375 296.20834Q32.09375 296.20834 32.8125 296.89584Q33.53125 297.58334 33.53125 298.59897Q33.53125 299.1146 33.3125 299.6146Q33.109375 300.09897 32.609375 300.66147Q32.125 301.20834 31.0 302.16147Q30.046875 302.95834 29.765625 303.25522Q29.5 303.53647 29.328125 303.81772L33.546875 303.81772ZM35.0 302.58334L36.109375 302.4896Q36.234375 303.3021 36.671875 303.70834Q37.125 304.1146 37.765625 304.1146Q38.515625 304.1146 39.046875 303.53647Q39.578125 302.95834 39.578125 302.02084Q39.578125 301.1146 39.0625 300.59897Q38.5625 300.06772 37.734375 300.06772Q37.234375 300.06772 36.8125 300.3021Q36.40625 300.53647 36.171875 300.89584L35.1875 300.77084L36.015625 296.3646L40.296875 296.3646L40.296875 297.3646L36.859375 297.3646L36.40625 299.6771Q37.171875 299.13022 38.015625 299.13022Q39.140625 299.13022 39.90625 299.91147Q40.6875 300.69272 40.6875 301.9271Q40.6875 303.08334 40.015625 303.94272Q39.1875 304.97397 37.765625 304.97397Q36.59375 304.97397 35.84375 304.31772Q35.109375 303.66147 35.0 302.58334Z" fill-rule="nonzero"/><path fill="#999999" d="M28.0 233.91667L29.109375 233.82292Q29.234375 234.63542 29.671875 235.04167Q30.125 235.44792 30.765625 235.44792Q31.515625 235.44792 32.046875 234.8698Q32.578125 234.29167 32.578125 233.35417Q32.578125 232.44792 32.0625 231.9323Q31.5625 231.40105 30.734375 231.40105Q30.234375 231.40105 29.8125 231.63542Q29.40625 231.8698 29.171875 232.22917L28.1875 232.10417L29.015625 227.69792L33.296875 227.69792L33.296875 228.69792L29.859375 228.69792L29.40625 231.01042Q30.171875 230.46355 31.015625 230.46355Q32.140625 230.46355 32.90625 231.2448Q33.6875 232.02605 33.6875 233.26042Q33.6875 234.41667 33.015625 235.27605Q32.1875 236.3073 30.765625 236.3073Q29.59375 236.3073 28.84375 235.65105Q28.109375 234.9948 28.0 233.91667ZM35.0 231.9323Q35.0 230.40105 35.3125 229.47917Q35.625 228.54167 36.234375 228.04167Q36.859375 227.54167 37.796875 227.54167Q38.484375 227.54167 39.0 227.82292Q39.53125 228.10417 39.875 228.63542Q40.21875 229.15105 40.40625 229.90105Q40.59375 230.65105 40.59375 231.9323Q40.59375 233.44792 40.28125 234.3698Q39.984375 235.29167 39.359375 235.8073Q38.75 236.3073 37.796875 236.3073Q36.5625 236.3073 35.84375 235.41667Q35.0 234.35417 35.0 231.9323ZM36.078125 231.9323Q36.078125 234.04167 36.578125 234.7448Q37.078125 235.44792 37.796875 235.44792Q38.53125 235.44792 39.015625 234.7448Q39.515625 234.04167 39.515625 231.9323Q39.515625 229.8073 39.015625 229.1198Q38.53125 228.41667 37.78125 228.41667Q37.0625 228.41667 36.625 229.02605Q36.078125 229.8073 36.078125 231.9323Z" fill-rule="nonzero"/><path fill="#999999" d="M28.0625 160.03125L28.0625 159.01562L33.625 159.01562L33.625 159.84375Q32.8125 160.71875 32.0 162.17188Q31.203125 163.60938 30.765625 165.14062Q30.4375 166.21875 30.359375 167.5L29.265625 167.5Q29.28125 166.48438 29.65625 165.04688Q30.046875 163.60938 30.75 162.28125Q31.46875 160.95312 32.28125 160.03125L28.0625 160.03125ZM35.0 165.25L36.109375 165.15625Q36.234375 165.96875 36.671875 166.375Q37.125 166.78125 37.765625 166.78125Q38.515625 166.78125 39.046875 166.20312Q39.578125 165.625 39.578125 164.6875Q39.578125 163.78125 39.0625 163.26562Q38.5625 162.73438 37.734375 162.73438Q37.234375 162.73438 36.8125 162.96875Q36.40625 163.20312 36.171875 163.5625L35.1875 163.4375L36.015625 159.03125L40.296875 159.03125L40.296875 160.03125L36.859375 160.03125L36.40625 162.34375Q37.171875 161.79688 38.015625 161.79688Q39.140625 161.79688 39.90625 162.57812Q40.6875 163.35938 40.6875 164.59375Q40.6875 165.75 40.015625 166.60938Q39.1875 167.64062 37.765625 167.64062Q36.59375 167.64062 35.84375 166.98438Q35.109375 166.32812 35.0 165.25Z" fill-rule="nonzero"/><path fill="#999999" d="M24.96875 98.833336L23.921875 98.833336L23.921875 92.114586Q23.53125 92.47396 22.90625 92.84896Q22.296875 93.208336 21.8125 93.38021L21.8125 92.364586Q22.6875 91.94271 23.34375 91.364586Q24.015625 90.770836 24.296875 90.208336L24.96875 90.208336L24.96875 98.833336ZM28.0 94.59896Q28.0 93.06771 28.3125 92.145836Q28.625 91.208336 29.234375 90.708336Q29.859375 90.208336 30.796875 90.208336Q31.484375 90.208336 32.0 90.489586Q32.53125 90.770836 32.875 91.302086Q33.21875 91.81771 33.40625 92.56771Q33.59375 93.31771 33.59375 94.59896Q33.59375 96.114586 33.28125 97.03646Q32.984375 97.958336 32.359375 98.47396Q31.75 98.97396 30.796875 98.97396Q29.5625 98.97396 28.84375 98.083336Q28.0 97.020836 28.0 94.59896ZM29.078125 94.59896Q29.078125 96.708336 29.578125 97.41146Q30.078125 98.114586 30.796875 98.114586Q31.53125 98.114586 32.015625 97.41146Q32.515625 96.708336 32.515625 94.59896Q32.515625 92.47396 32.015625 91.78646Q31.53125 91.083336 30.78125 91.083336Q30.0625 91.083336 29.625 91.69271Q29.078125 92.47396 29.078125 94.59896ZM35.0 94.59896Q35.0 93.06771 35.3125 92.145836Q35.625 91.208336 36.234375 90.708336Q36.859375 90.208336 37.796875 90.208336Q38.484375 90.208336 39.0 90.489586Q39.53125 90.770836 39.875 91.302086Q40.21875 91.81771 40.40625 92.56771Q40.59375 93.31771 40.59375 94.59896Q40.59375 96.114586 40.28125 97.03646Q39.984375 97.958336 39.359375 98.47396Q38.75 98.97396 37.796875 98.97396Q36.5625 98.97396 35.84375 98.083336Q35.0 97.020836 35.0 94.59896ZM36.078125 94.59896Q36.078125 96.708336 36.578125 97.41146Q37.078125 98.114586 37.796875 98.114586Q38.53125 98.114586 39.015625 97.41146Q39.515625 96.708336 39.515625 94.59896Q39.515625 92.47396 39.015625 91.78646Q38.53125 91.083336 37.78125 91.083336Q37.0625 91.083336 36.625 91.69271Q36.078125 92.47396 36.078125 94.59896Z" fill-rule="nonzero"/><path fill="#666666" d="M105.55981 386.5L105.55981 377.90625L108.80981 377.90625Q109.65356 377.90625 110.10668 377.98438Q110.74731 378.09375 111.16918 378.39062Q111.60668 378.6875 111.85668 379.21875Q112.12231 379.75 112.12231 380.39062Q112.12231 381.48438 111.41918 382.25Q110.73168 383.0 108.90356 383.0L106.70043 383.0L106.70043 386.5L105.55981 386.5ZM106.70043 382.0L108.91918 382.0Q110.02856 382.0 110.48168 381.59375Q110.95043 381.17188 110.95043 380.42188Q110.95043 379.89062 110.66918 379.51562Q110.40356 379.125 109.96606 379.0Q109.66918 378.92188 108.90356 378.92188L106.70043 378.92188L106.70043 382.0ZM117.68481 384.5L118.77856 384.625Q118.52856 385.57812 117.82543 386.10938Q117.12231 386.64062 116.04418 386.64062Q114.68481 386.64062 113.87231 385.79688Q113.07543 384.95312 113.07543 383.4375Q113.07543 381.875 113.88793 381.01562Q114.70043 380.14062 115.98168 380.14062Q117.23168 380.14062 118.01293 380.98438Q118.80981 381.82812 118.80981 383.375Q118.80981 383.46875 118.80981 383.65625L114.16918 383.65625Q114.23168 384.6875 114.74731 385.23438Q115.26293 385.76562 116.04418 385.76562Q116.62231 385.76562 117.02856 385.46875Q117.45043 385.15625 117.68481 384.5ZM114.23168 382.79688L117.70043 382.79688Q117.63793 382.0 117.30981 381.60938Q116.79418 381.0 115.99731 381.0Q115.26293 381.0 114.76293 381.48438Q114.27856 381.96875 114.23168 382.79688ZM120.41918 386.5L120.41918 380.28125L121.37231 380.28125L121.37231 381.21875Q121.73168 380.5625 122.02856 380.35938Q122.34106 380.14062 122.71606 380.14062Q123.24731 380.14062 123.79418 380.46875L123.43481 381.45312Q123.04418 381.21875 122.66918 381.21875Q122.30981 381.21875 122.02856 381.4375Q121.76293 381.64062 121.65356 382.01562Q121.46606 382.57812 121.46606 383.23438L121.46606 386.5L120.41918 386.5ZM124.68481 386.5L124.68481 381.09375L123.74731 381.09375L123.74731 380.28125L124.68481 380.28125L124.68481 379.60938Q124.68481 378.98438 124.79418 378.6875Q124.95043 378.26562 125.32543 378.01562Q125.71606 377.76562 126.40356 377.76562Q126.85668 377.76562 127.38793 377.875L127.23168 378.78125Q126.90356 378.73438 126.60668 378.73438Q126.12231 378.73438 125.91918 378.9375Q125.73168 379.14062 125.73168 379.70312L125.73168 380.28125L126.95043 380.28125L126.95043 381.09375L125.73168 381.09375L125.73168 386.5L124.68481 386.5ZM127.04418 383.39062Q127.04418 381.65625 127.99731 380.82812Q128.79419 380.14062 129.95044 380.14062Q131.23169 380.14062 132.04419 380.98438Q132.87231 381.8125 132.87231 383.29688Q132.87231 384.5 132.51294 385.1875Q132.15356 385.875 131.45044 386.26562Q130.76294 386.64062 129.95044 386.64062Q128.65356 386.64062 127.84106 385.8125Q127.04418 384.96875 127.04418 383.39062ZM128.12231 383.39062Q128.12231 384.57812 128.63794 385.17188Q129.16919 385.76562 129.95044 385.76562Q130.74731 385.76562 131.26294 385.17188Q131.77856 384.57812 131.77856 383.35938Q131.77856 382.20312 131.24731 381.60938Q130.73169 381.01562 129.95044 381.01562Q129.16919 381.01562 128.63794 381.60938Q128.12231 382.1875 128.12231 383.39062ZM134.41919 386.5L134.41919 380.28125L135.37231 380.28125L135.37231 381.21875Q135.73169 380.5625 136.02856 380.35938Q136.34106 380.14062 136.71606 380.14062Q137.24731 380.14062 137.79419 380.46875L137.43481 381.45312Q137.04419 381.21875 136.66919 381.21875Q136.30981 381.21875 136.02856 381.4375Q135.76294 381.64062 135.65356 382.01562Q135.46606 382.57812 135.46606 383.23438L135.46606 386.5L134.41919 386.5ZM138.43481 386.5L138.43481 380.28125L139.37231 380.28125L139.37231 381.15625Q139.66919 380.6875 140.15356 380.42188Q140.63794 380.14062 141.26294 380.14062Q141.95044 380.14062 142.38794 380.42188Q142.84106 380.70312 143.01294 381.21875Q143.76294 380.14062 144.93481 380.14062Q145.87231 380.14062 146.35669 380.65625Q146.85669 381.15625 146.85669 382.23438L146.85669 386.5L145.80981 386.5L145.80981 382.57812Q145.80981 381.95312 145.70044 381.67188Q145.60669 381.39062 145.34106 381.21875Q145.07544 381.04688 144.70044 381.04688Q144.04419 381.04688 143.60669 381.48438Q143.18481 381.92188 143.18481 382.89062L143.18481 386.5L142.12231 386.5L142.12231 382.45312Q142.12231 381.75 141.85669 381.40625Q141.60669 381.04688 141.02856 381.04688Q140.57544 381.04688 140.20044 381.28125Q139.82544 381.51562 139.65356 381.96875Q139.48169 382.42188 139.48169 383.26562L139.48169 386.5L138.43481 386.5ZM153.49731 385.73438Q152.90356 386.23438 152.35669 386.4375Q151.82544 386.64062 151.20044 386.64062Q150.16919 386.64062 149.62231 386.14062Q149.07544 385.64062 149.07544 384.85938Q149.07544 384.40625 149.27856 384.03125Q149.48169 383.64062 149.82544 383.42188Q150.16919 383.1875 150.59106 383.07812Q150.88794 382.98438 151.52856 382.90625Q152.79419 382.76562 153.40356 382.54688Q153.40356 382.32812 153.40356 382.28125Q153.40356 381.625 153.10669 381.35938Q152.70044 381.01562 151.90356 381.01562Q151.16919 381.01562 150.80981 381.28125Q150.45044 381.53125 150.27856 382.1875L149.24731 382.04688Q149.38794 381.39062 149.71606 380.98438Q150.04419 380.57812 150.65356 380.35938Q151.26294 380.14062 152.05981 380.14062Q152.85669 380.14062 153.35669 380.32812Q153.85669 380.51562 154.09106 380.79688Q154.32544 381.07812 154.41919 381.51562Q154.46606 381.78125 154.46606 382.48438L154.46606 383.89062Q154.46606 385.35938 154.52856 385.75Q154.60669 386.14062 154.80981 386.5L153.70044 386.5Q153.54419 386.17188 153.49731 385.73438ZM153.40356 383.375Q152.82544 383.60938 151.68481 383.78125Q151.02856 383.875 150.76294 384.0Q150.49731 384.10938 150.34106 384.32812Q150.20044 384.54688 150.20044 384.82812Q150.20044 385.25 150.51294 385.53125Q150.84106 385.8125 151.45044 385.8125Q152.05981 385.8125 152.52856 385.54688Q153.01294 385.28125 153.23169 384.8125Q153.40356 384.45312 153.40356 383.76562L153.40356 383.375ZM156.43481 386.5L156.43481 380.28125L157.37231 380.28125L157.37231 381.15625Q158.05981 380.14062 159.35669 380.14062Q159.91919 380.14062 160.38794 380.34375Q160.87231 380.54688 161.10669 380.875Q161.34106 381.20312 161.43481 381.64062Q161.48169 381.9375 161.48169 382.67188L161.48169 386.5L160.43481 386.5L160.43481 382.71875Q160.43481 382.0625 160.30981 381.75Q160.18481 381.4375 159.87231 381.25Q159.55981 381.04688 159.13794 381.04688Q158.46606 381.04688 157.96606 381.48438Q157.48169 381.90625 157.48169 383.09375L157.48169 386.5L156.43481 386.5ZM167.49731 384.21875L168.52856 384.35938Q168.35669 385.42188 167.65356 386.03125Q166.95044 386.64062 165.93481 386.64062Q164.65356 386.64062 163.87231 385.8125Q163.10669 384.96875 163.10669 383.40625Q163.10669 382.40625 163.43481 381.65625Q163.77856 380.89062 164.45044 380.51562Q165.13794 380.14062 165.95044 380.14062Q166.95044 380.14062 167.59106 380.65625Q168.24731 381.15625 168.43481 382.10938L167.40356 382.26562Q167.26294 381.64062 166.88794 381.32812Q166.51294 381.0 165.98169 381.0Q165.18481 381.0 164.68481 381.57812Q164.18481 382.14062 164.18481 383.375Q164.18481 384.64062 164.66919 385.20312Q165.15356 385.76562 165.91919 385.76562Q166.54419 385.76562 166.95044 385.39062Q167.37231 385.01562 167.49731 384.21875ZM173.68481 384.5L174.77856 384.625Q174.52856 385.57812 173.82544 386.10938Q173.12231 386.64062 172.04419 386.64062Q170.68481 386.64062 169.87231 385.79688Q169.07544 384.95312 169.07544 383.4375Q169.07544 381.875 169.88794 381.01562Q170.70044 380.14062 171.98169 380.14062Q173.23169 380.14062 174.01294 380.98438Q174.80981 381.82812 174.80981 383.375Q174.80981 383.46875 174.80981 383.65625L170.16919 383.65625Q170.23169 384.6875 170.74731 385.23438Q171.26294 385.76562 172.04419 385.76562Q172.62231 385.76562 173.02856 385.46875Q173.45044 385.15625 173.68481 384.5ZM170.23169 382.79688L173.70044 382.79688Q173.63794 382.0 173.30981 381.60938Q172.79419 381.0 171.99731 381.0Q171.26294 381.0 170.76294 381.48438Q170.27856 381.96875 170.23169 382.79688Z" fill-rule="nonzero"/><path fill="#666666" d="M243.86368 386.5L247.16055 377.90625L248.3793 377.90625L251.89493 386.5L250.61368 386.5L249.59805 383.89062L246.01993 383.89062L245.0668 386.5L243.86368 386.5ZM246.34805 382.96875L249.2543 382.96875L248.36368 380.59375Q247.9418 379.51562 247.7543 378.8125Q247.58243 379.64062 247.28555 380.45312L246.34805 382.96875ZM255.73868 384.21875L256.76993 384.35938Q256.59805 385.42188 255.89493 386.03125Q255.1918 386.64062 254.17618 386.64062Q252.89493 386.64062 252.11368 385.8125Q251.34805 384.96875 251.34805 383.40625Q251.34805 382.40625 251.67618 381.65625Q252.01993 380.89062 252.6918 380.51562Q253.3793 380.14062 254.1918 380.14062Q255.1918 380.14062 255.83243 380.65625Q256.48868 381.15625 256.67618 382.10938L255.64493 382.26562Q255.5043 381.64062 255.1293 381.32812Q254.7543 381.0 254.22305 381.0Q253.42618 381.0 252.92618 381.57812Q252.42618 382.14062 252.42618 383.375Q252.42618 384.64062 252.91055 385.20312Q253.39493 385.76562 254.16055 385.76562Q254.78555 385.76562 255.1918 385.39062Q255.61368 385.01562 255.73868 384.21875ZM261.73868 384.21875L262.76993 384.35938Q262.59805 385.42188 261.89493 386.03125Q261.1918 386.64062 260.17618 386.64062Q258.89493 386.64062 258.11368 385.8125Q257.34805 384.96875 257.34805 383.40625Q257.34805 382.40625 257.67618 381.65625Q258.01993 380.89062 258.6918 380.51562Q259.3793 380.14062 260.1918 380.14062Q261.1918 380.14062 261.83243 380.65625Q262.48868 381.15625 262.67618 382.10938L261.64493 382.26562Q261.5043 381.64062 261.1293 381.32812Q260.7543 381.0 260.22305 381.0Q259.42618 381.0 258.92618 381.57812Q258.42618 382.14062 258.42618 383.375Q258.42618 384.64062 258.91055 385.20312Q259.39493 385.76562 260.16055 385.76562Q260.78555 385.76562 261.1918 385.39062Q261.61368 385.01562 261.73868 384.21875ZM267.92618 384.5L269.01993 384.625Q268.76993 385.57812 268.0668 386.10938Q267.36368 386.64062 266.28555 386.64062Q264.92618 386.64062 264.11368 385.79688Q263.3168 384.95312 263.3168 383.4375Q263.3168 381.875 264.1293 381.01562Q264.9418 380.14062 266.22305 380.14062Q267.47305 380.14062 268.2543 380.98438Q269.05118 381.82812 269.05118 383.375Q269.05118 383.46875 269.05118 383.65625L264.41055 383.65625Q264.47305 384.6875 264.98868 385.23438Q265.5043 385.76562 266.28555 385.76562Q266.86368 385.76562 267.26993 385.46875Q267.6918 385.15625 267.92618 384.5ZM264.47305 382.79688L267.9418 382.79688Q267.8793 382.0 267.55118 381.60938Q267.03555 381.0 266.23868 381.0Q265.5043 381.0 265.0043 381.48438Q264.51993 381.96875 264.47305 382.79688ZM270.2543 384.64062L271.28555 384.48438Q271.3793 385.10938 271.76993 385.4375Q272.17618 385.76562 272.91055 385.76562Q273.6293 385.76562 273.97305 385.48438Q274.33243 385.1875 274.33243 384.78125Q274.33243 384.42188 274.01993 384.21875Q273.80118 384.07812 272.9418 383.85938Q271.78555 383.5625 271.33243 383.35938Q270.89493 383.14062 270.66055 382.76562Q270.42618 382.39062 270.42618 381.92188Q270.42618 381.51562 270.61368 381.15625Q270.80118 380.79688 271.1293 380.5625Q271.3793 380.39062 271.80118 380.26562Q272.22305 380.14062 272.72305 380.14062Q273.4418 380.14062 273.98868 380.35938Q274.55118 380.5625 274.8168 380.92188Q275.08243 381.28125 275.17618 381.875L274.14493 382.01562Q274.08243 381.54688 273.73868 381.28125Q273.41055 381.0 272.78555 381.0Q272.0668 381.0 271.7543 381.25Q271.4418 381.48438 271.4418 381.8125Q271.4418 382.01562 271.5668 382.17188Q271.70743 382.34375 271.97305 382.45312Q272.1293 382.51562 272.91055 382.71875Q274.03555 383.03125 274.47305 383.21875Q274.91055 383.40625 275.16055 383.76562Q275.41055 384.125 275.41055 384.67188Q275.41055 385.20312 275.09805 385.67188Q274.80118 386.125 274.22305 386.39062Q273.64493 386.64062 272.91055 386.64062Q271.6918 386.64062 271.05118 386.14062Q270.42618 385.625 270.2543 384.64062ZM277.2543 384.64062L278.28555 384.48438Q278.3793 385.10938 278.76993 385.4375Q279.17618 385.76562 279.91055 385.76562Q280.6293 385.76562 280.97305 385.48438Q281.33243 385.1875 281.33243 384.78125Q281.33243 384.42188 281.01993 384.21875Q280.80118 384.07812 279.9418 383.85938Q278.78555 383.5625 278.33243 383.35938Q277.89493 383.14062 277.66055 382.76562Q277.42618 382.39062 277.42618 381.92188Q277.42618 381.51562 277.61368 381.15625Q277.80118 380.79688 278.1293 380.5625Q278.3793 380.39062 278.80118 380.26562Q279.22305 380.14062 279.72305 380.14062Q280.4418 380.14062 280.98868 380.35938Q281.55118 380.5625 281.8168 380.92188Q282.08243 381.28125 282.17618 381.875L281.14493 382.01562Q281.08243 381.54688 280.73868 381.28125Q280.41055 381.0 279.78555 381.0Q279.0668 381.0 278.7543 381.25Q278.4418 381.48438 278.4418 381.8125Q278.4418 382.01562 278.5668 382.17188Q278.70743 382.34375 278.97305 382.45312Q279.1293 382.51562 279.91055 382.71875Q281.03555 383.03125 281.47305 383.21875Q281.91055 383.40625 282.16055 383.76562Q282.41055 384.125 282.41055 384.67188Q282.41055 385.20312 282.09805 385.67188Q281.80118 386.125 281.22305 386.39062Q280.64493 386.64062 279.91055 386.64062Q278.6918 386.64062 278.05118 386.14062Q277.42618 385.625 277.2543 384.64062ZM284.67618 379.125L284.67618 377.90625L285.73868 377.90625L285.73868 379.125L284.67618 379.125ZM284.67618 386.5L284.67618 380.28125L285.73868 380.28125L285.73868 386.5L284.67618 386.5ZM288.64493 386.5L287.66055 386.5L287.66055 377.90625L288.72305 377.90625L288.72305 380.96875Q289.39493 380.14062 290.42618 380.14062Q291.0043 380.14062 291.5043 380.375Q292.01993 380.59375 292.34805 381.01562Q292.6918 381.4375 292.8793 382.03125Q293.0668 382.625 293.0668 383.29688Q293.0668 384.89062 292.26993 385.76562Q291.47305 386.64062 290.3793 386.64062Q289.26993 386.64062 288.64493 385.71875L288.64493 386.5ZM288.6293 383.34375Q288.6293 384.45312 288.9418 384.95312Q289.4418 385.76562 290.28555 385.76562Q290.97305 385.76562 291.47305 385.17188Q291.98868 384.57812 291.98868 383.375Q291.98868 382.15625 291.5043 381.57812Q291.01993 381.0 290.33243 381.0Q289.64493 381.0 289.1293 381.60938Q288.6293 382.20312 288.6293 383.34375ZM294.67618 379.125L294.67618 377.90625L295.73868 377.90625L295.73868 379.125L294.67618 379.125ZM294.67618 386.5L294.67618 380.28125L295.73868 380.28125L295.73868 386.5L294.67618 386.5ZM297.64493 386.5L297.64493 377.90625L298.70743 377.90625L298.70743 386.5L297.64493 386.5ZM300.67618 379.125L300.67618 377.90625L301.73868 377.90625L301.73868 379.125L300.67618 379.125ZM300.67618 386.5L300.67618 380.28125L301.73868 380.28125L301.73868 386.5L300.67618 386.5ZM305.97305 385.5625L306.1293 386.48438Q305.67618 386.57812 305.33243 386.57812Q304.7543 386.57812 304.4418 386.40625Q304.1293 386.21875 303.98868 385.92188Q303.86368 385.625 303.86368 384.67188L303.86368 381.09375L303.09805 381.09375L303.09805 380.28125L303.86368 380.28125L303.86368 378.73438L304.91055 378.10938L304.91055 380.28125L305.97305 380.28125L305.97305 381.09375L304.91055 381.09375L304.91055 384.73438Q304.91055 385.1875 304.95743 385.3125Q305.01993 385.4375 305.14493 385.51562Q305.26993 385.59375 305.5043 385.59375Q305.6918 385.59375 305.97305 385.5625ZM306.6293 388.89062L306.5043 387.90625Q306.84805 388.0 307.11368 388.0Q307.45743 388.0 307.66055 387.875Q307.8793 387.76562 308.01993 387.5625Q308.11368 387.39062 308.34805 386.76562Q308.36368 386.6875 308.4418 386.51562L306.0668 380.28125L307.20743 380.28125L308.5043 383.875Q308.7543 384.5625 308.95743 385.32812Q309.14493 384.59375 309.39493 383.90625L310.72305 380.28125L311.76993 380.28125L309.41055 386.60938Q309.01993 387.625 308.8168 388.01562Q308.53555 388.54688 308.16055 388.78125Q307.80118 389.03125 307.30118 389.03125Q307.0043 389.03125 306.6293 388.89062Z" fill-rule="nonzero"/><path fill="#666666" d="M375.9957 386.5L375.9957 377.90625L379.23007 377.90625Q380.21445 377.90625 380.8082 378.17188Q381.40195 378.4375 381.73007 378.98438Q382.07382 379.51562 382.07382 380.10938Q382.07382 380.65625 381.77695 381.14062Q381.48007 381.625 380.8707 381.92188Q381.65195 382.15625 382.0582 382.71875Q382.48007 383.26562 382.48007 384.01562Q382.48007 384.60938 382.23007 385.14062Q381.98007 385.65625 381.60507 385.9375Q381.23007 386.21875 380.65195 386.35938Q380.08945 386.5 379.27695 386.5L375.9957 386.5ZM377.13632 381.51562L378.9957 381.51562Q379.7457 381.51562 380.07382 381.42188Q380.51132 381.29688 380.73007 381.0Q380.94882 380.6875 380.94882 380.23438Q380.94882 379.8125 380.7457 379.48438Q380.54257 379.15625 380.15195 379.04688Q379.77695 378.92188 378.85507 378.92188L377.13632 378.92188L377.13632 381.51562ZM377.13632 385.48438L379.27695 385.48438Q379.82382 385.48438 380.04257 385.4375Q380.44882 385.375 380.69882 385.21875Q380.96445 385.04688 381.13632 384.73438Q381.3082 384.42188 381.3082 384.01562Q381.3082 383.53125 381.0582 383.17188Q380.82382 382.8125 380.38632 382.67188Q379.94882 382.53125 379.1207 382.53125L377.13632 382.53125L377.13632 385.48438ZM388.16757 384.5L389.26132 384.625Q389.01132 385.57812 388.3082 386.10938Q387.60507 386.64062 386.52695 386.64062Q385.16757 386.64062 384.35507 385.79688Q383.5582 384.95312 383.5582 383.4375Q383.5582 381.875 384.3707 381.01562Q385.1832 380.14062 386.46445 380.14062Q387.71445 380.14062 388.4957 380.98438Q389.29257 381.82812 389.29257 383.375Q389.29257 383.46875 389.29257 383.65625L384.65195 383.65625Q384.71445 384.6875 385.23007 385.23438Q385.7457 385.76562 386.52695 385.76562Q387.10507 385.76562 387.51132 385.46875Q387.9332 385.15625 388.16757 384.5ZM384.71445 382.79688L388.1832 382.79688Q388.1207 382.0 387.79257 381.60938Q387.27695 381.0 386.48007 381.0Q385.7457 381.0 385.2457 381.48438Q384.76132 381.96875 384.71445 382.79688ZM390.4957 384.64062L391.52695 384.48438Q391.6207 385.10938 392.01132 385.4375Q392.41757 385.76562 393.15195 385.76562Q393.8707 385.76562 394.21445 385.48438Q394.57382 385.1875 394.57382 384.78125Q394.57382 384.42188 394.26132 384.21875Q394.04257 384.07812 393.1832 383.85938Q392.02695 383.5625 391.57382 383.35938Q391.13632 383.14062 390.90195 382.76562Q390.66757 382.39062 390.66757 381.92188Q390.66757 381.51562 390.85507 381.15625Q391.04257 380.79688 391.3707 380.5625Q391.6207 380.39062 392.04257 380.26562Q392.46445 380.14062 392.96445 380.14062Q393.6832 380.14062 394.23007 380.35938Q394.79257 380.5625 395.0582 380.92188Q395.32382 381.28125 395.41757 381.875L394.38632 382.01562Q394.32382 381.54688 393.98007 381.28125Q393.65195 381.0 393.02695 381.0Q392.3082 381.0 391.9957 381.25Q391.6832 381.48438 391.6832 381.8125Q391.6832 382.01562 391.8082 382.17188Q391.94882 382.34375 392.21445 382.45312Q392.3707 382.51562 393.15195 382.71875Q394.27695 383.03125 394.71445 383.21875Q395.15195 383.40625 395.40195 383.76562Q395.65195 384.125 395.65195 384.67188Q395.65195 385.20312 395.33945 385.67188Q395.04257 386.125 394.46445 386.39062Q393.88632 386.64062 393.15195 386.64062Q391.9332 386.64062 391.29257 386.14062Q390.66757 385.625 390.4957 384.64062ZM400.21445 385.5625L400.3707 386.48438Q399.91757 386.57812 399.57382 386.57812Q398.9957 386.57812 398.6832 386.40625Q398.3707 386.21875 398.23007 385.92188Q398.10507 385.625 398.10507 384.67188L398.10507 381.09375L397.33945 381.09375L397.33945 380.28125L398.10507 380.28125L398.10507 378.73438L399.15195 378.10938L399.15195 380.28125L400.21445 380.28125L400.21445 381.09375L399.15195 381.09375L399.15195 384.73438Q399.15195 385.1875 399.19882 385.3125Q399.26132 385.4375 399.38632 385.51562Q399.51132 385.59375 399.7457 385.59375Q399.9332 385.59375 400.21445 385.5625ZM404.04257 386.5L404.04257 377.90625L407.29257 377.90625Q408.13632 377.90625 408.58945 377.98438Q409.23007 378.09375 409.65195 378.39062Q410.08945 378.6875 410.33945 379.21875Q410.60507 379.75 410.60507 380.39062Q410.60507 381.48438 409.90195 382.25Q409.21445 383.0 407.38632 383.0L405.1832 383.0L405.1832 386.5L404.04257 386.5ZM405.1832 382.0L407.40195 382.0Q408.51132 382.0 408.96445 381.59375Q409.4332 381.17188 409.4332 380.42188Q409.4332 379.89062 409.15195 379.51562Q408.88632 379.125 408.44882 379.0Q408.15195 378.92188 407.38632 378.92188L405.1832 378.92188L405.1832 382.0ZM411.90195 386.5L411.90195 380.28125L412.85507 380.28125L412.85507 381.21875Q413.21445 380.5625 413.51132 380.35938Q413.82382 380.14062 414.19882 380.14062Q414.73007 380.14062 415.27695 380.46875L414.91757 381.45312Q414.52695 381.21875 414.15195 381.21875Q413.79257 381.21875 413.51132 381.4375Q413.2457 381.64062 413.13632 382.01562Q412.94882 382.57812 412.94882 383.23438L412.94882 386.5L411.90195 386.5ZM419.98007 385.73438Q419.38632 386.23438 418.83945 386.4375Q418.3082 386.64062 417.6832 386.64062Q416.65195 386.64062 416.10507 386.14062Q415.5582 385.64062 415.5582 384.85938Q415.5582 384.40625 415.76132 384.03125Q415.96445 383.64062 416.3082 383.42188Q416.65195 383.1875 417.07382 383.07812Q417.3707 382.98438 418.01132 382.90625Q419.27695 382.76562 419.88632 382.54688Q419.88632 382.32812 419.88632 382.28125Q419.88632 381.625 419.58945 381.35938Q419.1832 381.01562 418.38632 381.01562Q417.65195 381.01562 417.29257 381.28125Q416.9332 381.53125 416.76132 382.1875L415.73007 382.04688Q415.8707 381.39062 416.19882 380.98438Q416.52695 380.57812 417.13632 380.35938Q417.7457 380.14062 418.54257 380.14062Q419.33945 380.14062 419.83945 380.32812Q420.33945 380.51562 420.57382 380.79688Q420.8082 381.07812 420.90195 381.51562Q420.94882 381.78125 420.94882 382.48438L420.94882 383.89062Q420.94882 385.35938 421.01132 385.75Q421.08945 386.14062 421.29257 386.5L420.1832 386.5Q420.02695 386.17188 419.98007 385.73438ZM419.88632 383.375Q419.3082 383.60938 418.16757 383.78125Q417.51132 383.875 417.2457 384.0Q416.98007 384.10938 416.82382 384.32812Q416.6832 384.54688 416.6832 384.82812Q416.6832 385.25 416.9957 385.53125Q417.32382 385.8125 417.9332 385.8125Q418.54257 385.8125 419.01132 385.54688Q419.4957 385.28125 419.71445 384.8125Q419.88632 384.45312 419.88632 383.76562L419.88632 383.375ZM426.98007 384.21875L428.01132 384.35938Q427.83945 385.42188 427.13632 386.03125Q426.4332 386.64062 425.41757 386.64062Q424.13632 386.64062 423.35507 385.8125Q422.58945 384.96875 422.58945 383.40625Q422.58945 382.40625 422.91757 381.65625Q423.26132 380.89062 423.9332 380.51562Q424.6207 380.14062 425.4332 380.14062Q426.4332 380.14062 427.07382 380.65625Q427.73007 381.15625 427.91757 382.10938L426.88632 382.26562Q426.7457 381.64062 426.3707 381.32812Q425.9957 381.0 425.46445 381.0Q424.66757 381.0 424.16757 381.57812Q423.66757 382.14062 423.66757 383.375Q423.66757 384.64062 424.15195 385.20312Q424.63632 385.76562 425.40195 385.76562Q426.02695 385.76562 426.4332 385.39062Q426.85507 385.01562 426.98007 384.21875ZM431.21445 385.5625L431.3707 386.48438Q430.91757 386.57812 430.57382 386.57812Q429.9957 386.57812 429.6832 386.40625Q429.3707 386.21875 429.23007 385.92188Q429.10507 385.625 429.10507 384.67188L429.10507 381.09375L428.33945 381.09375L428.33945 380.28125L429.10507 380.28125L429.10507 378.73438L430.15195 378.10938L430.15195 380.28125L431.21445 380.28125L431.21445 381.09375L430.15195 381.09375L430.15195 384.73438Q430.15195 385.1875 430.19882 385.3125Q430.26132 385.4375 430.38632 385.51562Q430.51132 385.59375 430.7457 385.59375Q430.9332 385.59375 431.21445 385.5625ZM431.91757 379.125L431.91757 377.90625L432.98007 377.90625L432.98007 379.125L431.91757 379.125ZM431.91757 386.5L431.91757 380.28125L432.98007 380.28125L432.98007 386.5L431.91757 386.5ZM438.98007 384.21875L440.01132 384.35938Q439.83945 385.42188 439.13632 386.03125Q438.4332 386.64062 437.41757 386.64062Q436.13632 386.64062 435.35507 385.8125Q434.58945 384.96875 434.58945 383.40625Q434.58945 382.40625 434.91757 381.65625Q435.26132 380.89062 435.9332 380.51562Q436.6207 380.14062 437.4332 380.14062Q438.4332 380.14062 439.07382 380.65625Q439.73007 381.15625 439.91757 382.10938L438.88632 382.26562Q438.7457 381.64062 438.3707 381.32812Q437.9957 381.0 437.46445 381.0Q436.66757 381.0 436.16757 381.57812Q435.66757 382.14062 435.66757 383.375Q435.66757 384.64062 436.15195 385.20312Q436.63632 385.76562 437.40195 385.76562Q438.02695 385.76562 438.4332 385.39062Q438.85507 385.01562 438.98007 384.21875ZM445.16757 384.5L446.26132 384.625Q446.01132 385.57812 445.3082 386.10938Q444.60507 386.64062 443.52695 386.64062Q442.16757 386.64062 441.35507 385.79688Q440.5582 384.95312 440.5582 383.4375Q440.5582 381.875 441.3707 381.01562Q442.1832 380.14062 443.46445 380.14062Q444.71445 380.14062 445.4957 380.98438Q446.29257 381.82812 446.29257 383.375Q446.29257 383.46875 446.29257 383.65625L441.65195 383.65625Q441.71445 384.6875 442.23007 385.23438Q442.7457 385.76562 443.52695 385.76562Q444.10507 385.76562 444.51132 385.46875Q444.9332 385.15625 445.16757 384.5ZM441.71445 382.79688L445.1832 382.79688Q445.1207 382.0 444.79257 381.60938Q444.27695 381.0 443.48007 381.0Q442.7457 381.0 442.2457 381.48438Q441.76132 381.96875 441.71445 382.79688ZM447.4957 384.64062L448.52695 384.48438Q448.6207 385.10938 449.01132 385.4375Q449.41757 385.76562 450.15195 385.76562Q450.8707 385.76562 451.21445 385.48438Q451.57382 385.1875 451.57382 384.78125Q451.57382 384.42188 451.26132 384.21875Q451.04257 384.07812 450.1832 383.85938Q449.02695 383.5625 448.57382 383.35938Q448.13632 383.14062 447.90195 382.76562Q447.66757 382.39062 447.66757 381.92188Q447.66757 381.51562 447.85507 381.15625Q448.04257 380.79688 448.3707 380.5625Q448.6207 380.39062 449.04257 380.26562Q449.46445 380.14062 449.96445 380.14062Q450.6832 380.14062 451.23007 380.35938Q451.79257 380.5625 452.0582 380.92188Q452.32382 381.28125 452.41757 381.875L451.38632 382.01562Q451.32382 381.54688 450.98007 381.28125Q450.65195 381.0 450.02695 381.0Q449.3082 381.0 448.9957 381.25Q448.6832 381.48438 448.6832 381.8125Q448.6832 382.01562 448.8082 382.17188Q448.94882 382.34375 449.21445 382.45312Q449.3707 382.51562 450.15195 382.71875Q451.27695 383.03125 451.71445 383.21875Q452.15195 383.40625 452.40195 383.76562Q452.65195 384.125 452.65195 384.67188Q452.65195 385.20312 452.33945 385.67188Q452.04257 386.125 451.46445 386.39062Q450.88632 386.64062 450.15195 386.64062Q448.9332 386.64062 448.29257 386.14062Q447.66757 385.625 447.4957 384.64062Z" fill-rule="nonzero"/><path fill="#666666" d="M539.90894 383.73438L540.97144 383.64062Q541.04956 384.29688 541.3308 384.70312Q541.61206 385.10938 542.1902 385.375Q542.78394 385.625 543.5183 385.625Q544.15894 385.625 544.65894 385.4375Q545.15894 385.23438 545.3933 384.90625Q545.6433 384.5625 545.6433 384.17188Q545.6433 383.76562 545.40894 383.46875Q545.17456 383.15625 544.6433 382.95312Q544.28394 382.8125 543.09644 382.53125Q541.92456 382.25 541.4558 382.0Q540.8308 381.67188 540.53394 381.20312Q540.23706 380.71875 540.23706 380.125Q540.23706 379.48438 540.59644 378.92188Q540.97144 378.34375 541.67456 378.0625Q542.3933 377.76562 543.2527 377.76562Q544.2058 377.76562 544.9402 378.07812Q545.67456 378.375 546.0652 378.98438Q546.4558 379.57812 546.48706 380.32812L545.3933 380.40625Q545.29956 379.59375 544.78394 379.1875Q544.28394 378.76562 543.29956 378.76562Q542.2683 378.76562 541.79956 379.14062Q541.3308 379.51562 541.3308 380.04688Q541.3308 380.51562 541.65894 380.8125Q541.98706 381.10938 543.36206 381.42188Q544.7527 381.73438 545.2683 381.96875Q546.0183 382.32812 546.3777 382.85938Q546.73706 383.375 546.73706 384.07812Q546.73706 384.76562 546.34644 385.375Q545.9558 385.96875 545.22144 386.3125Q544.48706 386.64062 543.5652 386.64062Q542.3933 386.64062 541.59644 386.3125Q540.8152 385.96875 540.36206 385.28125Q539.92456 384.59375 539.90894 383.73438ZM548.3152 386.5L548.3152 377.90625L554.5183 377.90625L554.5183 378.92188L549.4558 378.92188L549.4558 381.54688L554.2058 381.54688L554.2058 382.5625L549.4558 382.5625L549.4558 385.48438L554.72144 385.48438L554.72144 386.5L548.3152 386.5ZM555.9402 382.3125Q555.9402 380.17188 557.0808 378.96875Q558.23706 377.75 560.04956 377.75Q561.2527 377.75 562.2058 378.32812Q563.15894 378.89062 563.65894 379.90625Q564.15894 380.92188 564.15894 382.21875Q564.15894 383.51562 563.6277 384.54688Q563.09644 385.57812 562.1277 386.10938Q561.17456 386.64062 560.04956 386.64062Q558.8308 386.64062 557.8777 386.0625Q556.92456 385.46875 556.42456 384.46875Q555.9402 383.45312 555.9402 382.3125ZM557.11206 382.32812Q557.11206 383.89062 557.9402 384.78125Q558.78394 385.67188 560.04956 385.67188Q561.3308 385.67188 562.15894 384.78125Q562.98706 383.875 562.98706 382.20312Q562.98706 381.15625 562.6277 380.375Q562.28394 379.59375 561.59644 379.17188Q560.90894 378.73438 560.0652 378.73438Q558.86206 378.73438 557.98706 379.5625Q557.11206 380.39062 557.11206 382.32812Z" fill-rule="nonzero"/><path fill="#f6b26b" d="M239.0 61.166668C239.0 60.614384 239.44771 60.166668 240.0 60.166668L250.0 60.166668C250.55229 60.166668 251.0 60.614384 251.0 61.166668L251.0 71.166664C251.0 71.71895 250.55229 72.166664 250.0 72.166664L240.0 72.166664C239.44771 72.166664 239.0 71.71895 239.0 71.166664Z" fill-rule="nonzero"/><path fill="#999999" d="M260.03125 71.166664L260.03125 61.15104L263.78125 61.15104Q264.9375 61.15104 265.625 61.46354Q266.32812 61.760414 266.71875 62.385414Q267.10938 63.010414 267.10938 63.71354Q267.10938 64.354164 266.75 64.916664Q266.40625 65.479164 265.70312 65.83854Q266.60938 66.104164 267.09375 66.74479Q267.59375 67.385414 267.59375 68.260414Q267.59375 68.96354 267.29688 69.572914Q267.0 70.18229 266.5625 70.510414Q266.125 70.83854 265.45312 71.010414Q264.79688 71.166664 263.84375 71.166664L260.03125 71.166664ZM261.35938 65.354164L263.51562 65.354164Q264.40625 65.354164 264.78125 65.24479Q265.29688 65.08854 265.54688 64.74479Q265.79688 64.385414 265.79688 63.86979Q265.79688 63.36979 265.5625 62.99479Q265.32812 62.604164 264.875 62.46354Q264.4375 62.322914 263.35938 62.322914L261.35938 62.322914L261.35938 65.354164ZM261.35938 69.979164L263.84375 69.979164Q264.48438 69.979164 264.75 69.93229Q265.20312 69.854164 265.51562 69.666664Q265.82812 69.46354 266.01562 69.104164Q266.21875 68.74479 266.21875 68.260414Q266.21875 67.697914 265.92188 67.291664Q265.64062 66.86979 265.125 66.71354Q264.625 66.541664 263.67188 66.541664L261.35938 66.541664L261.35938 69.979164ZM273.89062 68.822914L275.17188 68.979164Q274.85938 70.104164 274.04688 70.729164Q273.23438 71.33854 271.96875 71.33854Q270.375 71.33854 269.4375 70.354164Q268.51562 69.36979 268.51562 67.604164Q268.51562 65.760414 269.45312 64.760414Q270.40625 63.74479 271.90625 63.74479Q273.35938 63.74479 274.28125 64.74479Q275.20312 65.729164 275.20312 67.52604Q275.20312 67.635414 275.20312 67.854164L269.78125 67.854164Q269.85938 69.041664 270.45312 69.68229Q271.0625 70.322914 271.98438 70.322914Q272.65625 70.322914 273.125 69.96354Q273.60938 69.604164 273.89062 68.822914ZM269.85938 66.83854L273.90625 66.83854Q273.82812 65.916664 273.4375 65.46354Q272.85938 64.760414 271.92188 64.760414Q271.0625 64.760414 270.48438 65.322914Q269.92188 65.885414 269.85938 66.83854ZM277.21875 71.166664L277.21875 64.86979L276.125 64.86979L276.125 63.90104L277.21875 63.90104L277.21875 63.135414Q277.21875 62.40104 277.34375 62.041664Q277.53125 61.572914 277.96875 61.27604Q278.42188 60.979164 279.23438 60.979164Q279.75 60.979164 280.375 61.104164L280.1875 62.166664Q279.8125 62.104164 279.46875 62.104164Q278.90625 62.104164 278.67188 62.33854Q278.4375 62.572914 278.4375 63.229164L278.4375 63.90104L279.85938 63.90104L279.85938 64.86979L278.4375 64.86979L278.4375 71.166664L277.21875 71.166664ZM280.46875 67.541664Q280.46875 65.52604 281.59375 64.541664Q282.51562 63.74479 283.875 63.74479Q285.35938 63.74479 286.3125 64.729164Q287.26562 65.697914 287.26562 67.43229Q287.26562 68.83854 286.84375 69.65104Q286.42188 70.447914 285.60938 70.90104Q284.8125 71.33854 283.875 71.33854Q282.34375 71.33854 281.40625 70.354164Q280.46875 69.36979 280.46875 67.541664ZM281.73438 67.541664Q281.73438 68.93229 282.34375 69.635414Q282.95312 70.322914 283.875 70.322914Q284.78125 70.322914 285.39062 69.61979Q286.0 68.916664 286.0 67.49479Q286.0 66.15104 285.39062 65.46354Q284.78125 64.760414 283.875 64.760414Q282.95312 64.760414 282.34375 65.447914Q281.73438 66.135414 281.73438 67.541664ZM288.90625 71.166664L288.90625 63.90104L290.01562 63.90104L290.01562 65.010414Q290.4375 64.229164 290.79688 63.99479Q291.15625 63.74479 291.59375 63.74479Q292.21875 63.74479 292.85938 64.135414L292.4375 65.27604Q291.98438 65.010414 291.53125 65.010414Q291.125 65.010414 290.79688 65.260414Q290.48438 65.49479 290.34375 65.93229Q290.14062 66.58854 290.14062 67.36979L290.14062 71.166664L288.90625 71.166664ZM298.89062 68.822914L300.17188 68.979164Q299.85938 70.104164 299.04688 70.729164Q298.23438 71.33854 296.96875 71.33854Q295.375 71.33854 294.4375 70.354164Q293.51562 69.36979 293.51562 67.604164Q293.51562 65.760414 294.45312 64.760414Q295.40625 63.74479 296.90625 63.74479Q298.35938 63.74479 299.28125 64.74479Q300.20312 65.729164 300.20312 67.52604Q300.20312 67.635414 300.20312 67.854164L294.78125 67.854164Q294.85938 69.041664 295.45312 69.68229Q296.0625 70.322914 296.98438 70.322914Q297.65625 70.322914 298.125 69.96354Q298.60938 69.604164 298.89062 68.822914ZM294.85938 66.83854L298.90625 66.83854Q298.82812 65.916664 298.4375 65.46354Q297.85938 64.760414 296.92188 64.760414Q296.0625 64.760414 295.48438 65.322914Q294.92188 65.885414 294.85938 66.83854Z" fill-rule="nonzero"/><path fill="#3c78d8" d="M317.0 61.166668C317.0 60.614384 317.44772 60.166668 318.0 60.166668L328.0 60.166668C328.55228 60.166668 329.0 60.614384 329.0 61.166668L329.0 71.166664C329.0 71.71895 328.55228 72.166664 328.0 72.166664L318.0 72.166664C317.44772 72.166664 317.0 71.71895 317.0 71.166664Z" fill-rule="nonzero"/><path fill="#999999" d="M336.98438 71.166664L340.82812 61.15104L342.25 61.15104L346.35938 71.166664L344.84375 71.166664L343.67188 68.135414L339.48438 68.135414L338.39062 71.166664L336.98438 71.166664ZM339.875 67.05729L343.26562 67.05729L342.21875 64.27604Q341.75 63.010414 341.51562 62.197914Q341.32812 63.166664 340.96875 64.104164L339.875 67.05729ZM347.21875 71.166664L347.21875 64.86979L346.125 64.86979L346.125 63.90104L347.21875 63.90104L347.21875 63.135414Q347.21875 62.40104 347.34375 62.041664Q347.53125 61.572914 347.96875 61.27604Q348.42188 60.979164 349.23438 60.979164Q349.75 60.979164 350.375 61.104164L350.1875 62.166664Q349.8125 62.104164 349.46875 62.104164Q348.90625 62.104164 348.67188 62.33854Q348.4375 62.572914 348.4375 63.229164L348.4375 63.90104L349.85938 63.90104L349.85938 64.86979L348.4375 64.86979L348.4375 71.166664L347.21875 71.166664ZM353.60938 70.072914L353.78125 71.15104Q353.26562 71.260414 352.85938 71.260414Q352.1875 71.260414 351.8125 71.05729Q351.45312 70.83854 351.29688 70.49479Q351.15625 70.15104 351.15625 69.041664L351.15625 64.86979L350.25 64.86979L350.25 63.90104L351.15625 63.90104L351.15625 62.104164L352.375 61.36979L352.375 63.90104L353.60938 63.90104L353.60938 64.86979L352.375 64.86979L352.375 69.104164Q352.375 69.635414 352.4375 69.791664Q352.5 69.93229 352.64062 70.02604Q352.79688 70.11979 353.0625 70.11979Q353.28125 70.11979 353.60938 70.072914ZM359.89062 68.822914L361.17188 68.979164Q360.85938 70.104164 360.04688 70.729164Q359.23438 71.33854 357.96875 71.33854Q356.375 71.33854 355.4375 70.354164Q354.51562 69.36979 354.51562 67.604164Q354.51562 65.760414 355.45312 64.760414Q356.40625 63.74479 357.90625 63.74479Q359.35938 63.74479 360.28125 64.74479Q361.20312 65.729164 361.20312 67.52604Q361.20312 67.635414 361.20312 67.854164L355.78125 67.854164Q355.85938 69.041664 356.45312 69.68229Q357.0625 70.322914 357.98438 70.322914Q358.65625 70.322914 359.125 69.96354Q359.60938 69.604164 359.89062 68.822914ZM355.85938 66.83854L359.90625 66.83854Q359.82812 65.916664 359.4375 65.46354Q358.85938 64.760414 357.92188 64.760414Q357.0625 64.760414 356.48438 65.322914Q355.92188 65.885414 355.85938 66.83854ZM362.90625 71.166664L362.90625 63.90104L364.01562 63.90104L364.01562 65.010414Q364.4375 64.229164 364.79688 63.99479Q365.15625 63.74479 365.59375 63.74479Q366.21875 63.74479 366.85938 64.135414L366.4375 65.27604Q365.98438 65.010414 365.53125 65.010414Q365.125 65.010414 364.79688 65.260414Q364.48438 65.49479 364.34375 65.93229Q364.14062 66.58854 364.14062 67.36979L364.14062 71.166664L362.90625 71.166664ZM371.625 67.947914L372.875 67.83854Q372.96875 68.58854 373.29688 69.072914Q373.625 69.55729 374.29688 69.854164Q374.98438 70.15104 375.84375 70.15104Q376.59375 70.15104 377.17188 69.93229Q377.76562 69.697914 378.04688 69.30729Q378.32812 68.916664 378.32812 68.447914Q378.32812 67.979164 378.04688 67.635414Q377.78125 67.27604 377.15625 67.02604Q376.75 66.86979 375.35938 66.541664Q373.98438 66.21354 373.4375 65.916664Q372.71875 65.541664 372.35938 64.99479Q372.01562 64.43229 372.01562 63.729164Q372.01562 62.979164 372.4375 62.322914Q372.875 61.65104 373.70312 61.322914Q374.53125 60.979164 375.54688 60.979164Q376.65625 60.979164 377.5 61.33854Q378.35938 61.697914 378.8125 62.40104Q379.26562 63.08854 379.3125 63.96354L378.03125 64.05729Q377.9375 63.11979 377.34375 62.635414Q376.75 62.135414 375.59375 62.135414Q374.39062 62.135414 373.84375 62.58854Q373.29688 63.02604 373.29688 63.65104Q373.29688 64.18229 373.6875 64.541664Q374.0625 64.885414 375.67188 65.260414Q377.29688 65.61979 377.89062 65.885414Q378.76562 66.291664 379.1875 66.916664Q379.60938 67.52604 379.60938 68.33854Q379.60938 69.135414 379.14062 69.854164Q378.6875 70.55729 377.82812 70.947914Q376.96875 71.33854 375.90625 71.33854Q374.54688 71.33854 373.625 70.947914Q372.70312 70.541664 372.17188 69.74479Q371.65625 68.947914 371.625 67.947914ZM382.9375 71.166664L380.17188 63.90104L381.48438 63.90104L383.03125 68.260414Q383.28125 68.96354 383.5 69.71354Q383.67188 69.135414 383.95312 68.33854L385.57812 63.90104L386.84375 63.90104L384.09375 71.166664L382.9375 71.166664ZM392.89062 68.822914L394.17188 68.979164Q393.85938 70.104164 393.04688 70.729164Q392.23438 71.33854 390.96875 71.33854Q389.375 71.33854 388.4375 70.354164Q387.51562 69.36979 387.51562 67.604164Q387.51562 65.760414 388.45312 64.760414Q389.40625 63.74479 390.90625 63.74479Q392.35938 63.74479 393.28125 64.74479Q394.20312 65.729164 394.20312 67.52604Q394.20312 67.635414 394.20312 67.854164L388.78125 67.854164Q388.85938 69.041664 389.45312 69.68229Q390.0625 70.322914 390.98438 70.322914Q391.65625 70.322914 392.125 69.96354Q392.60938 69.604164 392.89062 68.822914ZM388.85938 66.83854L392.90625 66.83854Q392.82812 65.916664 392.4375 65.46354Q391.85938 64.760414 390.92188 64.760414Q390.0625 64.760414 389.48438 65.322914Q388.92188 65.885414 388.85938 66.83854ZM395.89062 71.166664L395.89062 61.15104L397.125 61.15104L397.125 71.166664L395.89062 71.166664ZM401.60938 70.072914L401.78125 71.15104Q401.26562 71.260414 400.85938 71.260414Q400.1875 71.260414 399.8125 71.05729Q399.45312 70.83854 399.29688 70.49479Q399.15625 70.15104 399.15625 69.041664L399.15625 64.86979L398.25 64.86979L398.25 63.90104L399.15625 63.90104L399.15625 62.104164L400.375 61.36979L400.375 63.90104L401.60938 63.90104L401.60938 64.86979L400.375 64.86979L400.375 69.104164Q400.375 69.635414 400.4375 69.791664Q400.5 69.93229 400.64062 70.02604Q400.79688 70.11979 401.0625 70.11979Q401.28125 70.11979 401.60938 70.072914ZM407.89062 68.822914L409.17188 68.979164Q408.85938 70.104164 408.04688 70.729164Q407.23438 71.33854 405.96875 71.33854Q404.375 71.33854 403.4375 70.354164Q402.51562 69.36979 402.51562 67.604164Q402.51562 65.760414 403.45312 64.760414Q404.40625 63.74479 405.90625 63.74479Q407.35938 63.74479 408.28125 64.74479Q409.20312 65.729164 409.20312 67.52604Q409.20312 67.635414 409.20312 67.854164L403.78125 67.854164Q403.85938 69.041664 404.45312 69.68229Q405.0625 70.322914 405.98438 70.322914Q406.65625 70.322914 407.125 69.96354Q407.60938 69.604164 407.89062 68.822914ZM403.85938 66.83854L407.90625 66.83854Q407.82812 65.916664 407.4375 65.46354Q406.85938 64.760414 405.92188 64.760414Q405.0625 64.760414 404.48438 65.322914Q403.92188 65.885414 403.85938 66.83854ZM411.03125 71.166664L411.03125 61.15104L412.35938 61.15104L412.35938 66.11979L417.32812 61.15104L419.125 61.15104L414.92188 65.197914L419.3125 71.166664L417.5625 71.166664L414.0 66.08854L412.35938 67.697914L412.35938 71.166664L411.03125 71.166664ZM419.9375 62.55729L419.9375 61.15104L421.15625 61.15104L421.15625 62.55729L419.9375 62.55729ZM419.9375 71.166664L419.9375 63.90104L421.15625 63.90104L421.15625 71.166664L419.9375 71.166664ZM425.60938 70.072914L425.78125 71.15104Q425.26562 71.260414 424.85938 71.260414Q424.1875 71.260414 423.8125 71.05729Q423.45312 70.83854 423.29688 70.49479Q423.15625 70.15104 423.15625 69.041664L423.15625 64.86979L422.25 64.86979L422.25 63.90104L423.15625 63.90104L423.15625 62.104164L424.375 61.36979L424.375 63.90104L425.60938 63.90104L425.60938 64.86979L424.375 64.86979L424.375 69.104164Q424.375 69.635414 424.4375 69.791664Q424.5 69.93229 424.64062 70.02604Q424.79688 70.11979 425.0625 70.11979Q425.28125 70.11979 425.60938 70.072914Z" fill-rule="nonzero"/><path fill="#999999" d="M21.46875 32.53125Q21.46875 28.96875 23.375 26.953125Q25.296875 24.921875 28.328125 24.921875Q30.3125 24.921875 31.890625 25.875Q33.484375 26.828125 34.3125 28.53125Q35.15625 30.21875 35.15625 32.359375Q35.15625 34.53125 34.28125 36.25Q33.40625 37.96875 31.78125 38.859375Q30.171875 39.75 28.3125 39.75Q26.296875 39.75 24.703125 38.78125Q23.109375 37.796875 22.28125 36.109375Q21.46875 34.40625 21.46875 32.53125ZM23.421875 32.5625Q23.421875 35.140625 24.8125 36.640625Q26.203125 38.125 28.296875 38.125Q30.4375 38.125 31.8125 36.625Q33.203125 35.109375 33.203125 32.34375Q33.203125 30.609375 32.609375 29.3125Q32.03125 28.0 30.890625 27.28125Q29.75 26.5625 28.328125 26.5625Q26.328125 26.5625 24.875 27.953125Q23.421875 29.328125 23.421875 32.5625ZM40.703125 39.5L36.75 29.125L38.609375 29.125L40.84375 35.34375Q41.203125 36.34375 41.5 37.421875Q41.734375 36.609375 42.15625 35.453125L44.453125 29.125L46.265625 29.125L42.34375 39.5L40.703125 39.5ZM53.921875 36.15625L55.734375 36.390625Q55.3125 37.96875 54.140625 38.859375Q52.984375 39.734375 51.171875 39.734375Q48.90625 39.734375 47.5625 38.34375Q46.234375 36.9375 46.234375 34.40625Q46.234375 31.78125 47.578125 30.34375Q48.921875 28.890625 51.078125 28.890625Q53.15625 28.890625 54.46875 30.3125Q55.796875 31.71875 55.796875 34.296875Q55.796875 34.453125 55.78125 34.765625L48.046875 34.765625Q48.140625 36.46875 49.015625 37.375Q49.890625 38.28125 51.1875 38.28125Q52.15625 38.28125 52.828125 37.78125Q53.515625 37.265625 53.921875 36.15625ZM48.140625 33.3125L53.9375 33.3125Q53.828125 32.015625 53.28125 31.359375Q52.4375 30.34375 51.09375 30.34375Q49.890625 30.34375 49.0625 31.15625Q48.234375 31.953125 48.140625 33.3125ZM57.796875 39.5L57.796875 29.125L59.375 29.125L59.375 30.703125Q59.984375 29.59375 60.5 29.25Q61.015625 28.890625 61.625 28.890625Q62.515625 28.890625 63.4375 29.453125L62.828125 31.09375Q62.1875 30.703125 61.546875 30.703125Q60.96875 30.703125 60.5 31.0625Q60.046875 31.40625 59.84375 32.015625Q59.5625 32.953125 59.5625 34.0625L59.5625 39.5L57.796875 39.5ZM71.59375 38.21875Q70.609375 39.046875 69.703125 39.390625Q68.796875 39.734375 67.765625 39.734375Q66.0625 39.734375 65.140625 38.90625Q64.21875 38.0625 64.21875 36.765625Q64.21875 36.0 64.5625 35.375Q64.921875 34.75 65.484375 34.375Q66.046875 33.984375 66.75 33.78125Q67.265625 33.65625 68.3125 33.515625Q70.4375 33.265625 71.4375 32.921875Q71.453125 32.5625 71.453125 32.453125Q71.453125 31.390625 70.953125 30.9375Q70.28125 30.34375 68.953125 30.34375Q67.703125 30.34375 67.109375 30.78125Q66.53125 31.21875 66.25 32.328125L64.53125 32.09375Q64.765625 30.984375 65.296875 30.3125Q65.828125 29.625 66.84375 29.265625Q67.859375 28.890625 69.203125 28.890625Q70.53125 28.890625 71.359375 29.203125Q72.1875 29.515625 72.578125 30.0Q72.96875 30.46875 73.125 31.1875Q73.21875 31.640625 73.21875 32.8125L73.21875 35.15625Q73.21875 37.609375 73.328125 38.265625Q73.4375 38.90625 73.78125 39.5L71.9375 39.5Q71.671875 38.953125 71.59375 38.21875ZM71.4375 34.296875Q70.484375 34.6875 68.5625 34.953125Q67.484375 35.109375 67.03125 35.3125Q66.59375 35.5 66.34375 35.875Q66.09375 36.25 66.09375 36.71875Q66.09375 37.421875 66.625 37.890625Q67.15625 38.359375 68.1875 38.359375Q69.203125 38.359375 69.984375 37.921875Q70.78125 37.46875 71.15625 36.703125Q71.4375 36.09375 71.4375 34.9375L71.4375 34.296875ZM75.78125 39.5L75.78125 25.1875L77.53125 25.1875L77.53125 39.5L75.78125 39.5ZM79.78125 39.5L79.78125 25.1875L81.53125 25.1875L81.53125 39.5L79.78125 39.5ZM89.96875 39.5L89.96875 25.1875L91.859375 25.1875L91.859375 37.8125L98.90625 37.8125L98.90625 39.5L89.96875 39.5ZM107.59375 38.21875Q106.609375 39.046875 105.703125 39.390625Q104.796875 39.734375 103.765625 39.734375Q102.0625 39.734375 101.140625 38.90625Q100.21875 38.0625 100.21875 36.765625Q100.21875 36.0 100.5625 35.375Q100.921875 34.75 101.484375 34.375Q102.046875 33.984375 102.75 33.78125Q103.265625 33.65625 104.3125 33.515625Q106.4375 33.265625 107.4375 32.921875Q107.453125 32.5625 107.453125 32.453125Q107.453125 31.390625 106.953125 30.9375Q106.28125 30.34375 104.953125 30.34375Q103.703125 30.34375 103.109375 30.78125Q102.53125 31.21875 102.25 32.328125L100.53125 32.09375Q100.765625 30.984375 101.296875 30.3125Q101.828125 29.625 102.84375 29.265625Q103.859375 28.890625 105.203125 28.890625Q106.53125 28.890625 107.359375 29.203125Q108.1875 29.515625 108.578125 30.0Q108.96875 30.46875 109.125 31.1875Q109.21875 31.640625 109.21875 32.8125L109.21875 35.15625Q109.21875 37.609375 109.328125 38.265625Q109.4375 38.90625 109.78125 39.5L107.9375 39.5Q107.671875 38.953125 107.59375 38.21875ZM107.4375 34.296875Q106.484375 34.6875 104.5625 34.953125Q103.484375 35.109375 103.03125 35.3125Q102.59375 35.5 102.34375 35.875Q102.09375 36.25 102.09375 36.71875Q102.09375 37.421875 102.625 37.890625Q103.15625 38.359375 104.1875 38.359375Q105.203125 38.359375 105.984375 37.921875Q106.78125 37.46875 107.15625 36.703125Q107.4375 36.09375 107.4375 34.9375L107.4375 34.296875ZM111.8125 39.5L111.8125 29.125L113.40625 29.125L113.40625 30.609375Q114.546875 28.890625 116.703125 28.890625Q117.640625 28.890625 118.421875 29.234375Q119.21875 29.5625 119.609375 30.109375Q120.0 30.65625 120.15625 31.40625Q120.25 31.90625 120.25 33.125L120.25 39.5L118.484375 39.5L118.484375 33.1875Q118.484375 32.109375 118.28125 31.578125Q118.078125 31.046875 117.546875 30.734375Q117.03125 30.421875 116.328125 30.421875Q115.203125 30.421875 114.390625 31.140625Q113.578125 31.84375 113.578125 33.828125L113.578125 39.5L111.8125 39.5ZM128.54688 39.5L128.54688 38.1875Q127.5625 39.734375 125.640625 39.734375Q124.40625 39.734375 123.359375 39.046875Q122.328125 38.359375 121.75 37.140625Q121.1875 35.921875 121.1875 34.328125Q121.1875 32.765625 121.703125 31.5Q122.21875 30.234375 123.25 29.5625Q124.296875 28.890625 125.5625 28.890625Q126.5 28.890625 127.234375 29.296875Q127.96875 29.6875 128.4375 30.3125L128.4375 25.1875L130.17188 25.1875L130.17188 39.5L128.54688 39.5ZM122.984375 34.328125Q122.984375 36.3125 123.828125 37.296875Q124.671875 38.28125 125.8125 38.28125Q126.96875 38.28125 127.765625 37.34375Q128.57812 36.40625 128.57812 34.46875Q128.57812 32.34375 127.75 31.34375Q126.9375 30.34375 125.734375 30.34375Q124.5625 30.34375 123.765625 31.3125Q122.984375 32.265625 122.984375 34.328125ZM132.82812 27.203125L132.82812 25.1875L134.59375 25.1875L134.59375 27.203125L132.82812 27.203125ZM132.82812 39.5L132.82812 29.125L134.59375 29.125L134.59375 39.5L132.82812 39.5ZM136.8125 39.5L136.8125 29.125L138.40625 29.125L138.40625 30.609375Q139.54688 28.890625 141.70312 28.890625Q142.64062 28.890625 143.42188 29.234375Q144.21875 29.5625 144.60938 30.109375Q145.0 30.65625 145.15625 31.40625Q145.25 31.90625 145.25 33.125L145.25 39.5L143.48438 39.5L143.48438 33.1875Q143.48438 32.109375 143.28125 31.578125Q143.07812 31.046875 142.54688 30.734375Q142.03125 30.421875 141.32812 30.421875Q140.20312 30.421875 139.39062 31.140625Q138.57812 31.84375 138.57812 33.828125L138.57812 39.5L136.8125 39.5ZM146.5 40.359375L148.20312 40.609375Q148.3125 41.40625 148.79688 41.765625Q149.45312 42.25 150.59375 42.25Q151.8125 42.25 152.46875 41.765625Q153.14062 41.28125 153.375 40.40625Q153.51562 39.859375 153.5 38.140625Q152.34375 39.5 150.625 39.5Q148.48438 39.5 147.3125 37.953125Q146.14062 36.40625 146.14062 34.25Q146.14062 32.765625 146.67188 31.515625Q147.21875 30.265625 148.23438 29.578125Q149.26562 28.890625 150.64062 28.890625Q152.46875 28.890625 153.67188 30.375L153.67188 29.125L155.28125 29.125L155.28125 38.09375Q155.28125 40.515625 154.78125 41.515625Q154.29688 42.53125 153.21875 43.109375Q152.15625 43.703125 150.59375 43.703125Q148.75 43.703125 147.59375 42.875Q146.45312 42.046875 146.5 40.359375ZM147.95312 34.125Q147.95312 36.171875 148.76562 37.109375Q149.57812 38.046875 150.79688 38.046875Q152.0 38.046875 152.8125 37.109375Q153.64062 36.171875 153.64062 34.1875Q153.64062 32.28125 152.79688 31.3125Q151.95312 30.34375 150.76562 30.34375Q149.59375 30.34375 148.76562 31.296875Q147.95312 32.25 147.95312 34.125Z" fill-rule="nonzero"/></svg>